<svg width="31" height="31" viewBox="0 0 31 31" fill="none" xmlns="http://www.w3.org/2000/svg">
<circle cx="15.5" cy="15.2754" r="15" fill="#D9D9D9"/>
<path d="M17.7189 12.3223L17.688 4.56502C17.6842 3.6131 16.9094 2.84448 15.9571 2.84788L14.2331 2.85475C13.2812 2.85854 12.5126 3.63331 12.516 4.58562L12.5469 12.3429L4.78964 12.3738C3.83772 12.3775 3.0691 13.1523 3.07251 14.1046L3.07938 15.8286C3.08317 16.7805 3.85793 17.5492 4.81024 17.5458L12.5675 17.5149L12.5984 25.2721C12.6022 26.224 13.3769 26.9926 14.3292 26.9892L16.0532 26.9824C17.0052 26.9786 17.7742 26.2034 17.7704 25.2515L17.7395 17.4943L25.4967 17.4634C26.4486 17.4596 27.2176 16.6844 27.2139 15.7325L27.207 14.0085C27.2032 13.0566 26.4284 12.2879 25.4761 12.2914L17.7189 12.3223Z" fill="#797575"/>
</svg>
