<svg width="60" height="60" viewBox="0 0 60 60" fill="none" xmlns="http://www.w3.org/2000/svg">
<path d="M51.3002 38.0251L46.8002 33.5001V22.3501C46.8601 18.2097 45.4198 14.1874 42.7455 11.0259C40.0711 7.86451 36.3433 5.77744 32.2502 5.1501C29.8747 4.83727 27.4598 5.03464 25.1667 5.72904C22.8735 6.42344 20.7549 7.59891 18.952 9.17701C17.1491 10.7551 15.7035 12.6995 14.7117 14.8806C13.7199 17.0616 13.2046 19.4291 13.2002 21.8251V33.5001L8.70018 38.0251C8.13495 38.5998 7.75164 39.3283 7.59818 40.1196C7.44473 40.9109 7.52792 41.7299 7.83738 42.4742C8.14683 43.2185 8.66881 43.8551 9.33806 44.3043C10.0073 44.7536 10.7941 44.9956 11.6002 45.0001H20.0002V45.8501C20.117 48.3881 21.2351 50.7763 23.1095 52.4914C24.9839 54.2065 27.4618 55.1087 30.0002 55.0001C32.5386 55.1087 35.0164 54.2065 36.8909 52.4914C38.7653 50.7763 39.8834 48.3881 40.0002 45.8501V45.0001H48.4002C49.2062 44.9956 49.9931 44.7536 50.6623 44.3043C51.3316 43.8551 51.8535 43.2185 52.163 42.4742C52.4724 41.7299 52.5556 40.9109 52.4022 40.1196C52.2487 39.3283 51.8654 38.5998 51.3002 38.0251ZM35.0002 45.8501C34.8615 47.0526 34.2643 48.1553 33.3329 48.9283C32.4014 49.7014 31.2076 50.0853 30.0002 50.0001C28.7927 50.0853 27.5989 49.7014 26.6675 48.9283C25.7361 48.1553 25.1388 47.0526 25.0002 45.8501V45.0001H35.0002V45.8501Z" fill="#E94438"/>
</svg>
