<svg width="95" height="67" viewBox="0 0 95 67" fill="none" xmlns="http://www.w3.org/2000/svg">
<g clip-path="url(#clip0_70_16014)">
<path style="mix-blend-mode:multiply" fill-rule="evenodd" clip-rule="evenodd" d="M59.9424 26.9018C76.2568 26.4501 88.9033 34.6542 88.024 44.2211C87.6357 48.4667 85.9029 52.1878 81.1954 55.2045C75.1919 59.019 68.5447 61.1695 61.7484 61.4963C54.9521 61.823 48.1815 60.3176 41.9402 57.0919C35.9491 53.9144 31.8608 49.4774 31.8608 44.2211C31.8608 41.5872 32.8235 39.0873 34.5211 36.8516C36.4464 34.3096 39.6554 32.3763 43.2559 30.6919C47.973 28.4829 53.5694 27.0779 59.9424 26.9018ZM59.9424 29.8114C74.54 29.3443 84.0353 36.262 83.3069 44.2173C82.5848 52.0806 72.9708 58.627 59.9424 58.627C54.131 58.627 48.6886 57.3177 44.6004 55.1509C39.6169 52.5094 36.578 48.593 36.578 44.2173C36.578 39.7152 40.0212 35.4122 45.8391 32.6941C49.7604 30.8565 54.638 29.9798 59.9392 29.8114H59.9424Z" fill="url(#paint0_radial_70_16014)"/>
<path fill-rule="evenodd" clip-rule="evenodd" d="M86.9781 40.9326H87.0744C87.0744 41.3154 87.0969 41.6715 87.0969 42.039C87.127 42.5492 87.1195 43.0616 87.0744 43.5703C86.6861 47.8427 84.9693 51.6097 80.2939 54.6226C74.3503 58.4644 67.7491 60.634 60.995 60.9658C54.2408 61.2976 47.5125 59.7826 41.3243 56.5368C35.3749 53.3401 31.3156 48.8802 31.3156 43.5818C31.2835 42.7089 31.2835 41.8322 31.3156 40.9594H31.6365H36.3761C36.1238 41.7998 35.9936 42.6853 35.991 43.578C35.991 47.9805 39.0042 51.9237 43.9557 54.5843C48.0118 56.7665 53.4125 58.0834 59.1854 58.0834C72.1207 58.0834 81.6641 51.4911 82.3797 43.578C82.4596 42.7027 82.4162 41.8176 82.2514 40.9594L86.9781 40.9326Z" fill="url(#paint1_linear_70_16014)"/>
<path fill-rule="evenodd" clip-rule="evenodd" d="M59.1949 23.4984C75.3905 23.0467 87.9439 31.3043 87.0743 40.9325C86.686 45.2088 84.9692 48.972 80.2938 51.9887C74.3499 55.8293 67.7488 57.9984 60.9948 58.3301C54.2408 58.6619 47.5126 57.1476 41.3242 53.9028C35.3748 50.7062 31.3154 46.2462 31.3154 40.9478C31.3154 38.2987 32.2621 35.7835 33.9564 33.5324C35.8818 30.9751 39.0651 29.0265 42.6206 27.3344C47.3025 25.1101 52.8572 23.6937 59.1852 23.5061L59.1949 23.4984ZM59.1949 26.4271C73.6865 25.96 83.1144 32.9352 82.3892 40.9325C81.6736 48.8456 72.1205 55.438 59.1949 55.438C53.4187 55.438 48.0213 54.1172 43.9652 51.9389C39.0137 49.2782 36.0005 45.3351 36.0005 40.9325C36.0005 36.3998 39.4213 32.0776 45.1974 29.3328C49.0899 27.4799 53.9322 26.5994 59.1949 26.4271Z" fill="url(#paint2_linear_70_16014)"/>
<path fill-rule="evenodd" clip-rule="evenodd" d="M82.3926 40.9327C83.1178 32.9239 73.6899 25.9602 59.1982 26.4272C53.9356 26.5995 49.0932 27.48 45.2008 29.3329C39.4246 32.0778 36.0039 36.4 36.0039 40.9327C36.0042 41.3778 36.0353 41.8221 36.097 42.2611C36.6778 38.2108 39.9766 34.4361 45.2008 31.9515C49.0932 30.1024 53.9356 29.2181 59.1982 29.0496C72.355 28.6247 81.34 34.3327 82.3412 41.3921C82.3605 41.239 82.3766 41.0858 82.3926 40.9327Z" fill="url(#paint3_linear_70_16014)"/>
<path style="mix-blend-mode:multiply" fill-rule="evenodd" clip-rule="evenodd" d="M80.2938 54.3164C80.2457 54.3432 80.204 54.3738 80.159 54.4044C79.7258 54.6839 79.7964 53.0148 80.1398 52.6396C80.917 51.7705 81.7879 51.0289 82.7294 50.4345C83.1402 50.178 83.0503 52.0921 82.6043 52.5554C81.9099 53.2731 81.1316 53.8663 80.2938 54.3164ZM79.79 52.3103H79.7547C78.545 53.076 77.2614 53.7919 75.904 54.4542H75.8623C74.4506 55.1458 73.0087 55.7464 71.543 56.2535C69.7529 56.8761 67.9306 57.3582 66.0878 57.6968H66.0589C63.798 58.1087 61.5141 58.3148 59.227 58.3131H59.1981C56.9207 58.3152 54.6465 58.1104 52.3951 57.7006C50.5885 57.3942 48.7998 56.9531 47.0394 56.3798H47.0105L46.7666 56.2956C45.3214 55.7939 43.8999 55.1997 42.5083 54.5155H42.473C42.0848 54.3202 41.7029 54.1326 41.3274 53.9221C40.4075 53.4295 39.5358 52.9063 38.7122 52.3525C37.5475 51.5769 36.4425 50.6801 35.4101 49.6726L35.2368 49.5004C34.2255 48.4998 33.348 47.3212 32.6344 46.0051C32.5959 45.9362 32.5606 45.8635 32.5253 45.7908L32.4194 45.5725C32.3841 45.4998 32.3488 45.4271 32.3167 45.3543C31.7151 44.0641 31.3848 42.6191 31.354 41.1432V41.281C31.4199 42.6869 31.7084 44.0651 32.2044 45.3428C32.3777 45.7716 32.352 47.8389 32.0985 47.2187C31.5875 45.9891 31.3186 44.6365 31.3123 43.2641C31.2962 42.8812 31.2898 42.4984 31.2866 42.1156C31.2866 42.5979 31.2866 43.0803 31.3123 43.5665C31.3219 45.1195 31.6632 46.6439 32.3039 47.9958L32.3295 48.0456L32.4354 48.2638L32.5445 48.4782L32.6504 48.6773C33.3625 49.9538 34.2274 51.0991 35.2176 52.0768L35.3427 52.2032L35.5289 52.3831C36.4567 53.2663 37.4405 54.0624 38.4715 54.7643L38.6415 54.8792L38.8373 55.0131C39.6074 55.5236 40.4215 56.0085 41.2793 56.4679C41.5981 56.6389 41.919 56.8073 42.242 56.9732L42.4249 57.0613H42.4538L42.6175 57.1417C43.9499 57.7879 45.309 58.3526 46.6896 58.8338H46.7249L46.9495 58.9142H46.988L47.0875 58.9486C48.7333 59.5002 50.4049 59.9361 52.0935 60.2541L52.3021 60.2924H52.3213L52.4978 60.323C54.6498 60.7286 56.8238 60.9461 59.0024 60.9738H59.4292C61.5905 60.9641 63.7483 60.767 65.8856 60.3843L66.0428 60.3575H66.0653L66.2835 60.3154C67.9737 59.9938 69.6464 59.5528 71.2927 58.9946L71.527 58.9142H71.5558L71.6874 58.8721C73.109 58.3706 74.4696 57.7963 75.7628 57.1723L75.8623 57.1225H75.8976L76.1318 57.0077C77.3255 56.4143 78.4647 55.7711 79.5461 55.0935L79.7579 54.9634H79.7932L79.9312 54.8753L80.2938 54.6418C81.1971 54.0699 82.0562 53.4037 82.861 52.6511L82.9637 52.5554C83.015 52.5094 83.0632 52.4597 83.1113 52.4099L83.2204 52.2989C84.2546 51.2757 85.1244 50.0369 85.7876 48.6428L85.8357 48.5395C85.8614 48.4821 85.887 48.4285 85.9095 48.371L85.9833 48.1949C86.0058 48.1375 86.0282 48.0801 86.0539 48.0226L86.102 47.904C86.6178 46.5554 86.9431 45.1144 87.0647 43.6392C87.0966 43.2845 87.1095 42.9278 87.1032 42.5711C87.1032 42.8276 87.1032 43.088 87.0647 43.3368C86.9583 44.5938 86.709 45.8276 86.3235 47.0043C86.0956 47.6819 86.1245 45.7907 86.1245 45.7831C86.1464 45.433 86.2146 45.0893 86.3267 44.7647C86.7089 43.6481 86.9574 42.4727 87.0647 41.2733C87.0695 41.1841 87.0695 41.0946 87.0647 41.0054C86.946 42.4604 86.6295 43.8827 86.1277 45.2165L86.0635 45.385C86.0186 45.4998 85.9705 45.6146 85.9191 45.7295C85.8935 45.7907 85.8678 45.8482 85.8389 45.9056C85.147 47.3865 84.2258 48.6973 83.1241 49.7683L82.9701 49.9177C82.1403 50.7076 81.252 51.4059 80.3163 52.0041L79.8125 52.3257L79.79 52.3103ZM79.3119 54.9366C78.4191 55.7037 77.4132 56.2635 76.3468 56.5866C75.9072 56.732 76.0002 55.2428 76.4206 54.8447C77.2639 53.9962 78.2762 53.4213 79.36 53.1755C79.8638 53.0798 79.7034 54.5882 79.3119 54.9366ZM75.4804 57.0115C74.4192 57.6812 73.2804 58.1586 72.1013 58.428C71.3986 58.5964 71.5013 56.8967 71.896 56.6555C73.0413 55.9129 74.2929 55.4325 75.5863 55.239C76.0387 55.1931 75.9457 56.7129 75.4804 57.0115ZM71.0905 58.7802C69.68 59.4825 68.1764 59.8817 66.6493 59.9593C65.969 60.0052 66.0781 58.1485 66.5338 57.9992C67.9625 57.475 69.4324 57.1262 70.9205 56.9579C71.6264 56.9082 71.482 58.5811 71.0905 58.7802ZM65.6353 60.1507C63.6737 60.665 61.6613 60.848 59.657 60.6943C59.1596 60.6561 59.1789 58.7572 59.657 58.6998C61.4348 58.4892 63.4436 58.317 65.539 58.1715C66.2033 58.1255 66.1038 60.0244 65.6353 60.1507ZM58.7617 60.6943C56.7436 60.8665 54.7152 60.6833 52.7417 60.1507C52.3438 60.0359 52.2443 58.0758 52.8284 58.1102C55.0008 58.2404 57.0289 58.4663 58.7745 58.6998C59.2559 58.7649 59.2527 60.6599 58.7745 60.6943H58.7617ZM51.8496 59.9861C50.2998 59.7952 48.7732 59.3944 47.2993 58.7917C46.9784 58.65 46.7987 56.7014 47.4405 56.8277C48.9487 57.1264 50.4666 57.536 51.933 57.9494C52.3213 58.0566 52.4337 60.0588 51.8432 59.9861H51.8496ZM46.3944 58.4816C45.1341 58.2175 43.9188 57.7079 42.7972 56.9732C42.518 56.7856 42.3254 55.017 42.9961 55.1777C44.2208 55.4889 45.4155 55.9494 46.5613 56.5521C46.8821 56.7244 47.0426 58.6271 46.3944 58.4663V58.4816ZM41.9018 56.533C40.8417 56.1966 39.8458 55.6195 38.9689 54.8332C38.6897 54.5767 38.648 52.8884 38.9689 53.0109C40.076 53.4596 41.1381 54.0528 42.1361 54.7796C42.4217 54.9825 42.5725 56.755 41.9051 56.533H41.9018ZM38.3367 54.4044C37.3445 53.9218 36.4474 53.1982 35.7022 52.2797C35.3813 51.8586 35.3267 50.2354 35.6829 50.423C36.6781 50.9724 37.5901 51.715 38.3816 52.6204C38.5902 52.8501 38.7025 54.592 38.3367 54.4044ZM35.0283 51.6098C34.1079 50.7869 33.3317 49.7568 32.7435 48.5777C32.4771 48.0456 32.4483 46.1238 32.782 46.6177C33.488 47.6704 34.3191 48.6696 35.0475 49.7722C35.2561 50.0899 35.4165 51.9581 35.0283 51.6098ZM85.8421 47.2302C85.8208 47.8911 85.6548 48.5339 85.3608 49.0946C84.8604 50.1427 84.1829 51.0553 83.3712 51.7744C83.0022 52.1151 83.0503 50.0899 83.4065 49.6726C84.2599 48.7037 84.9993 47.6014 85.6047 46.3956C85.8582 45.8788 85.8421 47.2149 85.8421 47.2187V47.2302Z" fill="url(#paint4_radial_70_16014)"/>
<g style="mix-blend-mode:multiply">
<path fill-rule="evenodd" clip-rule="evenodd" d="M59.195 24.2221C74.8611 23.7895 87.0038 31.7065 86.1502 40.9327C85.7748 45.029 84.1126 48.6199 79.5911 51.5294C73.326 55.576 66.3097 57.6821 59.1854 57.6547C53.3548 57.6851 47.5816 56.2816 42.226 53.5316L41.9051 53.3632C36.1515 50.3005 32.2269 46.0167 32.2269 40.9442C32.2269 38.4022 33.1447 35.9942 34.7941 33.835C36.6585 31.3849 39.7359 29.5205 43.1823 27.8935C47.7005 25.7535 53.0627 24.3944 59.195 24.2221ZM81.5165 51.1275C82.0157 50.749 82.4967 50.3374 82.9573 49.8947C83.1114 49.7493 83.259 49.6 83.4002 49.4545C83.9464 48.882 84.448 48.2515 84.8987 47.571C85.2809 46.9813 85.6202 46.3537 85.9128 45.6951C86.1353 45.1849 86.3273 44.6566 86.4872 44.114C86.7803 43.0851 86.9772 42.0208 87.0744 40.9403C87.944 31.3121 75.3906 23.0545 59.195 23.5062C52.8669 23.6862 47.3218 25.1026 42.6303 27.3345C39.0652 29.0266 35.8915 30.9753 33.9662 33.5326C32.2718 35.7836 31.3252 38.2988 31.3252 40.948V41.0667C31.3252 41.0667 31.3252 41.0896 31.3252 41.1011C31.3252 41.1892 31.3252 41.2772 31.3252 41.3653C31.3592 41.9128 31.4268 42.4566 31.5274 42.9923C31.5723 43.2105 31.6236 43.4287 31.6814 43.6393C31.8594 44.2808 32.0894 44.9001 32.3681 45.4884C32.6316 46.0221 32.9254 46.5337 33.2474 47.0197C33.792 47.8366 34.4001 48.5903 35.0636 49.2707L35.3845 49.6038C37.1947 51.3285 39.1889 52.7587 41.3147 53.857C42.1618 54.3126 43.0411 54.7452 43.9589 55.1472C46.1329 56.0938 48.3656 56.8362 50.6367 57.3676C51.2015 57.4978 51.7748 57.6164 52.3567 57.7236C54.4815 58.1049 56.626 58.3096 58.7746 58.3362H59.1789C60.9775 58.3357 62.7745 58.2079 64.5604 57.9533C66.9184 57.6165 69.2494 57.0506 71.5302 56.2612L71.5976 56.2382C72.2169 56.0239 72.8235 55.7903 73.4171 55.5492C74.2514 55.2123 75.0505 54.8486 75.8655 54.4542C77.239 53.7843 78.5418 53.0493 79.7708 52.276L79.8222 52.2453C80.4255 51.8625 80.9774 51.4797 81.4972 51.0968L81.5165 51.1275Z" fill="#F1D3E2"/>
</g>
<path style="mix-blend-mode:multiply" fill-rule="evenodd" clip-rule="evenodd" d="M42.5405 4.31483C58.8132 2.83327 71.8062 10.2257 71.3538 19.831C71.1548 24.0995 69.592 27.924 65.0225 31.2317C59.1974 35.4207 52.6552 37.9883 45.8831 38.7433C39.111 39.4982 32.2833 38.4211 25.9085 35.5921C19.7826 32.7974 15.5051 28.6246 15.2708 23.376C15.1521 20.7459 15.996 18.1924 17.6005 15.8495C19.4232 13.1888 22.5391 11.0565 26.0497 9.14615C30.6578 6.64244 36.1868 4.88142 42.5405 4.30334V4.31483ZM42.6753 7.22051C57.2279 5.83084 67.0217 12.1361 66.6462 20.1296C66.274 28.0274 56.968 35.171 43.9557 35.9979C38.1507 36.3807 32.6602 35.4007 28.4821 33.498C23.3863 31.1742 20.1805 27.4531 19.988 23.0888C19.7858 18.5906 23.0333 14.0847 28.7228 10.9952C32.5735 8.9088 37.3869 7.72202 42.6753 7.22051Z" fill="url(#paint5_radial_70_16014)"/>
<path fill-rule="evenodd" clip-rule="evenodd" d="M70.1629 16.5999H70.2592C70.2881 16.9827 70.3138 17.3311 70.3298 17.6986C70.3825 18.2064 70.3975 18.7189 70.3747 19.2299C70.179 23.5253 68.629 27.3727 64.0948 30.7148C58.3297 34.9249 51.834 37.5068 45.1044 38.2632C38.3747 39.0196 31.5892 37.9305 25.2664 35.0791C19.1694 32.2614 14.9303 28.058 14.6961 22.7749C14.6212 21.9072 14.5827 21.0356 14.5806 20.1602H14.9015L19.6539 19.8577C19.4404 20.7126 19.3504 21.6046 19.3876 22.4954C19.5833 26.8903 22.7666 30.6383 27.8271 32.9812C31.9795 34.8953 37.4283 35.8792 43.1948 35.5117C56.1077 34.6924 65.3366 27.5067 65.7089 19.5591C65.7491 18.68 65.6667 17.799 65.465 16.9521L70.1725 16.6535L70.1629 16.5999Z" fill="url(#paint6_linear_70_16014)"/>
<path fill-rule="evenodd" clip-rule="evenodd" d="M41.6418 0.949812C57.7957 -0.527914 70.6989 6.9258 70.2593 16.5961C70.0603 20.8876 68.5136 24.7389 63.9794 28.081C58.2133 32.2881 51.7178 34.8683 44.9886 35.6246C38.2594 36.381 31.4743 35.2936 25.151 32.4453C19.054 29.6277 14.8181 25.4242 14.5839 20.1411C14.4652 17.4919 15.2995 14.9231 16.8911 12.5687C18.701 9.88891 21.7912 7.74506 25.2761 5.82708C29.8489 3.30806 35.3362 1.5432 41.6418 0.965128V0.949812ZM41.7766 3.87464C56.2169 2.4888 65.9497 8.85144 65.5839 16.8909C65.218 24.8385 55.9826 32.0242 43.0666 32.8434C37.2905 33.2263 31.8352 32.2347 27.7021 30.3129C22.6416 27.97 19.4583 24.2221 19.2625 19.8272C19.0604 15.3021 22.2822 10.7694 27.9267 7.66083C31.7326 5.56675 36.53 4.37998 41.7766 3.87464Z" fill="url(#paint7_linear_70_16014)"/>
<path fill-rule="evenodd" clip-rule="evenodd" d="M65.5774 16.8908C65.9432 8.85137 56.22 2.48872 41.7701 3.87457C36.5234 4.3799 31.7261 5.56667 27.9202 7.66076C22.2757 10.7693 19.0539 15.3174 19.256 19.8271C19.2754 20.2716 19.3259 20.7134 19.4069 21.1479C19.808 17.0631 22.9367 13.0893 28.0358 10.2793C31.8448 8.1814 36.639 6.99464 41.8856 6.49313C55.0167 5.23362 64.2456 10.3674 65.5453 17.3502C65.5453 17.1971 65.5677 17.0439 65.5774 16.8908Z" fill="url(#paint8_linear_70_16014)"/>
<path style="mix-blend-mode:multiply" fill-rule="evenodd" clip-rule="evenodd" d="M64.0823 30.3896L63.9539 30.4853C63.5336 30.7915 63.5271 29.1186 63.8545 28.7243C64.5939 27.8102 65.4299 27.0149 66.3414 26.3584C66.7393 26.0789 66.7297 27.9931 66.3093 28.4831C65.6501 29.2485 64.8996 29.8935 64.0823 30.3972V30.3896ZM63.4918 28.4333H63.4565C62.2821 29.2717 61.0338 30.0718 59.7085 30.8222H59.67C58.2907 31.601 56.8778 32.2923 55.4374 32.8933C53.6737 33.6282 51.8718 34.2253 50.0431 34.6811H50.0142C47.7754 35.236 45.5044 35.5867 43.2209 35.7301H43.192C40.9173 35.8745 38.6367 35.813 36.3697 35.5463C34.5529 35.3519 32.7481 35.0221 30.9658 34.5586H30.937L30.6899 34.4897C29.2238 34.0728 27.7776 33.5616 26.3578 32.9584H26.3353C25.9374 32.7899 25.5491 32.6176 25.164 32.4415C24.227 32.0051 23.3285 31.5381 22.4846 31.0366C21.2799 30.3321 20.1299 29.502 19.0478 28.5558L18.8713 28.395C17.8186 27.459 16.8904 26.3387 16.118 25.0721L15.9993 24.8653C15.9608 24.7964 15.9223 24.7275 15.887 24.6586L15.7746 24.4481C15.1203 23.1975 14.7305 21.776 14.6387 20.3058C14.6387 20.3479 14.6387 20.3939 14.6387 20.4398C14.7705 21.8713 15.1368 23.2579 15.7169 24.5208C15.9062 24.9381 15.9736 27.0054 15.6912 26.4005C15.1256 25.2045 14.7963 23.8703 14.7285 22.4994C14.6964 22.1166 14.6708 21.7338 14.6515 21.3509C14.6708 21.8333 14.6996 22.3157 14.7414 22.7981C14.8193 24.3485 15.228 25.8494 15.9287 27.1585L15.9543 27.2044L16.0667 27.415L16.1822 27.6217L16.2977 27.817C17.0633 29.0485 17.977 30.1385 19.0093 31.0519L19.1408 31.1706L19.3334 31.3428C20.3001 32.1666 21.3194 32.8988 22.3819 33.5326L22.5552 33.6398L22.7573 33.7585C23.5489 34.2179 24.3832 34.6505 25.2603 35.0563C25.5812 35.2094 25.9021 35.3549 26.2519 35.5004L26.438 35.5769H26.4669L26.637 35.6497C27.9956 36.2104 29.3772 36.6883 30.7765 37.0815H30.815L31.0429 37.1427H31.0814L31.1841 37.1695C32.851 37.6172 34.5386 37.9471 36.2382 38.1572L36.4467 38.1802L36.6265 38.1993C38.7827 38.4471 40.9511 38.5098 43.115 38.3869H43.2882H43.3171H43.5418C45.6985 38.2389 47.8434 37.905 49.9597 37.3877L50.1137 37.3494H50.1394L50.3544 37.292C52.0272 36.8639 53.6774 36.3181 55.2962 35.6573L55.5272 35.5616H55.5561L55.6844 35.508C57.0835 34.9185 58.4153 34.26 59.6796 33.5518L59.7759 33.4982H59.8112L60.039 33.368C61.2071 32.7019 62.3141 31.9898 63.3635 31.2509L63.5689 31.1055H63.6041L63.7389 31.0098L64.0887 30.7571C64.9605 30.1257 65.785 29.4059 66.5532 28.6056L66.6495 28.5022L66.7874 28.3491C66.8227 28.3108 66.858 28.2725 66.8901 28.2304C67.8777 27.1389 68.6901 25.8416 69.2872 24.4021C69.3031 24.3675 69.317 24.3317 69.3289 24.2949L69.3963 24.1226C69.4215 24.0641 69.4439 24.0041 69.4637 23.9427C69.4862 23.8853 69.5054 23.824 69.5247 23.7666L69.5664 23.6403C70.019 22.2595 70.278 20.7993 70.3333 19.3181C70.351 18.9624 70.351 18.6057 70.3333 18.25C70.3333 18.5065 70.3333 18.7668 70.3333 19.0157C70.2845 20.278 70.0902 21.5263 69.7557 22.7253C69.56 23.4182 69.5022 21.5309 69.5022 21.5232C69.5086 21.1706 69.5628 20.8215 69.6627 20.4896C69.9949 19.3505 70.1894 18.1606 70.2403 16.956C70.2451 16.8681 70.2451 16.7799 70.2403 16.6919C70.1862 18.1511 69.9336 19.5902 69.4926 20.9528L69.4348 21.1212C69.3931 21.2399 69.3514 21.3548 69.3065 21.4735C69.284 21.5347 69.2616 21.596 69.2359 21.6572C68.6123 23.1823 67.7496 24.5507 66.6944 25.6884L66.5468 25.8492C65.7501 26.6921 64.8908 27.4468 63.9796 28.1041L63.4918 28.4563V28.4333ZM63.1324 31.0825C62.2748 31.9064 61.2951 32.531 60.2444 32.9239C59.8144 33.0962 59.84 31.5993 60.2444 31.1782C61.0487 30.2759 62.0346 29.6363 63.1068 29.3215C63.6074 29.1952 63.5143 30.7112 63.1389 31.0825H63.1324ZM59.3972 33.4025C58.3655 34.1366 57.2484 34.6849 56.0823 35.0295C55.3924 35.2439 55.4181 33.5365 55.8 33.2723C56.9109 32.4577 58.1396 31.8981 59.4229 31.6223C59.8721 31.5457 59.8465 33.0732 59.3972 33.4025ZM55.0908 35.4429C53.7128 36.2332 52.229 36.7282 50.7073 36.9054C50.0303 36.9934 50.0656 35.1329 50.5084 34.9529C51.911 34.339 53.3626 33.8977 54.8405 33.636C55.5432 33.5403 55.4823 35.2171 55.0908 35.4429ZM49.7094 37.1542C47.771 37.7901 45.7669 38.0956 43.7568 38.0615C43.2594 38.0615 43.192 36.1474 43.6669 36.0708C45.4318 35.7492 47.431 35.4353 49.5168 35.1711C50.1779 35.0869 50.1586 36.9857 49.703 37.1389L49.7094 37.1542ZM42.8679 38.1343C40.8602 38.4349 38.8263 38.3807 36.8318 37.9734C36.4307 37.8854 36.2446 35.9368 36.8318 35.933C39.0075 35.933 41.042 36.0172 42.7941 36.1435C43.2786 36.178 43.3588 38.0577 42.8711 38.1343H42.8679ZM35.9333 37.8663C34.3774 37.7761 32.8354 37.4716 31.3381 36.959C30.9979 36.8441 30.7444 34.907 31.3926 34.9912C32.9105 35.1941 34.4444 35.5042 35.9365 35.8258C36.328 35.91 36.527 37.9007 35.9365 37.8663H35.9333ZM30.4299 36.7178C29.1593 36.5321 27.9225 36.1002 26.7685 35.4391C26.4829 35.2707 26.2102 33.525 26.8905 33.6322C28.1282 33.864 29.3424 34.2489 30.5134 34.7807C30.8343 34.9261 31.0846 36.8173 30.4299 36.7178ZM25.8636 35.0524C24.789 34.7777 23.7691 34.2577 22.86 33.5211C22.568 33.2838 22.4428 31.607 22.7734 31.7065C23.9005 32.082 24.9887 32.6072 26.0176 33.2723C26.3096 33.4522 26.5407 35.2132 25.8636 35.0333V35.0524ZM22.2086 33.1383C21.1956 32.7211 20.2675 32.0546 19.4842 31.182C19.144 30.7992 19.0157 29.1645 19.3815 29.3291C20.3995 29.8156 21.3429 30.4999 22.1733 31.3543C22.3915 31.5725 22.5776 33.3029 22.2086 33.1383ZM18.7814 30.558C17.8254 29.794 17.0036 28.8148 16.3619 27.6753C16.0731 27.1623 15.9608 25.2405 16.3137 25.7152C17.0678 26.7221 17.9407 27.6638 18.7172 28.7204C18.9387 29.0229 19.1825 30.8834 18.7814 30.558ZM69.3289 22.9665C69.3359 23.6286 69.1988 24.2815 68.931 24.8615C68.4791 25.9429 67.843 26.9 67.0634 27.6715C66.7072 28.0543 66.6591 26.0138 67.0057 25.5697C67.8147 24.5489 68.5035 23.4013 69.0529 22.1587C69.284 21.6266 69.3289 22.9627 69.3289 22.9665ZM69.3257 24.3447C69.3416 24.3101 69.3555 24.2742 69.3675 24.2375L69.3257 24.3447ZM69.4413 24.0499C69.4664 23.9914 69.4889 23.9313 69.5086 23.87L69.4413 24.0499Z" fill="url(#paint9_radial_70_16014)"/>
<g style="mix-blend-mode:multiply">
<path fill-rule="evenodd" clip-rule="evenodd" d="M41.6771 1.67337C57.2983 0.249237 69.7779 7.3852 69.3447 16.6535C69.1554 20.769 67.6536 24.4594 63.2669 27.6484C57.7304 31.6496 51.5121 34.1181 45.0699 34.8721C38.6277 35.6261 32.1257 34.6463 26.043 32.005L25.7221 31.8519C19.8401 29.1721 15.7294 25.1294 15.5048 20.0684C15.3925 17.5302 16.2011 15.0648 17.7511 12.7946C19.5 10.2296 22.4907 8.17 25.8633 6.33241C30.2788 3.93206 35.5736 2.2323 41.6771 1.67337ZM65.1634 27.1278C65.645 26.7176 66.1067 26.2754 66.5465 25.8032C66.6941 25.6462 66.8321 25.4893 66.9669 25.3323C67.4875 24.7271 67.9601 24.0658 68.3788 23.3569C68.7354 22.7445 69.0467 22.0964 69.3094 21.4198C69.5093 20.8962 69.6777 20.3564 69.8132 19.8042C70.0614 18.7581 70.2099 17.6819 70.256 16.5961C70.6956 6.9258 57.7924 -0.527914 41.6386 0.949812C35.3297 1.52789 29.8424 3.29274 25.2729 5.81177C21.7879 7.72592 18.6945 9.87359 16.8879 12.5534C15.2834 14.9078 14.4619 17.4766 14.5806 20.1258C14.5806 20.1679 14.5806 20.21 14.5806 20.256V20.2866L14.5999 20.5507C14.6573 21.0965 14.7485 21.6365 14.8726 22.1663C14.9272 22.3807 14.9882 22.5912 15.0555 22.8018C15.2638 23.4334 15.5262 24.0377 15.8385 24.6049C16.1226 25.1289 16.4379 25.6279 16.782 26.098C17.3666 26.8788 18.0112 27.5927 18.7073 28.2303C18.8164 28.3337 18.932 28.4371 19.0475 28.5404C20.928 30.1464 22.9781 31.449 25.1445 32.4147C26.0109 32.7975 26.9126 33.1803 27.8432 33.5325C30.0564 34.3409 32.3192 34.9413 34.6109 35.328C35.1789 35.4237 35.7597 35.5041 36.3438 35.573C38.4828 35.8215 40.6338 35.8906 42.7809 35.7798L43.1853 35.7529C44.9811 35.6424 46.7696 35.402 48.541 35.0332C50.8812 34.5486 53.1844 33.8368 55.4274 32.9047L55.4916 32.8779C56.1013 32.6227 56.6971 32.3547 57.279 32.074C58.0941 31.6911 58.8835 31.27 59.6761 30.8259C61.0207 30.0603 62.2882 29.2525 63.4787 28.4026L63.5268 28.3682C64.1141 27.947 64.6468 27.5412 65.1506 27.1125L65.1634 27.1278Z" fill="#F1D3E2"/>
</g>
<path style="mix-blend-mode:multiply" fill-rule="evenodd" clip-rule="evenodd" d="M29.6373 20.6387C45.9484 20.1869 58.5949 28.391 57.7188 37.9579C57.3274 42.2035 55.5977 45.9246 50.887 48.9413C44.8839 52.7552 38.2373 54.9054 31.4416 55.2322C24.6459 55.5589 17.8759 54.0538 11.635 50.8287C5.64068 47.6512 1.55566 43.2142 1.55566 37.9579C1.55566 35.324 2.51836 32.8242 4.2159 30.5884C6.14128 28.0464 9.35022 26.1131 12.9507 24.4287C17.6646 22.2197 23.2611 20.8148 29.6373 20.6387ZM29.6373 23.5443C44.2316 23.0811 53.7301 29.9989 52.9985 37.9541C52.2764 45.8174 42.6656 52.3638 29.6373 52.3638C23.8226 52.3638 18.3834 51.0545 14.2952 48.8877C9.30851 46.2462 6.27284 42.326 6.27284 37.9541C6.27284 33.452 9.71925 29.149 15.5371 26.4309C19.4584 24.5933 24.3361 23.7166 29.6373 23.5443Z" fill="url(#paint10_radial_70_16014)"/>
<path fill-rule="evenodd" clip-rule="evenodd" d="M56.6694 34.6658H56.7625C56.7625 35.0486 56.7849 35.4008 56.7881 35.7721C56.8154 36.2825 56.8069 36.7948 56.7625 37.3035C56.3774 41.5758 54.6574 45.3429 49.9819 48.3558C44.039 52.1927 37.4396 54.3584 30.6879 54.6875C23.9361 55.0166 17.2107 53.5004 11.0252 50.2546C5.07576 47.0542 1.01964 42.598 1.01964 37.2996C0.984339 36.4268 0.984339 35.5501 1.01964 34.6772H1.34053H6.09942C5.84965 35.5183 5.72055 36.4036 5.71756 37.2958C5.71756 41.6984 8.73077 45.6415 13.679 48.3022C17.7383 50.4843 23.139 51.8013 28.9119 51.8013C41.844 51.8013 51.3746 45.2089 52.103 37.2958C52.1829 36.4205 52.1395 35.5355 51.9747 34.6772L56.6694 34.6658Z" fill="url(#paint11_linear_70_16014)"/>
<path fill-rule="evenodd" clip-rule="evenodd" d="M28.8831 17.2316C45.0787 16.7798 57.6353 25.0375 56.7625 34.6657C56.3774 38.9419 54.6574 42.7051 49.9819 45.7218C44.0381 49.5625 37.437 51.7315 30.683 52.0633C23.929 52.395 17.2008 50.8807 11.0124 47.636C5.06296 44.4393 1.00684 39.9794 1.00684 34.681C1.00684 32.0318 1.96952 29.5166 3.6478 27.2656C5.57318 24.7083 8.75646 22.7597 12.312 21.0675C16.9939 18.8433 22.5518 17.4268 28.8766 17.2392L28.8831 17.2316ZM28.8831 20.1602C43.3715 19.6932 52.7994 26.6684 52.0742 34.6657C51.3586 42.5788 41.8055 49.1673 28.8831 49.1673C23.1069 49.1673 17.7094 47.8504 13.6501 45.6682C8.70191 43.0114 5.68869 39.0644 5.68869 34.6657C5.68869 30.133 9.10624 25.8108 14.8824 23.0659C18.778 21.213 23.6204 20.3325 28.8831 20.1602Z" fill="url(#paint12_linear_70_16014)"/>
<path fill-rule="evenodd" clip-rule="evenodd" d="M52.0808 34.6656C52.806 26.6568 43.3781 19.6931 28.8896 20.1602C23.627 20.3324 18.7846 21.2129 14.889 23.0658C9.11284 25.8107 5.69531 30.1329 5.69531 34.6656C5.6956 35.1107 5.72672 35.555 5.78837 35.994C6.36919 31.9399 9.66478 28.169 14.889 25.6844C18.7846 23.8353 23.627 22.951 28.8896 22.7825C42.0464 22.3538 51.0315 28.0656 52.0295 35.1212C52.0487 34.9719 52.068 34.8188 52.0808 34.6656Z" fill="url(#paint13_linear_70_16014)"/>
<path style="mix-blend-mode:multiply" fill-rule="evenodd" clip-rule="evenodd" d="M49.9818 48.0494L49.847 48.1375C49.4138 48.4169 49.4844 46.7478 49.8277 46.3726C50.6065 45.5041 51.4784 44.7626 52.4206 44.1675C52.8313 43.911 52.7414 45.8252 52.2954 46.2884C51.6015 47.007 50.8231 47.6003 49.9849 48.0494H49.9818ZM49.4812 46.0434H49.4458C48.2329 46.8091 46.9493 47.525 45.5951 48.1873H45.5566C44.1442 48.8766 42.7024 49.4772 41.2373 49.9866C39.4472 50.6087 37.6249 51.0909 35.7821 51.4298H35.734C33.4742 51.8418 31.1913 52.0478 28.9053 52.0462H28.8764C26.598 52.0483 24.3226 51.8436 22.0702 51.4337C20.2754 51.1054 18.4996 50.6438 16.753 50.0516H16.7241L16.477 49.9674C15.0316 49.465 13.6101 48.8695 12.2187 48.1834H12.1963C11.808 47.9882 11.4261 47.8006 11.0507 47.59C10.1329 47.0975 9.26221 46.5743 8.43858 46.0204H8.42254C7.25788 45.2449 6.1529 44.3481 5.12051 43.3406L4.95044 43.1683C3.94083 42.1668 3.06442 40.9883 2.35118 39.6731L2.24208 39.4587C2.20357 39.386 2.17148 39.3132 2.13618 39.2405C2.10088 39.1678 2.06879 39.095 2.0367 39.0223C1.43491 37.7322 1.10455 36.2871 1.07402 34.8111C1.07402 34.8571 1.07402 34.903 1.07402 34.9452C1.141 36.3835 1.44411 37.7922 1.96612 39.0912C2.13619 39.52 2.11372 41.5873 1.86022 40.9671C1.34775 39.7381 1.07877 38.3851 1.07402 37.0124C1.07402 36.6296 1.04834 36.2468 1.04834 35.8639C1.04834 36.3463 1.04835 36.8287 1.07402 37.3149C1.08396 38.8678 1.42521 40.3922 2.06559 41.7442L2.08806 41.794C2.12015 41.8667 2.15543 41.9395 2.19073 42.0122C2.22603 42.0849 2.26133 42.1577 2.29984 42.2266L2.40574 42.4295C3.11808 43.7058 3.98294 44.8511 4.97291 45.829L5.09806 45.9554L5.28738 46.1353C6.21584 47.0193 7.20078 47.8155 8.2332 48.5165L8.40329 48.6313L8.59903 48.7653C9.36918 49.2783 10.1842 49.7645 11.0378 50.2239L12.0005 50.7293L12.1802 50.8173H12.2091L12.376 50.8977C13.7071 51.5445 15.0652 52.1093 16.4449 52.5898H16.4802L16.7049 52.6702H16.7434L16.8428 52.7047C18.4832 53.2804 20.1504 53.7405 21.836 54.0829L22.0414 54.1211H22.0606L22.2371 54.1518C24.3747 54.5302 26.5325 54.7234 28.6935 54.7298H29.1171C31.2784 54.7204 33.4362 54.5234 35.5735 54.1403L35.7308 54.1135H35.7564L35.9746 54.0714C37.6648 53.7498 39.3375 53.3088 40.9838 52.7506L41.2149 52.6702H41.247L41.3753 52.6281C42.8001 52.1304 44.1607 51.5562 45.4539 50.9322L45.5534 50.8824H45.5855L45.8229 50.7637C47.0167 50.1703 48.1526 49.531 49.2341 48.8496L49.4458 48.7194H49.4844L49.6224 48.6313L49.9818 48.3978C50.8838 47.8234 51.7427 47.1573 52.5489 46.4071L52.6484 46.3114L52.796 46.1659L52.9083 46.0549C53.9423 45.0314 54.8121 43.7927 55.4755 42.3989L55.5236 42.2955L55.6006 42.1271L55.6777 41.9509C55.7033 41.8935 55.7258 41.8361 55.7482 41.7787L55.7964 41.6562C56.3123 40.3077 56.6375 38.8666 56.7591 37.3914C56.7904 37.0367 56.8044 36.68 56.8008 36.3233C56.8008 36.5798 56.7815 36.8402 56.7591 37.089C56.6541 38.3463 56.4046 39.5803 56.0178 40.7565C55.79 41.4341 55.8189 39.5429 55.8189 39.5353C55.8419 39.185 55.9112 38.8414 56.0242 38.517C56.4073 37.3995 56.6547 36.2226 56.7591 35.0217C56.7654 34.9338 56.7654 34.8455 56.7591 34.7576C56.6414 36.2124 56.326 37.6347 55.8253 38.9687L55.7579 39.1372C55.713 39.252 55.6648 39.3668 55.6167 39.4817L55.5397 39.6578C54.8501 41.1406 53.9285 42.4519 52.8249 43.5205L52.6709 43.6699C51.8394 44.4589 50.9501 45.1572 50.0138 45.7563L49.5132 46.0779L49.4812 46.0434ZM49.003 48.6696C48.1091 49.4368 47.1021 49.9966 46.0347 50.3196C45.5983 50.4651 45.6914 48.9759 46.1085 48.5777C46.9527 47.7286 47.9663 47.1537 49.0512 46.9086C49.555 46.8129 49.3945 48.3174 49.003 48.6696ZM45.1523 50.7446C44.0913 51.4149 42.9524 51.8923 41.7732 52.161C41.0737 52.3295 41.1764 50.6297 41.5679 50.3885C42.7133 49.6465 43.9649 49.1661 45.2582 48.9721C45.7106 48.9261 45.6176 50.446 45.1523 50.7446ZM40.7624 52.5133C39.3575 53.2168 37.8594 53.6185 36.3373 53.7C35.657 53.746 35.7693 51.8892 36.225 51.7399C37.6537 51.2158 39.1235 50.8669 40.6116 50.6986C41.3144 50.6489 41.1699 52.318 40.7784 52.5209L40.7624 52.5133ZM35.3072 53.8799C33.3459 54.3971 31.3333 54.5814 29.3289 54.4274C28.8315 54.3891 28.8475 52.4864 29.3289 52.4329C31.1034 52.2223 33.1155 52.05 35.2077 51.9007C35.872 51.8586 35.7757 53.7574 35.3072 53.8799ZM28.4336 54.4274C26.4144 54.5994 24.3849 54.4162 22.4104 53.8838C22.0125 53.7689 21.9162 51.8088 22.497 51.8433C24.6727 51.9735 26.7008 52.1993 28.4432 52.4329C28.9278 52.4979 28.9214 54.393 28.4432 54.4274H28.4336ZM21.5183 53.7192C19.9694 53.5287 18.4439 53.1279 16.9712 52.5247C16.6343 52.3831 16.4706 50.4345 17.1092 50.5608C18.6206 50.8594 20.1352 51.269 21.6017 51.6825C21.99 51.7897 22.0991 53.7919 21.5087 53.7192H21.5183ZM16.0631 52.2146C14.8021 51.9488 13.586 51.4394 12.4626 50.7063C12.1834 50.5187 11.9909 48.75 12.6648 48.9108C13.8895 49.222 15.0842 49.6825 16.2299 50.2852C16.5508 50.4536 16.7113 52.3601 16.0631 52.1993V52.2146ZM11.5705 50.266C10.5119 49.928 9.51731 49.351 8.64075 48.5663C8.35836 48.3098 8.31985 46.6177 8.64075 46.744C9.74862 47.1934 10.8118 47.7865 11.8112 48.5127C12.0936 48.7156 12.2476 50.4881 11.5769 50.266H11.5705ZM8.00857 48.1375C7.01605 47.6556 6.11875 46.932 5.37403 46.0128C5.05313 45.5917 4.99537 43.9685 5.35156 44.1561C6.348 44.705 7.26107 45.4476 8.0535 46.3535C8.26208 46.5832 8.37439 48.3251 8.00857 48.1375ZM4.69694 45.3428C3.77819 44.5179 3.00225 43.4882 2.41215 42.3108C2.1458 41.7787 2.12015 39.8569 2.45067 40.3507C3.15985 41.4035 3.99097 42.4027 4.7162 43.5052C4.92478 43.823 5.08523 45.6912 4.69694 45.3428ZM55.5108 40.9632C55.4889 41.6235 55.3242 42.2658 55.0327 42.8276C54.5313 43.8749 53.854 44.7873 53.0431 45.5074C52.6709 45.8482 52.7222 43.823 53.0752 43.4057C53.9295 42.4378 54.6691 41.3353 55.2733 40.1287C55.53 39.6118 55.5108 40.9479 55.5108 40.9518V40.9632Z" fill="url(#paint14_radial_70_16014)"/>
<g style="mix-blend-mode:multiply">
<path fill-rule="evenodd" clip-rule="evenodd" d="M28.886 17.955C44.5489 17.5224 56.6916 25.4394 55.8412 34.6656C55.469 38.7619 53.8068 42.3528 49.2853 45.2623C47.6094 46.3398 45.8761 47.2848 44.0965 48.0914C33.6766 52.7444 22.1567 52.4443 11.917 47.253L11.5961 47.0846C5.84247 44.022 1.91791 39.7381 1.91791 34.6656C1.91791 32.1236 2.83246 29.7156 4.48507 27.5564C6.34627 25.1063 9.42687 23.2381 12.8733 21.6149C17.4011 19.4825 22.7729 18.1273 28.8956 17.955H28.886ZM51.2043 44.8604C51.704 44.4828 52.1851 44.0712 52.6451 43.6277C52.7959 43.4822 52.9436 43.3329 53.0847 43.1836C53.6325 42.6143 54.1342 41.985 54.5833 41.3039C54.9666 40.7151 55.306 40.0874 55.5974 39.428C55.8212 38.9186 56.0132 38.3901 56.1718 37.8469C56.4663 36.8185 56.6632 35.754 56.759 34.6732C57.6318 25.045 45.0752 16.7874 28.8796 17.2391C22.5547 17.4191 17.0064 18.8355 12.3149 21.0674C8.75299 22.7596 5.57613 24.7082 3.65075 27.2655C1.95642 29.5165 1.00977 32.0317 1.00977 34.6809V34.8455C1.00977 34.9336 1.00977 35.0216 1.00977 35.1097C1.04246 35.6573 1.11005 36.2013 1.21193 36.7367C1.25686 36.9549 1.305 37.1693 1.36597 37.3837C1.54124 38.0265 1.77134 38.6461 2.05268 39.2328C2.31395 39.7682 2.60784 40.28 2.93195 40.7641C3.4754 41.581 4.08245 42.3347 4.745 43.0151L5.06589 43.3482C6.88344 45.0833 8.88761 46.5202 11.0249 47.6206C11.8721 48.0761 12.7546 48.5087 13.6691 48.9107C15.8433 49.8569 18.076 50.5993 20.3469 51.1311C20.9117 51.2613 21.4861 51.38 22.0702 51.4872C24.195 51.8683 26.3395 52.0729 28.4881 52.0997H28.8892C30.6878 52.0995 32.4848 51.9717 34.2706 51.7169C36.6297 51.38 38.9618 50.8141 41.2437 50.0248L41.3079 50.0018C41.9261 49.7823 42.5337 49.5526 43.1306 49.3127C43.9617 48.9758 44.7639 48.6121 45.5758 48.2178C46.9653 47.5517 48.2488 46.809 49.4779 46.0433L49.526 46.0127C50.1325 45.6298 50.6812 45.247 51.2011 44.8642L51.2043 44.8604Z" fill="#F1D3E2"/>
</g>
<path style="mix-blend-mode:multiply" fill-rule="evenodd" clip-rule="evenodd" d="M51.1373 4.55981C67.4484 4.10807 80.0949 12.3121 79.2188 21.8791C78.8274 26.1247 77.0977 29.8458 72.387 32.8625C66.3839 36.6763 59.7373 38.8266 52.9416 39.1533C46.1459 39.4801 39.3759 37.9749 33.135 34.7498C27.1407 31.5723 23.0557 27.1353 23.0557 21.8791C23.0557 19.2452 24.0184 16.7453 25.7159 14.5096C27.6413 11.9676 30.8502 10.0343 34.4507 8.34983C39.1646 6.14089 44.7611 4.73591 51.1373 4.55981ZM51.1373 7.46549C65.7316 7.00226 75.2301 13.92 74.4985 21.8752C73.7765 29.7386 64.1656 36.285 51.1373 36.285C45.3226 36.285 39.8834 34.9757 35.7952 32.8089C30.8085 30.1673 27.7728 26.2472 27.7728 21.8752C27.7728 17.3731 31.2193 13.0701 37.0371 10.352C40.9584 8.51444 45.8361 7.63776 51.1373 7.46549Z" fill="url(#paint15_radial_70_16014)"/>
<path fill-rule="evenodd" clip-rule="evenodd" d="M78.1694 18.5869H78.2625C78.2625 18.9697 78.2849 19.322 78.2881 19.6933C78.3154 20.2037 78.3069 20.7159 78.2625 21.2246C77.8774 25.497 76.1574 29.2641 71.4819 32.2769C65.539 36.1138 58.9396 38.2795 52.1879 38.6086C45.4361 38.9377 38.7107 37.4215 32.5252 34.1758C26.5758 30.9753 22.5196 26.5192 22.5196 21.2208C22.4843 20.3479 22.4843 19.4713 22.5196 18.5984H22.8405H27.5994C27.3497 19.4394 27.2206 20.3247 27.2176 21.217C27.2176 25.6195 30.2308 29.5627 35.179 32.2234C39.2383 34.4055 44.639 35.7224 50.4119 35.7224C63.344 35.7224 72.8746 29.1301 73.603 21.217C73.6829 20.3417 73.6395 19.4566 73.4747 18.5984L78.1694 18.5869Z" fill="url(#paint16_linear_70_16014)"/>
<path fill-rule="evenodd" clip-rule="evenodd" d="M50.3831 1.15271C66.5787 0.700973 79.1353 8.95863 78.2625 18.5868C77.8774 22.863 76.1574 26.6263 71.4819 29.643C65.5381 33.4836 58.937 35.6527 52.183 35.9844C45.429 36.3162 38.7008 34.8018 32.5124 31.5571C26.563 28.3605 22.5068 23.9005 22.5068 18.6021C22.5068 15.953 23.4695 13.4378 25.1478 11.1867C27.0732 8.6294 30.2565 6.6808 33.812 4.98868C38.4939 2.76444 44.0518 1.34796 50.3766 1.16038L50.3831 1.15271ZM50.3831 4.08138C64.8715 3.61432 74.2994 10.5895 73.5742 18.5868C72.8586 26.4999 63.3055 33.0884 50.3831 33.0884C44.6069 33.0884 39.2094 31.7715 35.1501 29.5894C30.2019 26.9325 27.1887 22.9855 27.1887 18.5868C27.1887 14.0541 30.6062 9.73196 36.3824 6.98706C40.278 5.13416 45.1204 4.25365 50.3831 4.08138Z" fill="url(#paint17_linear_70_16014)"/>
<path fill-rule="evenodd" clip-rule="evenodd" d="M73.5808 18.5867C74.306 10.5779 64.8781 3.61425 50.3897 4.0813C45.127 4.25358 40.2846 5.13408 36.389 6.98698C30.6128 9.73188 27.1953 14.054 27.1953 18.5867C27.1956 19.0319 27.2267 19.4762 27.2884 19.9152C27.8692 15.861 31.1648 12.0901 36.389 9.60555C40.2846 7.75647 45.127 6.87213 50.3897 6.70368C63.5464 6.27491 72.5315 11.9867 73.5295 19.0423C73.5487 18.893 73.5679 18.7399 73.5808 18.5867Z" fill="url(#paint18_linear_70_16014)"/>
<path style="mix-blend-mode:multiply" fill-rule="evenodd" clip-rule="evenodd" d="M71.4818 31.9706L71.347 32.0586C70.9138 32.3381 70.9844 30.669 71.3277 30.2938C72.1055 29.4255 72.9763 28.684 73.9173 28.0887C74.3281 27.8322 74.2382 29.7464 73.7922 30.2096C73.0983 30.9282 72.3199 31.5215 71.4818 31.9706ZM70.9811 29.9646H70.9458C69.7329 30.7302 68.4493 31.4461 67.0951 32.1084H67.0566C65.6442 32.7977 64.2024 33.3983 62.7373 33.9077C60.9472 34.5299 59.1249 35.012 57.2821 35.351H57.234C54.9742 35.7629 52.6913 35.969 50.4053 35.9673H50.3764C48.098 35.9695 45.8226 35.7647 43.5702 35.3548C41.7754 35.0266 39.9996 34.565 38.253 33.9728H38.2241L37.977 33.8886C36.5316 33.3861 35.1101 32.7906 33.7187 32.1046H33.6963C33.308 31.9094 32.9261 31.7217 32.5507 31.5112C31.6329 31.0186 30.7622 30.4954 29.9386 29.9416H29.9225C28.7579 29.166 27.6529 28.2693 26.6205 27.2618L26.4504 27.0895C25.4408 26.088 24.5644 24.9095 23.8512 23.5943L23.7421 23.3799C23.7036 23.3071 23.6715 23.2344 23.6362 23.1617C23.6009 23.0889 23.5688 23.0162 23.5367 22.9434C22.9349 21.6533 22.6046 20.2083 22.574 18.7323C22.574 18.7783 22.574 18.8242 22.574 18.8663C22.641 20.3047 22.9441 21.7133 23.4661 23.0124C23.6362 23.4411 23.6137 25.5084 23.3602 24.8882C22.8478 23.6592 22.5788 22.3062 22.574 20.9336C22.574 20.5508 22.5483 20.1679 22.5483 19.7851C22.5483 20.2675 22.5483 20.7498 22.574 21.236C22.584 22.789 22.9252 24.3133 23.5656 25.6654L23.5881 25.7152C23.6201 25.7879 23.6554 25.8606 23.6907 25.9333C23.726 26.0061 23.7613 26.0788 23.7998 26.1478L23.9057 26.3506C24.6181 27.627 25.4829 28.7722 26.4729 29.7502L26.5981 29.8765L26.7874 30.0564C27.7158 30.9405 28.7008 31.7367 29.7332 32.4377L29.9033 32.5525L30.099 32.6865C30.8692 33.1995 31.6842 33.6857 32.5378 34.1451L33.5005 34.6504L33.6802 34.7384H33.7091L33.876 34.8189C35.2071 35.4656 36.5652 36.0304 37.9449 36.511H37.9802L38.2049 36.5914H38.2434L38.3428 36.6258C39.9832 37.2015 41.6504 37.6617 43.336 38.004L43.5414 38.0423H43.5606L43.7371 38.0729C45.8747 38.4513 48.0325 38.6445 50.1935 38.651H50.6171C52.7784 38.6416 54.9362 38.4445 57.0735 38.0614L57.2308 38.0346H57.2564L57.4746 37.9925C59.1648 37.671 60.8375 37.23 62.4838 36.6718L62.7149 36.5914H62.747L62.8753 36.5493C64.3001 36.0516 65.6607 35.4773 66.9539 34.8533L67.0534 34.8035H67.0855L67.3229 34.6849C68.5167 34.0915 69.6526 33.4522 70.734 32.7707L70.9458 32.6405H70.9844L71.1224 32.5525L71.4818 32.319C72.3838 31.7445 73.2427 31.0785 74.0489 30.3283L74.1484 30.2325L74.296 30.0871L74.4083 29.9761C75.4423 28.9525 76.3121 27.7138 76.9755 26.32L77.0236 26.2167L77.1006 26.0482L77.1777 25.8721C77.2033 25.8147 77.2258 25.7572 77.2482 25.6998L77.2964 25.5773C77.8123 24.2288 78.1375 22.7878 78.2591 21.3126C78.2904 20.9578 78.3044 20.6012 78.3008 20.2445C78.3008 20.501 78.2815 20.7613 78.2591 21.0101C78.1541 22.2674 77.9046 23.5015 77.5178 24.6777C77.2899 25.3553 77.3188 23.4641 77.3188 23.4564C77.3418 23.1062 77.4112 22.7625 77.5242 22.4381C77.9073 21.3207 78.1547 20.1437 78.2591 18.9429C78.2654 18.855 78.2654 18.7666 78.2591 18.6787C78.1414 20.1336 77.826 21.5559 77.3253 22.8899L77.2579 23.0583C77.213 23.1732 77.1648 23.288 77.1167 23.4028L77.0397 23.579C76.3501 25.0618 75.4285 26.373 74.3249 27.4417L74.1709 27.591C73.3394 28.3801 72.4501 29.0783 71.5138 29.6774L71.0132 29.999L70.9811 29.9646ZM70.503 32.5908C69.6091 33.358 68.6021 33.9177 67.5347 34.2408C67.0983 34.3863 67.1914 32.897 67.6085 32.4989C68.4527 31.6498 69.4663 31.0749 70.5512 30.8298C71.055 30.7341 70.8945 32.2386 70.503 32.5908ZM66.6683 34.6657C65.6074 35.336 64.4685 35.8134 63.2893 36.0822C62.5897 36.2506 62.6924 34.5509 63.0839 34.3097C64.2294 33.5676 65.4809 33.0872 66.7742 32.8932C67.2267 32.8473 67.1336 34.3671 66.6683 34.6657ZM62.2784 36.4344C60.8685 37.1401 59.3648 37.5419 57.8373 37.6212C57.157 37.6671 57.2693 35.8104 57.725 35.6611C59.1537 35.1369 60.6235 34.788 62.1116 34.6198C62.8144 34.57 62.6699 36.2392 62.2784 36.4421V36.4344ZM56.8232 37.8011C54.862 38.3183 52.8494 38.5026 50.8449 38.3486C50.3476 38.3103 50.3636 36.4076 50.8449 36.354C52.6195 36.1434 54.6315 35.9712 56.7237 35.8219C57.388 35.7798 57.2917 37.6786 56.8232 37.8011ZM49.9496 38.3486C47.9304 38.5206 45.901 38.3374 43.9264 37.8049C43.5285 37.6901 43.4322 35.73 44.0131 35.7645C46.1887 35.8946 48.2168 36.1205 49.9593 36.354C50.4438 36.4191 50.4374 38.3141 49.9593 38.3486H49.9496ZM43.0343 37.6403C41.4855 37.4498 39.9599 37.0491 38.4872 36.4459C38.1503 36.3042 37.9866 34.3556 38.6252 34.482C40.1367 34.7806 41.6513 35.1902 43.1178 35.6037C43.5061 35.7108 43.6151 37.7131 43.0247 37.6403H43.0343ZM37.5791 36.1358C36.3182 35.87 35.1021 35.3605 33.9787 34.6274C33.6995 34.4398 33.5069 32.6712 34.1808 32.832C35.4055 33.1431 36.6002 33.6037 37.746 34.2063C38.0669 34.3748 38.2273 36.2813 37.5791 36.1205V36.1358ZM33.0866 34.1872C32.0279 33.8492 31.0334 33.2722 30.1568 32.4874C29.8744 32.2309 29.8359 30.5388 30.1568 30.6651C31.2647 31.1145 32.3279 31.7076 33.3272 32.4338C33.6096 32.6367 33.7637 34.4092 33.093 34.1872H33.0866ZM29.5246 32.0586C28.5321 31.5768 27.6348 30.8531 26.8901 29.9339C26.5692 29.5128 26.5114 27.8896 26.8676 28.0772C27.864 28.6261 28.7771 29.3687 29.5695 30.2747C29.7781 30.5044 29.8905 32.2462 29.5246 32.0586ZM26.213 29.264C25.2942 28.4391 24.5183 27.4094 23.9282 26.232C23.6619 25.6998 23.6362 23.778 23.9667 24.2719C24.6759 25.3247 25.507 26.3238 26.2322 27.4264C26.4408 27.7441 26.6013 29.6124 26.213 29.264ZM77.0268 24.8844C77.005 25.5447 76.8403 26.187 76.5487 26.7488C76.0473 27.7961 75.37 28.7084 74.5591 29.4286C74.1869 29.7693 74.2382 27.7441 74.5912 27.3269C75.4455 26.359 76.1851 25.2564 76.7893 24.0498C77.0461 23.533 77.0268 24.8691 77.0268 24.8729V24.8844Z" fill="url(#paint19_radial_70_16014)"/>
<g style="mix-blend-mode:multiply">
<path fill-rule="evenodd" clip-rule="evenodd" d="M50.3865 1.87617C66.0494 1.44357 78.1921 9.36051 77.3417 18.5867C76.9695 22.683 75.3072 26.274 70.7858 29.1835C69.1099 30.2609 67.3766 31.206 65.5969 32.0126C55.1771 36.6656 43.6572 36.3654 33.4175 31.1742L33.0966 31.0057C27.343 27.9431 23.4184 23.6592 23.4184 18.5867C23.4184 16.0447 24.3329 13.6367 25.9856 11.4776C27.8468 9.02744 30.9274 7.15924 34.3738 5.53603C38.9016 3.40367 44.2734 2.04845 50.3961 1.87617H50.3865ZM72.7048 28.7815C73.2045 28.4039 73.6856 27.9924 74.1456 27.5488C74.2964 27.4033 74.444 27.254 74.5852 27.1047C75.1329 26.5355 75.6347 25.9061 76.0838 25.225C76.4671 24.6363 76.8064 24.0086 77.0979 23.3491C77.3217 22.8397 77.5137 22.3112 77.6722 21.768C77.9667 20.7396 78.1637 19.6751 78.2595 18.5944C79.1323 8.96619 66.5757 0.708541 50.3801 1.16028C44.0552 1.34021 38.5069 2.75669 33.8154 4.98859C30.2535 6.6807 27.0766 8.62931 25.1512 11.1866C23.4569 13.4377 22.5103 15.9529 22.5103 18.602V18.7667C22.5103 18.8547 22.5103 18.9428 22.5103 19.0308C22.5429 19.5785 22.6105 20.1224 22.7124 20.6578C22.7573 20.8761 22.8055 21.0904 22.8665 21.3048C23.0417 21.9476 23.2718 22.5672 23.5532 23.1539C23.8144 23.6893 24.1083 24.2012 24.4324 24.6852C24.9759 25.5022 25.5829 26.2559 26.2455 26.9363L26.5664 27.2693C28.3839 29.0045 30.3881 30.4414 32.5254 31.5417C33.3726 31.9973 34.255 32.4299 35.1696 32.8319C37.3438 33.778 39.5765 34.5204 41.8474 35.0523C42.4122 35.1824 42.9866 35.3011 43.5706 35.4083C45.6955 35.7894 47.84 35.9941 49.9886 36.0208H50.3897C52.1883 36.0207 53.9853 35.8928 55.7711 35.638C58.1302 35.3011 60.4622 34.7352 62.7442 33.9459L62.8084 33.9229C63.4266 33.7034 64.0342 33.4737 64.631 33.2338C65.4622 32.8969 66.2644 32.5332 67.0763 32.1389C68.4529 31.469 69.7557 30.7339 70.9816 29.9606L71.0297 29.93C71.6362 29.5472 72.1849 29.1643 72.7048 28.7815Z" fill="#F1D3E2"/>
</g>
<path style="mix-blend-mode:multiply" fill-rule="evenodd" clip-rule="evenodd" d="M63.9732 10.3022C80.2843 9.8505 92.9308 18.0546 92.0548 27.6215C91.6633 31.8671 89.9337 35.5882 85.2229 38.6049C79.2198 42.4187 72.5733 44.569 65.7776 44.8958C58.9819 45.2225 52.2118 43.7174 45.9709 40.4923C39.9766 37.3148 35.8916 32.8778 35.8916 27.6215C35.8916 24.9876 36.8543 22.4877 38.5518 20.252C40.4772 17.71 43.6862 15.7767 47.2866 14.0923C52.0006 11.8833 57.597 10.4783 63.9732 10.3022ZM63.9732 13.2079C78.5675 12.7447 88.0661 19.6624 87.3344 27.6177C86.6124 35.481 77.0016 42.0274 63.9732 42.0274C58.1586 42.0274 52.7194 40.7181 48.6312 38.5513C43.6444 35.9098 40.6088 31.9896 40.6088 27.6177C40.6088 23.1156 44.0552 18.8126 49.873 16.0945C53.7944 14.2569 58.672 13.3802 63.9732 13.2079Z" fill="url(#paint20_radial_70_16014)"/>
<path fill-rule="evenodd" clip-rule="evenodd" d="M91.0053 24.3293H91.0984C91.0984 24.7122 91.1208 25.0644 91.1241 25.4357C91.1514 25.9461 91.1428 26.4583 91.0984 26.967C90.7133 31.2394 88.9933 35.0065 84.3179 38.0194C78.3749 41.8562 71.7755 44.022 65.0238 44.3511C58.2721 44.6802 51.5466 43.1639 45.3611 39.9182C39.4117 36.7177 35.3556 32.2616 35.3556 26.9632C35.3203 26.0903 35.3203 25.2137 35.3556 24.3408H35.6765H40.4354C40.1856 25.1819 40.0565 26.0671 40.0535 26.9594C40.0535 31.3619 43.0667 35.3051 48.0149 37.9658C52.0742 40.1479 57.4749 41.4648 63.2478 41.4648C76.1799 41.4648 85.7105 34.8725 86.439 26.9594C86.5188 26.0841 86.4754 25.199 86.3106 24.3408L91.0053 24.3293Z" fill="url(#paint21_linear_70_16014)"/>
<path fill-rule="evenodd" clip-rule="evenodd" d="M63.219 6.89514C79.4146 6.4434 91.9713 14.7011 91.0984 24.3293C90.7133 28.6055 88.9933 32.3687 84.3179 35.3854C78.374 39.226 71.7729 41.3951 65.0189 41.7268C58.2649 42.0586 51.5367 40.5443 45.3483 37.2995C39.3989 34.1029 35.3428 29.6429 35.3428 24.3446C35.3428 21.6954 36.3055 19.1802 37.9837 16.9291C39.9091 14.3718 43.0924 12.4232 46.6479 10.7311C51.3298 8.50687 56.8877 7.0904 63.2126 6.90281L63.219 6.89514ZM63.219 9.82381C77.7074 9.35676 87.1354 16.3319 86.4101 24.3293C85.6945 32.2424 76.1415 38.8309 63.219 38.8309C57.4429 38.8309 52.0454 37.514 47.9861 35.3318C43.0378 32.675 40.0246 28.728 40.0246 24.3293C40.0246 19.7966 43.4422 15.4744 49.2183 12.7295C53.114 10.8766 57.9563 9.99608 63.219 9.82381Z" fill="url(#paint22_linear_70_16014)"/>
<path fill-rule="evenodd" clip-rule="evenodd" d="M86.4162 24.3292C87.1414 16.3204 77.7135 9.35668 63.2251 9.82373C57.9624 9.99601 53.1201 10.8765 49.2244 12.7294C43.4483 15.4743 40.0308 19.7965 40.0308 24.3292C40.031 24.7743 40.0622 25.2186 40.1238 25.6576C40.7046 21.6034 44.0002 17.8325 49.2244 15.348C53.1201 13.4989 57.9624 12.6146 63.2251 12.4461C76.3818 12.0173 85.3669 17.7292 86.3649 24.7847C86.3842 24.6354 86.4034 24.4823 86.4162 24.3292Z" fill="url(#paint23_linear_70_16014)"/>
<path style="mix-blend-mode:multiply" fill-rule="evenodd" clip-rule="evenodd" d="M84.3177 37.713L84.1829 37.8011C83.7497 38.0805 83.8203 36.4114 84.1637 36.0362C84.9415 35.168 85.8122 34.4265 86.7533 33.8311C87.164 33.5746 87.0742 35.4888 86.6281 35.952C85.9343 36.6706 85.1559 37.2639 84.3177 37.713ZM83.8171 35.707H83.7818C82.5688 36.4726 81.2852 37.1885 79.931 37.8508H79.8925C78.4801 38.5401 77.0384 39.1407 75.5733 39.6501H75.5572C73.7671 40.2723 71.9448 40.7544 70.102 41.0934H70.0699C67.8101 41.5054 65.5273 41.7114 63.2412 41.7098H63.2124C60.9339 41.7119 58.6586 41.5072 56.4062 41.0972C54.6114 40.769 52.8355 40.3074 51.0889 39.7152H51.06L50.813 39.631C49.3675 39.1286 47.946 38.533 46.5547 37.847H46.5322C46.1439 37.6518 45.7621 37.4642 45.3866 37.2536C44.4689 36.761 43.5981 36.2378 42.7745 35.684H42.7585C41.5938 34.9085 40.4888 34.0117 39.4564 33.0042L39.2864 32.8319C38.2768 31.8304 37.4004 30.6519 36.6871 29.3367L36.578 29.1223C36.5395 29.0496 36.5074 28.9768 36.4721 28.9041C36.4368 28.8313 36.4047 28.7586 36.3726 28.6859C35.7708 27.3958 35.4405 25.9507 35.41 24.4747C35.41 24.5207 35.41 24.5666 35.41 24.6087C35.4769 26.0471 35.78 27.4558 36.3021 28.7548C36.4721 29.1836 36.4497 31.2508 36.1962 30.6306C35.6837 29.4017 35.4147 28.0486 35.41 26.676C35.41 26.2932 35.3843 25.9103 35.3843 25.5275C35.3843 26.0099 35.3843 26.4923 35.41 26.9784C35.4199 28.5314 35.7612 30.0557 36.4015 31.4078L36.424 31.4576C36.4561 31.5303 36.4914 31.603 36.5267 31.6758C36.562 31.7485 36.5973 31.8213 36.6358 31.8902L36.7417 32.0931C37.454 33.3694 38.3189 34.5147 39.3088 35.4926L39.434 35.6189L39.6233 35.7989C40.5518 36.6829 41.5367 37.4791 42.5691 38.1801L42.7392 38.2949L42.935 38.4289C43.7051 38.9419 44.5202 39.4281 45.3738 39.8875L46.3365 40.3928L46.5162 40.4809H46.545L46.7119 40.5613C48.0431 41.2081 49.4012 41.7728 50.7809 42.2534H50.8162L51.0408 42.3338H51.0793L51.1788 42.3682C52.8191 42.9439 54.4863 43.4041 56.1719 43.7464L56.3773 43.7847H56.3965L56.573 43.8153C58.7107 44.1937 60.8684 44.3869 63.0295 44.3934H63.453C65.6143 44.384 67.7722 44.1869 69.9095 43.8039L70.0667 43.7771H70.0924L70.3106 43.7349C72.0008 43.4134 73.6734 42.9724 75.3198 42.4142L75.5508 42.3338H75.5829L75.7112 42.2917C77.136 41.794 78.4966 41.2198 79.7899 40.5957L79.8893 40.546H79.9214L80.1589 40.4273C81.3526 39.8339 82.4886 39.1946 83.57 38.5131L83.7818 38.383H83.8203L83.9583 38.2949L84.3177 38.0614C85.2197 37.487 86.0786 36.8209 86.8849 36.0707L86.9843 35.975L87.132 35.8295L87.2443 35.7185C88.2782 34.695 89.148 33.4562 89.8114 32.0624L89.8596 31.9591L89.9366 31.7906L90.0136 31.6145C90.0393 31.5571 90.0617 31.4997 90.0842 31.4422L90.1323 31.3197C90.6482 29.9712 90.9735 28.5302 91.095 27.055C91.1264 26.7003 91.1403 26.3436 91.1367 25.9869C91.1367 26.2434 91.1175 26.5037 91.095 26.7526C90.99 28.0098 90.7406 29.2439 90.3537 30.4201C90.1259 31.0977 90.1548 29.2065 90.1548 29.1989C90.1778 28.8486 90.2471 28.5049 90.3601 28.1805C90.7432 27.0631 90.9907 25.8861 91.095 24.6853C91.1014 24.5974 91.1014 24.509 91.095 24.4211C90.9773 25.876 90.6619 27.2983 90.1612 28.6323L90.0938 28.8007C90.0489 28.9156 90.0007 29.0304 89.9526 29.1453L89.8756 29.3214C89.186 30.8042 88.2644 32.1154 87.1608 33.1841L87.0068 33.3334C86.1753 34.1225 85.2861 34.8208 84.3498 35.4199L83.8492 35.7414L83.8171 35.707ZM83.3389 38.3332C82.445 39.1004 81.4381 39.6601 80.3707 39.9832C79.9342 40.1287 80.0273 38.6395 80.4445 38.2413C81.2886 37.3922 82.3022 36.8173 83.3871 36.5722C83.8909 36.4765 83.7304 37.981 83.3389 38.3332ZM79.5043 40.4082C78.4433 41.0784 77.3044 41.5558 76.1252 41.8246C75.4257 41.9931 75.5283 40.2933 75.9198 40.0521C77.0653 39.31 78.3169 38.8297 79.6101 38.6356C80.0626 38.5897 79.9696 40.1095 79.5043 40.4082ZM75.1144 42.1768C73.704 42.8799 72.2004 43.2791 70.6732 43.3559C69.9929 43.4019 70.1052 41.5451 70.5609 41.3958C71.9896 40.8717 73.4594 40.5228 74.9475 40.3546C75.6503 40.3048 75.5059 41.9739 75.1144 42.1768ZM69.6592 43.5435C67.6979 44.0607 65.6853 44.245 63.6809 44.091C63.1835 44.0527 63.1995 42.15 63.6809 42.0964C65.4554 41.8859 67.4675 41.7136 69.5597 41.5643C70.224 41.5222 70.1277 43.421 69.6592 43.5435ZM62.7856 44.091C60.7664 44.263 58.7369 44.0798 56.7624 43.5473C56.3645 43.4325 56.2682 41.4724 56.849 41.5069C59.0247 41.637 61.0527 41.8629 62.7952 42.0964C63.2798 42.1615 63.2733 44.0565 62.7952 44.091H62.7856ZM55.8703 43.3827C54.3214 43.1922 52.7959 42.7915 51.3232 42.1883C50.9862 42.0467 50.8226 40.098 51.4612 40.2244C52.9726 40.523 54.4872 40.9326 55.9537 41.3461C56.342 41.4533 56.4511 43.4555 55.8606 43.3827H55.8703ZM50.415 41.8782C49.1541 41.6124 47.938 41.1029 46.8146 40.3699C46.5354 40.1823 46.3429 38.4136 47.0167 38.5744C48.2415 38.8855 49.4362 39.3461 50.5819 39.9488C50.9028 40.1172 51.0633 42.0237 50.415 41.8629V41.8782ZM45.9225 39.9296C44.8638 39.5916 43.8693 39.0146 42.9927 38.2298C42.7103 37.9734 42.6718 36.2812 42.9927 36.4076C44.1006 36.857 45.1638 37.4501 46.1632 38.1762C46.4456 38.3791 46.5996 40.1517 45.9289 39.9296H45.9225ZM42.3606 37.8011C41.368 37.3192 40.4707 36.5955 39.726 35.6763C39.4051 35.2552 39.3473 33.632 39.7035 33.8196C40.7 34.3685 41.6131 35.1111 42.4055 36.0171C42.6141 36.2468 42.7264 37.9886 42.3606 37.8011ZM39.0489 35.0064C38.1302 34.1815 37.3542 33.1518 36.7641 31.9744C36.4978 31.4422 36.4721 29.5204 36.8027 30.0143C37.5118 31.0671 38.3429 32.0663 39.0682 33.1688C39.2768 33.4866 39.4372 35.3548 39.0489 35.0064ZM89.8628 30.6268C89.8409 31.2871 89.6762 31.9294 89.3846 32.4912C88.8833 33.5385 88.2059 34.4508 87.3951 35.171C87.0228 35.5117 87.0742 33.4866 87.4272 33.0693C88.2815 32.1014 89.021 30.9989 89.6253 29.7922C89.882 29.2754 89.8628 30.6115 89.8628 30.6153V30.6268Z" fill="url(#paint24_radial_70_16014)"/>
<g style="mix-blend-mode:multiply">
<path fill-rule="evenodd" clip-rule="evenodd" d="M63.2219 7.6186C78.8848 7.18601 91.0276 15.103 90.1772 24.3292C89.8049 28.4255 88.1427 32.0164 83.6213 34.9259C81.9454 36.0034 80.212 36.9484 78.4324 37.755C68.0126 42.408 56.4926 42.1079 46.253 36.9166L45.9321 36.7482C40.1784 33.6855 36.2538 29.4017 36.2538 24.3292C36.2538 21.7872 37.1684 19.3792 38.821 17.22C40.6822 14.7699 43.7628 12.9017 47.2092 11.2785C51.7371 9.1461 57.1089 7.79088 63.2316 7.6186H63.2219ZM85.5402 34.5239C86.0399 34.1464 86.521 33.7348 86.981 33.2912C87.1319 33.1458 87.2795 32.9965 87.4207 32.8472C87.9684 32.2779 88.4701 31.6486 88.9193 30.9674C89.3026 30.3787 89.6419 29.751 89.9333 29.0916C90.1572 28.5821 90.3491 28.0537 90.5077 27.5105C90.8022 26.4821 90.9992 25.4175 91.0949 24.3368C91.9678 14.7086 79.4111 6.45097 63.2155 6.90271C56.8907 7.08264 51.3424 8.49912 46.6509 10.731C43.0889 12.4231 39.9121 14.3717 37.9867 16.929C36.2924 19.1801 35.3457 21.6953 35.3457 24.3445V24.5091C35.3457 24.5971 35.3457 24.6852 35.3457 24.7732C35.3784 25.3209 35.446 25.8648 35.5479 26.4003C35.5928 26.6185 35.6409 26.8329 35.7019 27.0473C35.8772 27.69 36.1073 28.3096 36.3886 28.8963C36.6499 29.4318 36.9438 29.9436 37.2679 30.4277C37.8113 31.2446 38.4184 31.9983 39.0809 32.6787L39.4018 33.0118C41.2194 34.7469 43.2235 36.1838 45.3609 37.2841C46.208 37.7397 47.0905 38.1723 48.005 38.5743C50.1792 39.5205 52.4119 40.2628 54.6829 40.7947C55.2477 40.9249 55.8221 41.0435 56.4061 41.1507C58.5309 41.5318 60.6754 41.7365 62.824 41.7633H63.2251C65.0237 41.7631 66.8207 41.6353 68.6066 41.3804C70.9656 41.0436 73.2977 40.4776 75.5796 39.6883L75.6438 39.6654C76.2621 39.4459 76.8696 39.2162 77.4665 38.9763C78.2976 38.6394 79.0999 38.2757 79.9117 37.8814C81.2884 37.2114 82.5912 36.4764 83.817 35.7031L83.8652 35.6724C84.4716 35.2896 85.0204 34.9068 85.5402 34.5239Z" fill="#F1D3E2"/>
</g>
<path style="mix-blend-mode:multiply" fill-rule="evenodd" clip-rule="evenodd" d="M42.4732 14.5134C58.7843 14.0617 71.4308 22.2657 70.5548 31.8327C70.1633 36.0783 68.4337 39.7994 63.7229 42.8161C57.7198 46.6299 51.0733 48.7802 44.2776 49.1069C37.4819 49.4337 30.7118 47.9286 24.4709 44.7034C18.4766 41.5259 14.3916 37.0889 14.3916 31.8327C14.3916 29.1988 15.3543 26.6989 17.0518 24.4632C18.9772 21.9212 22.1862 19.9879 25.7866 18.3034C30.5006 16.0945 36.097 14.6895 42.4732 14.5134ZM42.4732 17.4191C57.0675 16.9559 66.566 23.8736 65.8344 31.8288C65.1124 39.6922 55.5016 46.2386 42.4732 46.2386C36.6586 46.2386 31.2194 44.9293 27.1312 42.7625C22.1444 40.121 19.1088 36.2008 19.1088 31.8288C19.1088 27.3268 22.5552 23.0237 28.373 20.3056C32.2944 18.468 37.172 17.5914 42.4732 17.4191Z" fill="url(#paint25_radial_70_16014)"/>
<path fill-rule="evenodd" clip-rule="evenodd" d="M69.5053 28.5405H69.5984C69.5984 28.9234 69.6208 29.2755 69.6241 29.6469C69.6514 30.1573 69.6428 30.6695 69.5984 31.1782C69.2133 35.4506 67.4933 39.2177 62.8179 42.2305C56.8749 46.0674 50.2755 48.2331 43.5238 48.5622C36.7721 48.8913 30.0466 47.3751 23.8611 44.1294C17.9117 40.9289 13.8556 36.4728 13.8556 31.1744C13.8203 30.3015 13.8203 29.4249 13.8556 28.552H14.1765H18.9354C18.6856 29.393 18.5565 30.2783 18.5535 31.1706C18.5535 35.5731 21.5667 39.5163 26.5149 42.177C30.5742 44.3591 35.9749 45.676 41.7478 45.676C54.6799 45.676 64.2105 39.0837 64.939 31.1706C65.0188 30.2953 64.9754 29.4102 64.8106 28.552L69.5053 28.5405Z" fill="url(#paint26_linear_70_16014)"/>
<path fill-rule="evenodd" clip-rule="evenodd" d="M41.719 11.1063C57.9146 10.6546 70.4713 18.9123 69.5984 28.5404C69.2133 32.8167 67.4933 36.5799 62.8179 39.5966C56.874 43.4372 50.2729 45.6063 43.5189 45.938C36.7649 46.2698 30.0367 44.7554 23.8483 41.5107C17.8989 38.3141 13.8428 33.8541 13.8428 28.5558C13.8428 25.9066 14.8055 23.3914 16.4837 21.1403C18.4091 18.583 21.5924 16.6344 25.1479 14.9423C29.8298 12.7181 35.3877 11.3016 41.7126 11.114L41.719 11.1063ZM41.719 14.035C56.2074 13.5679 65.6353 20.5431 64.9101 28.5404C64.1945 36.4536 54.6415 43.0421 41.719 43.0421C35.9429 43.0421 30.5454 41.7251 26.4861 39.543C21.5378 36.8862 18.5246 32.9392 18.5246 28.5404C18.5246 24.0077 21.9422 19.6856 27.7183 16.9407C31.614 15.0878 36.4563 14.2073 41.719 14.035Z" fill="url(#paint27_linear_70_16014)"/>
<path fill-rule="evenodd" clip-rule="evenodd" d="M64.9162 28.5404C65.6415 20.5316 56.2135 13.5679 41.7251 14.0349C36.4624 14.2072 31.6201 15.0877 27.7244 16.9406C21.9483 19.6855 18.5308 24.0077 18.5308 28.5404C18.531 28.9855 18.5622 29.4298 18.6238 29.8688C19.2046 25.8146 22.5002 22.0437 27.7244 19.5592C31.6201 17.7101 36.4624 16.8257 41.7251 16.6573C54.8818 16.2285 63.8669 21.9404 64.8649 28.9959C64.8842 28.8466 64.9034 28.6935 64.9162 28.5404Z" fill="url(#paint28_linear_70_16014)"/>
<path style="mix-blend-mode:multiply" fill-rule="evenodd" clip-rule="evenodd" d="M62.8177 41.9242L62.6829 42.0122C62.2497 42.2917 62.3203 40.6226 62.6637 40.2474C63.4414 39.3791 64.3122 38.6376 65.2533 38.0423C65.664 37.7858 65.5742 39.7 65.1281 40.1632C64.4343 40.8818 63.6559 41.4751 62.8177 41.9242ZM62.3171 39.9182H62.2818C61.0688 40.6838 59.7852 41.3997 58.431 42.062H58.3925C56.9801 42.7513 55.5384 43.3519 54.0733 43.8613C52.2831 44.4835 50.4608 44.9656 48.6181 45.3046H48.5699C46.3101 45.7165 44.0273 45.9226 41.7412 45.9209H41.7124C39.4339 45.9231 37.1586 45.7183 34.9062 45.3084C33.1114 44.9802 31.3355 44.5186 29.5889 43.9264H29.56L29.313 43.8422C27.8675 43.3397 26.446 42.7442 25.0547 42.0582H25.0322C24.6439 41.863 24.2621 41.6753 23.8866 41.4648C22.9689 40.9722 22.0981 40.449 21.2745 39.8952H21.2585C20.0938 39.1196 18.9888 38.2229 17.9564 37.2154L17.7864 37.0431C16.7768 36.0416 15.9004 34.8631 15.1871 33.5479L15.078 33.3335C15.0395 33.2607 15.0074 33.188 14.9721 33.1153C14.9368 33.0425 14.9047 32.9698 14.8726 32.897C14.2708 31.6069 13.9405 30.1619 13.91 28.6859C13.91 28.7318 13.91 28.7778 13.91 28.8199C13.9769 30.2583 14.28 31.667 14.8021 32.966C14.9721 33.3947 14.9497 35.462 14.6962 34.8418C14.1837 33.6128 13.9147 32.2598 13.91 30.8872C13.91 30.5043 13.8843 30.1215 13.8843 29.7387C13.8843 30.2211 13.8843 30.7034 13.91 31.1896C13.9199 32.7426 14.2612 34.2669 14.9015 35.619L14.924 35.6688C14.9561 35.7415 14.9914 35.8142 15.0267 35.8869C15.062 35.9597 15.0973 36.0324 15.1358 36.1014L15.2417 36.3042C15.954 37.5806 16.8189 38.7258 17.8088 39.7038L17.934 39.8301L18.1233 40.01C19.0518 40.8941 20.0367 41.6903 21.0691 42.3913L21.2392 42.5061L21.435 42.6401C22.2051 43.1531 23.0202 43.6393 23.8738 44.0987L24.8365 44.604L25.0162 44.6921H25.045L25.2119 44.7725C26.5431 45.4192 27.9012 45.984 29.2809 46.4646H29.3162L29.5408 46.545H29.5793L29.6788 46.5794C31.3191 47.1551 32.9863 47.6153 34.6719 47.9576L34.8773 47.9959H34.8965L35.073 48.0265C37.2107 48.4049 39.3684 48.5981 41.5295 48.6046H41.953C44.1143 48.5952 46.2722 48.3981 48.4095 48.015L48.5667 47.9882H48.5924L48.8106 47.9461C50.5008 47.6246 52.1734 47.1836 53.8198 46.6254L54.0508 46.545H54.0829L54.2113 46.5029C55.636 46.0052 56.9966 45.4309 58.2898 44.8069L58.3893 44.7571H58.4214L58.6589 44.6385C59.8526 44.0451 60.9886 43.4058 62.07 42.7243L62.2818 42.5941H62.3203L62.4583 42.5061L62.8177 42.2726C63.7197 41.6981 64.5786 41.0321 65.3849 40.2819L65.4843 40.1862L65.6319 40.0407L65.7443 39.9297C66.7782 38.9061 67.648 37.6674 68.3114 36.2736L68.3596 36.1703L68.4366 36.0018L68.5136 35.8257C68.5393 35.7683 68.5617 35.7108 68.5842 35.6534L68.6323 35.5309C69.1482 34.1824 69.4735 32.7414 69.595 31.2662C69.6264 30.9114 69.6403 30.5548 69.6367 30.1981C69.6367 30.4546 69.6175 30.7149 69.595 30.9637C69.49 32.221 69.2406 33.4551 68.8537 34.6313C68.6259 35.3089 68.6548 33.4177 68.6548 33.41C68.6778 33.0598 68.7471 32.7161 68.8601 32.3917C69.2432 31.2743 69.4907 30.0973 69.595 28.8965C69.6014 28.8086 69.6014 28.7202 69.595 28.6323C69.4773 30.0872 69.1619 31.5095 68.6612 32.8435L68.5938 33.0119C68.5489 33.1268 68.5008 33.2416 68.4526 33.3564L68.3756 33.5326C67.686 35.0154 66.7644 36.3266 65.6608 37.3953L65.5068 37.5446C64.6753 38.3337 63.7861 39.0319 62.8498 39.631L62.3492 39.9526L62.3171 39.9182ZM61.8389 42.5444C60.945 43.3116 59.9381 43.8713 58.8707 44.1944C58.4342 44.3399 58.5273 42.8506 58.9445 42.4525C59.7887 41.6034 60.8022 41.0285 61.8871 40.7834C62.3909 40.6877 62.2304 42.1922 61.8389 42.5444ZM57.9882 44.6193C56.9273 45.2896 55.7884 45.767 54.6092 46.0358C53.9096 46.2042 54.0123 44.5045 54.4038 44.2633C55.5493 43.5212 56.8008 43.0408 58.0941 42.8468C58.5466 42.8009 58.4535 44.3207 57.9882 44.6193ZM53.5983 46.388C52.1934 47.0915 50.6953 47.4933 49.1732 47.5748C48.4929 47.6207 48.6052 45.764 49.0609 45.6147C50.4896 45.0905 51.9594 44.7416 53.4475 44.5734C54.1503 44.5236 54.0059 46.1928 53.6144 46.3957L53.5983 46.388ZM48.1431 47.7547C46.1819 48.2719 44.1693 48.4562 42.1648 48.3022C41.6674 48.2639 41.6835 46.3612 42.1648 46.3076C43.9394 46.0971 45.9514 45.9248 48.0436 45.7755C48.7079 45.7334 48.6116 47.6322 48.1431 47.7547ZM41.2695 48.3022C39.2503 48.4742 37.2209 48.291 35.2463 47.7585C34.8484 47.6437 34.7521 45.6836 35.333 45.7181C37.5086 45.8482 39.5367 46.0741 41.2792 46.3076C41.7637 46.3727 41.7573 48.2677 41.2792 48.3022H41.2695ZM34.3542 47.5939C32.8054 47.4034 31.2798 47.0027 29.8071 46.3995C29.4702 46.2578 29.3065 44.3092 29.9451 44.4356C31.4565 44.7342 32.9712 45.1438 34.4377 45.5573C34.826 45.6644 34.935 47.6667 34.3446 47.5939H34.3542ZM28.899 46.0894C27.6381 45.8236 26.4219 45.3141 25.2985 44.581C25.0194 44.3935 24.8268 42.6248 25.5007 42.7856C26.7254 43.0967 27.9201 43.5573 29.0659 44.1599C29.3868 44.3284 29.5472 46.2349 28.899 46.0741V46.0894ZM24.4065 44.1408C23.3478 43.8028 22.3532 43.2258 21.4767 42.441C21.1943 42.1845 21.1558 40.4924 21.4767 40.6188C22.5846 41.0681 23.6477 41.6612 24.6471 42.3874C24.9295 42.5903 25.0835 44.3628 24.4129 44.1408H24.4065ZM20.8445 42.0122C19.852 41.5304 18.9547 40.8067 18.21 39.8875C17.8891 39.4664 17.8313 37.8432 18.1875 38.0308C19.1839 38.5797 20.097 39.3223 20.8894 40.2283C21.098 40.458 21.2103 42.1998 20.8445 42.0122ZM17.5329 39.2176C16.6141 38.3927 15.8382 37.363 15.2481 36.1856C14.9817 35.6534 14.9561 33.7316 15.2866 34.2255C15.9958 35.2783 16.8269 36.2774 17.5521 37.38C17.7607 37.6977 17.9212 39.566 17.5329 39.2176ZM68.3467 34.838C68.3249 35.4983 68.1602 36.1406 67.8686 36.7024C67.3673 37.7497 66.6899 38.662 65.879 39.3822C65.5068 39.7229 65.5581 37.6977 65.9111 37.2805C66.7654 36.3126 67.505 35.21 68.1093 34.0034C68.366 33.4866 68.3467 34.8227 68.3467 34.8265V34.838Z" fill="url(#paint29_radial_70_16014)"/>
<g style="mix-blend-mode:multiply">
<path fill-rule="evenodd" clip-rule="evenodd" d="M41.7219 11.8298C57.3848 11.3972 69.5275 19.3141 68.6772 28.5404C68.3049 32.6366 66.6427 36.2276 62.1213 39.1371C60.4454 40.2145 58.712 41.1596 56.9324 41.9662C46.5125 46.6192 34.9926 46.319 24.753 41.1278L24.4321 40.9594C18.6784 37.8967 14.7538 33.6129 14.7538 28.5404C14.7538 25.9984 15.6684 23.5903 17.321 21.4312C19.1822 18.9811 22.2628 17.1128 25.7092 15.4896C30.2371 13.3573 35.6089 12.0021 41.7316 11.8298H41.7219ZM64.0402 38.7351C64.54 38.3576 65.021 37.946 65.4811 37.5024C65.6319 37.3569 65.7795 37.2076 65.9207 37.0583C66.4684 36.4891 66.9701 35.8597 67.4193 35.1786C67.8026 34.5899 68.1419 33.9622 68.4333 33.3027C68.6572 32.7933 68.8491 32.2649 69.0077 31.7217C69.3022 30.6933 69.4992 29.6287 69.5949 28.548C70.4678 18.9198 57.9111 10.6622 41.7155 11.1139C35.3907 11.2938 29.8424 12.7103 25.1509 14.9422C21.5889 16.6343 18.4121 18.5829 16.4867 21.1402C14.7924 23.3913 13.8457 25.9065 13.8457 28.5557V28.7203C13.8457 28.8083 13.8457 28.8964 13.8457 28.9844C13.8784 29.5321 13.946 30.076 14.0479 30.6115C14.0928 30.8297 14.1409 31.0441 14.2019 31.2584C14.3772 31.9012 14.6073 32.5208 14.8886 33.1075C15.1499 33.6429 15.4438 34.1548 15.7679 34.6388C16.3113 35.4558 16.9184 36.2095 17.5809 36.8899L17.9018 37.2229C19.7194 38.9581 21.7235 40.395 23.8609 41.4953C24.708 41.9509 25.5905 42.3835 26.505 42.7855C28.6792 43.7316 30.9119 44.474 33.1829 45.0059C33.7477 45.136 34.3221 45.2547 34.9061 45.3619C37.0309 45.743 39.1754 45.9477 41.324 45.9745H41.7251C43.5237 45.9743 45.3207 45.8464 47.1066 45.5916C49.4656 45.2547 51.7977 44.6888 54.0796 43.8995L54.1438 43.8765C54.7621 43.6571 55.3696 43.4273 55.9665 43.1874C56.7976 42.8505 57.5998 42.4869 58.4117 42.0925C59.7884 41.4226 61.0912 40.6876 62.317 39.9142L62.3652 39.8836C62.9716 39.5008 63.5204 39.1179 64.0402 38.7351Z" fill="#F1D3E2"/>
</g>
<path style="mix-blend-mode:multiply" fill-rule="evenodd" clip-rule="evenodd" d="M66.8609 32.1238C83.172 31.672 95.8185 39.8761 94.9425 49.443C94.551 53.6886 92.8213 57.4097 88.1106 60.4264C82.1075 64.2403 75.461 66.3905 68.6653 66.7173C61.8695 67.0441 55.0995 65.5389 48.8586 62.3138C42.8643 59.1363 38.7793 54.6993 38.7793 49.443C38.7793 46.8091 39.742 44.3093 41.4395 42.0735C43.3649 39.5315 46.5739 37.5982 50.1743 35.9138C54.8883 33.7048 60.4847 32.2999 66.8609 32.1238ZM66.8609 35.0294C81.4552 34.5662 90.9538 41.484 90.2221 49.4392C89.5001 57.3025 79.8893 63.8489 66.8609 63.8489C61.0463 63.8489 55.6071 62.5397 51.5189 60.3728C46.5321 57.7313 43.4965 53.8111 43.4965 49.4392C43.4965 44.9371 46.9429 40.6341 52.7607 37.916C56.6821 36.0784 61.5597 35.2017 66.8609 35.0294Z" fill="url(#paint30_radial_70_16014)"/>
<path fill-rule="evenodd" clip-rule="evenodd" d="M93.8935 46.1506H93.9866C93.9866 46.5335 94.009 46.8857 94.0122 47.257C94.0396 47.7674 94.031 48.2796 93.9866 48.7883C93.6015 53.0607 91.8815 56.8278 87.206 59.8406C81.2631 63.6775 74.6637 65.8433 67.912 66.1723C61.1602 66.5014 54.4348 64.9852 48.2493 61.7395C42.2999 58.539 38.2438 54.0829 38.2438 48.7845C38.2085 47.9116 38.2085 47.035 38.2438 46.1621H38.5647H43.3235C43.0738 47.0031 42.9447 47.8884 42.9417 48.7807C42.9417 53.1832 45.9549 57.1264 50.9031 59.7871C54.9624 61.9692 60.3631 63.2861 66.136 63.2861C79.0681 63.2861 88.5987 56.6938 89.3272 48.7807C89.407 47.9054 89.3636 47.0203 89.1988 46.1621L93.8935 46.1506Z" fill="url(#paint31_linear_70_16014)"/>
<path fill-rule="evenodd" clip-rule="evenodd" d="M66.1072 28.7164C82.3028 28.2647 94.8594 36.5224 93.9866 46.1506C93.6015 50.4268 91.8815 54.19 87.2061 57.2067C81.2622 61.0473 74.6611 63.2164 67.9071 63.5481C61.1531 63.8799 54.4249 62.3656 48.2365 59.1208C42.2871 55.9242 38.231 51.4642 38.231 46.1659C38.231 43.5167 39.1936 41.0015 40.8719 38.7504C42.7973 36.1931 45.9806 34.2445 49.5361 32.5524C54.218 30.3282 59.7759 28.9117 66.1007 28.7241L66.1072 28.7164ZM66.1072 31.6451C80.5956 31.178 90.0235 38.1532 89.2983 46.1506C88.5827 54.0637 79.0296 60.6522 66.1072 60.6522C60.331 60.6522 54.9336 59.3352 50.8742 57.1531C45.926 54.4963 42.9128 50.5493 42.9128 46.1506C42.9128 41.6178 46.3304 37.2957 52.1065 34.5508C56.0022 32.6979 60.8445 31.8174 66.1072 31.6451Z" fill="url(#paint32_linear_70_16014)"/>
<path fill-rule="evenodd" clip-rule="evenodd" d="M89.3044 46.1507C90.0296 38.1419 80.6017 31.1782 66.1133 31.6453C60.8506 31.8175 56.0083 32.698 52.1126 34.5509C46.3365 37.2958 42.9189 41.618 42.9189 46.1507C42.9192 46.5958 42.9504 47.0401 43.012 47.4791C43.5928 43.425 46.8884 39.6541 52.1126 37.1695C56.0083 35.3204 60.8506 34.4361 66.1133 34.2676C79.27 33.8389 88.2551 39.5507 89.2531 46.6063C89.2723 46.457 89.2916 46.3039 89.3044 46.1507Z" fill="url(#paint33_linear_70_16014)"/>
<path style="mix-blend-mode:multiply" fill-rule="evenodd" clip-rule="evenodd" d="M87.2059 59.5343L87.0711 59.6223C86.6379 59.9018 86.7085 58.2327 87.0519 57.8575C87.8296 56.9892 88.7004 56.2478 89.6415 55.6524C90.0522 55.3959 89.9624 57.3101 89.5163 57.7733C88.8225 58.4919 88.044 59.0852 87.2059 59.5343ZM86.7053 57.5283H86.67C85.457 58.2939 84.1734 59.0098 82.8192 59.6721H82.7807C81.3683 60.3614 79.9266 60.962 78.4615 61.4714H78.4454C76.6553 62.0936 74.833 62.5757 72.9902 62.9147H72.9581C70.6983 63.3267 68.4155 63.5327 66.1294 63.5311H66.1006C63.8221 63.5332 61.5468 63.3285 59.2943 62.9185C57.4996 62.5903 55.7237 62.1287 53.9771 61.5365H53.9482L53.7011 61.4523C52.2557 60.9499 50.8342 60.3543 49.4428 59.6683H49.4204C49.0321 59.4731 48.6502 59.2855 48.2748 59.0749C47.357 58.5823 46.4863 58.0591 45.6627 57.5053H45.6467C44.482 56.7298 43.377 55.833 42.3446 54.8255L42.1746 54.6532C41.1649 53.6517 40.2885 52.4732 39.5753 51.158L39.4662 50.9436C39.4277 50.8708 39.3956 50.7981 39.3603 50.7254C39.325 50.6526 39.2929 50.5799 39.2608 50.5071C38.659 49.217 38.3287 47.772 38.2981 46.296C38.2981 46.3419 38.2981 46.3879 38.2981 46.43C38.3651 47.8684 38.6682 49.2771 39.1902 50.5761C39.3603 51.0048 39.3378 53.0721 39.0843 52.4519C38.5719 51.2229 38.3029 49.8699 38.2981 48.4973C38.2981 48.1145 38.2725 47.7316 38.2725 47.3488C38.2725 47.8312 38.2725 48.3135 38.2981 48.7997C38.3081 50.3527 38.6493 51.877 39.2897 53.2291L39.3122 53.2789C39.3443 53.3516 39.3796 53.4243 39.4148 53.4971C39.4501 53.5698 39.4855 53.6426 39.524 53.7115L39.6299 53.9143C40.3422 55.1907 41.2071 56.336 42.197 57.3139L42.3222 57.4402L42.5115 57.6201C43.44 58.5042 44.4249 59.3004 45.4573 60.0014L45.6274 60.1162L45.8231 60.2502C46.5933 60.7632 47.4084 61.2494 48.2619 61.7088L49.2246 62.2141L49.4043 62.3022H49.4332L49.6001 62.3826C50.9312 63.0293 52.2893 63.5941 53.6691 64.0747H53.7043L53.929 64.1551H53.9675L54.067 64.1895C55.7073 64.7652 57.3745 65.2254 59.0601 65.5677L59.2655 65.606H59.2847L59.4612 65.6366C61.5988 66.015 63.7566 66.2082 65.9176 66.2147H66.3412C68.5025 66.2053 70.6603 66.0082 72.7976 65.6251L72.9549 65.5983H72.9805L73.1988 65.5562C74.8889 65.2347 76.5616 64.7937 78.2079 64.2355L78.439 64.1551H78.4711L78.5994 64.113C80.0242 63.6153 81.3848 63.041 82.678 62.417L82.7775 62.3673H82.8096L83.047 62.2486C84.2408 61.6552 85.3767 61.0159 86.4582 60.3344L86.67 60.2043H86.7085L86.8465 60.1162L87.2059 59.8827C88.1079 59.3082 88.9668 58.6422 89.773 57.892L89.8725 57.7963L90.0201 57.6508L90.1324 57.5398C91.1664 56.5162 92.0362 55.2775 92.6996 53.8837L92.7478 53.7804L92.8248 53.6119L92.9018 53.4358C92.9274 53.3784 92.9499 53.321 92.9724 53.2635L93.0205 53.141C93.5364 51.7925 93.8617 50.3515 93.9832 48.8763C94.0145 48.5216 94.0285 48.1649 94.0249 47.8082C94.0249 48.0647 94.0057 48.325 93.9832 48.5739C93.8782 49.8311 93.6287 51.0652 93.2419 52.2414C93.0141 52.919 93.043 51.0278 93.043 51.0202C93.066 50.6699 93.1353 50.3262 93.2483 50.0018C93.6314 48.8844 93.8788 47.7074 93.9832 46.5066C93.9896 46.4187 93.9896 46.3303 93.9832 46.2424C93.8655 47.6973 93.5501 49.1196 93.0494 50.4536L92.982 50.622C92.9371 50.7369 92.8889 50.8517 92.8408 50.9665L92.7638 51.1427C92.0742 52.6255 91.1526 53.9367 90.049 55.0054L89.895 55.1547C89.0635 55.9438 88.1742 56.6421 87.238 57.2411L86.7373 57.5627L86.7053 57.5283ZM86.2271 60.1545C85.3332 60.9217 84.3263 61.4814 83.2588 61.8045C82.8224 61.95 82.9155 60.4608 83.3326 60.0626C84.1768 59.2135 85.1904 58.6386 86.2753 58.3935C86.7791 58.2978 86.6186 59.8023 86.2271 60.1545ZM82.3924 62.2294C81.3315 62.8997 80.1926 63.3771 79.0134 63.6459C78.3138 63.8143 78.4165 62.1146 78.808 61.8734C79.9535 61.1313 81.205 60.651 82.4983 60.4569C82.9508 60.411 82.8577 61.9308 82.3924 62.2294ZM78.0026 63.9981C76.5922 64.7012 75.0886 65.1004 73.5614 65.1772C72.8811 65.2232 72.9934 63.3664 73.4491 63.2171C74.8778 62.693 76.3476 62.3441 77.8357 62.1758C78.5385 62.1261 78.3941 63.7952 78.0026 63.9981ZM72.5473 65.3648C70.5861 65.882 68.5735 66.0663 66.5691 65.9123C66.0717 65.874 66.0877 63.9713 66.5691 63.9177C68.3436 63.7072 70.3556 63.5349 72.4479 63.3856C73.1121 63.3435 73.0158 65.2423 72.5473 65.3648ZM65.6738 65.9123C63.6545 66.0843 61.6251 65.9011 59.6506 65.3686C59.2526 65.2538 59.1564 63.2937 59.7372 63.3282C61.9129 63.4583 63.9409 63.6842 65.6834 63.9177C66.1679 63.9828 66.1615 65.8778 65.6834 65.9123H65.6738ZM58.7585 65.204C57.2096 65.0135 55.684 64.6128 54.2114 64.0096C53.8744 63.8679 53.7108 61.9193 54.3494 62.0457C55.8608 62.3443 57.3754 62.7539 58.8419 63.1674C59.2302 63.2746 59.3393 65.2768 58.7488 65.204H58.7585ZM53.3032 63.6995C52.0423 63.4337 50.8262 62.9242 49.7028 62.1911C49.4236 62.0036 49.2311 60.2349 49.9049 60.3957C51.1297 60.7068 52.3243 61.1674 53.4701 61.77C53.791 61.9385 53.9514 63.845 53.3032 63.6842V63.6995ZM48.8107 61.7509C47.752 61.4129 46.7575 60.8359 45.8809 60.0511C45.5985 59.7946 45.56 58.1025 45.8809 58.2289C46.9888 58.6782 48.052 59.2714 49.0514 59.9975C49.3337 60.2004 49.4878 61.9729 48.8171 61.7509H48.8107ZM45.2488 59.6223C44.2562 59.1405 43.3589 58.4168 42.6142 57.4976C42.2933 57.0765 42.2355 55.4533 42.5917 55.6409C43.5882 56.1898 44.5012 56.9324 45.2937 57.8384C45.5022 58.0681 45.6146 59.8099 45.2488 59.6223ZM41.9371 56.8277C41.0183 56.0028 40.2424 54.9731 39.6523 53.7957C39.386 53.2635 39.3603 51.3417 39.6908 51.8356C40.4 52.8884 41.2311 53.8876 41.9564 54.9901C42.1649 55.3079 42.3254 57.1761 41.9371 56.8277ZM92.751 52.4481C92.7291 53.1084 92.5644 53.7507 92.2728 54.3125C91.7715 55.3598 91.0941 56.2721 90.2833 56.9923C89.911 57.333 89.9624 55.3078 90.3153 54.8906C91.1697 53.9227 91.9092 52.8202 92.5135 51.6135C92.7702 51.0967 92.751 52.4328 92.751 52.4366V52.4481Z" fill="url(#paint34_radial_70_16014)"/>
<g style="mix-blend-mode:multiply">
<path fill-rule="evenodd" clip-rule="evenodd" d="M66.1101 29.4401C81.773 29.0075 93.9157 36.9245 93.0654 46.1507C92.6931 50.247 91.0309 53.8379 86.5094 56.7475C84.8336 57.8249 83.1002 58.7699 81.3206 59.5766C70.9007 64.2295 59.3808 63.9294 49.1412 58.7382L48.8203 58.5697C43.0666 55.5071 39.142 51.2232 39.142 46.1507C39.142 43.6087 40.0566 41.2007 41.7092 39.0415C43.5704 36.5914 46.651 34.7232 50.0974 33.1C54.6253 30.9676 59.997 29.6124 66.1197 29.4401H66.1101ZM88.4284 56.3455C88.9281 55.9679 89.4092 55.5563 89.8692 55.1128C90.02 54.9673 90.1677 54.818 90.3088 54.6687C90.8566 54.0994 91.3583 53.4701 91.8074 52.789C92.1908 52.2002 92.5301 51.5725 92.8215 50.9131C93.0453 50.4037 93.2373 49.8752 93.3959 49.332C93.6904 48.3036 93.8874 47.2391 93.9831 46.1583C94.856 36.5302 82.2993 28.2725 66.1037 28.7242C59.7788 28.9042 54.2306 30.3207 49.5391 32.5526C45.9771 34.2447 42.8002 36.1933 40.8749 38.7506C39.1805 41.0016 38.2339 43.5168 38.2339 46.166V46.3306C38.2339 46.4187 38.2339 46.5067 38.2339 46.5948C38.2666 47.1425 38.3342 47.6864 38.4361 48.2218C38.481 48.44 38.5291 48.6544 38.5901 48.8688C38.7654 49.5116 38.9955 50.1312 39.2768 50.7179C39.5381 51.2533 39.832 51.7651 40.1561 52.2492C40.6995 53.0661 41.3066 53.8198 41.9691 54.5002L42.29 54.8333C44.1076 56.5684 46.1117 58.0053 48.2491 59.1057C49.0962 59.5612 49.9787 59.9938 50.8932 60.3958C53.0674 61.342 55.3001 62.0844 57.5711 62.6162C58.1358 62.7464 58.7102 62.8651 59.2943 62.9723C61.4191 63.3534 63.5636 63.558 65.7122 63.5848H66.1133C67.9119 63.5846 69.7089 63.4568 71.4947 63.202C73.8538 62.8651 76.1859 62.2992 78.4678 61.5099L78.532 61.4869C79.1502 61.2674 79.7578 61.0377 80.3547 60.7978C81.1858 60.4609 81.988 60.0972 82.7999 59.7029C84.1766 59.0329 85.4794 58.2979 86.7052 57.5246L86.7533 57.494C87.3598 57.1111 87.9086 56.7283 88.4284 56.3455Z" fill="#F1D3E2"/>
</g>
</g>
<defs>
<radialGradient id="paint0_radial_70_16014" cx="0" cy="0" r="1" gradientUnits="userSpaceOnUse" gradientTransform="translate(51.3071 17.109) scale(47.2102 56.322)">
<stop offset="0.73" stop-color="#B074AD"/>
<stop offset="0.77" stop-color="#B278AF"/>
<stop offset="0.82" stop-color="#B985B7"/>
<stop offset="0.86" stop-color="#C599C3"/>
<stop offset="0.91" stop-color="#D6B6D4"/>
<stop offset="0.95" stop-color="#EBDBEA"/>
<stop offset="0.99" stop-color="white"/>
</radialGradient>
<linearGradient id="paint1_linear_70_16014" x1="31.2899" y1="50.9589" x2="87.1129" y2="50.9589" gradientUnits="userSpaceOnUse">
<stop stop-color="#A84080"/>
<stop offset="0.2" stop-color="#CC6699"/>
<stop offset="1" stop-color="#AB5594"/>
</linearGradient>
<linearGradient id="paint2_linear_70_16014" x1="55.2607" y1="23.284" x2="65.981" y2="55.9821" gradientUnits="userSpaceOnUse">
<stop offset="0.37" stop-color="#A16262"/>
<stop offset="0.94" stop-color="#F9EADE"/>
</linearGradient>
<linearGradient id="paint3_linear_70_16014" x1="36.0039" y1="34.3327" x2="82.4311" y2="34.3327" gradientUnits="userSpaceOnUse">
<stop stop-color="#D4A3BA"/>
<stop offset="0.8" stop-color="#EABED4"/>
<stop offset="1" stop-color="#D7A6BD"/>
</linearGradient>
<radialGradient id="paint4_radial_70_16014" cx="0" cy="0" r="1" gradientUnits="userSpaceOnUse" gradientTransform="translate(50.6655 59.1362) scale(39.1942 46.7589)">
<stop stop-color="#EADCE3"/>
<stop offset="1" stop-color="#B14B7E"/>
</radialGradient>
<radialGradient id="paint5_radial_70_16014" cx="0" cy="0" r="1" gradientUnits="userSpaceOnUse" gradientTransform="translate(28.1644 -14.888) scale(56.4616 67.3591)">
<stop offset="0.73" stop-color="#B074AD"/>
<stop offset="0.77" stop-color="#B278AF"/>
<stop offset="0.82" stop-color="#B985B7"/>
<stop offset="0.86" stop-color="#C599C3"/>
<stop offset="0.91" stop-color="#D6B6D4"/>
<stop offset="0.95" stop-color="#EBDBEA"/>
<stop offset="0.99" stop-color="white"/>
</radialGradient>
<linearGradient id="paint6_linear_70_16014" x1="14.5806" y1="27.5297" x2="70.3843" y2="27.5297" gradientUnits="userSpaceOnUse">
<stop stop-color="#A84080"/>
<stop offset="0.2" stop-color="#CC6699"/>
<stop offset="1" stop-color="#AB5594"/>
</linearGradient>
<linearGradient id="paint7_linear_70_16014" x1="14.5679" y1="18.3035" x2="70.2689" y2="18.3035" gradientUnits="userSpaceOnUse">
<stop stop-color="#F9EADE"/>
<stop offset="1" stop-color="#E3A8A8"/>
</linearGradient>
<linearGradient id="paint8_linear_70_16014" x1="19.2528" y1="12.4155" x2="65.5934" y2="12.4155" gradientUnits="userSpaceOnUse">
<stop stop-color="#D4A3BA"/>
<stop offset="0.8" stop-color="#EABED4"/>
<stop offset="1" stop-color="#D7A6BD"/>
</linearGradient>
<radialGradient id="paint9_radial_70_16014" cx="0" cy="0" r="1" gradientUnits="userSpaceOnUse" gradientTransform="translate(32.9586 24.2681) scale(54.4688 64.9817)">
<stop stop-color="#EADCE3"/>
<stop offset="1" stop-color="#B14B7E"/>
</radialGradient>
<radialGradient id="paint10_radial_70_16014" cx="0" cy="0" r="1" gradientUnits="userSpaceOnUse" gradientTransform="translate(20.9987 10.842) scale(47.2102 56.322)">
<stop offset="0.73" stop-color="#B074AD"/>
<stop offset="0.77" stop-color="#B278AF"/>
<stop offset="0.82" stop-color="#B985B7"/>
<stop offset="0.86" stop-color="#C599C3"/>
<stop offset="0.91" stop-color="#D6B6D4"/>
<stop offset="0.95" stop-color="#EBDBEA"/>
<stop offset="0.99" stop-color="white"/>
</radialGradient>
<linearGradient id="paint11_linear_70_16014" x1="0.98113" y1="44.6921" x2="56.8042" y2="44.6921" gradientUnits="userSpaceOnUse">
<stop stop-color="#A84080"/>
<stop offset="0.2" stop-color="#CC6699"/>
<stop offset="1" stop-color="#AB5594"/>
</linearGradient>
<linearGradient id="paint12_linear_70_16014" x1="24.9521" y1="17.0172" x2="35.6682" y2="49.716" gradientUnits="userSpaceOnUse">
<stop offset="0.37" stop-color="#A16262"/>
<stop offset="0.94" stop-color="#F9EADE"/>
</linearGradient>
<linearGradient id="paint13_linear_70_16014" x1="5.69531" y1="28.0656" x2="52.1193" y2="28.0656" gradientUnits="userSpaceOnUse">
<stop stop-color="#D4A3BA"/>
<stop offset="0.8" stop-color="#EABED4"/>
<stop offset="1" stop-color="#D7A6BD"/>
</linearGradient>
<radialGradient id="paint14_radial_70_16014" cx="0" cy="0" r="1" gradientUnits="userSpaceOnUse" gradientTransform="translate(20.3566 52.8693) scale(39.1942 46.7589)">
<stop stop-color="#EADCE3"/>
<stop offset="1" stop-color="#B14B7E"/>
</radialGradient>
<radialGradient id="paint15_radial_70_16014" cx="0" cy="0" r="1" gradientUnits="userSpaceOnUse" gradientTransform="translate(42.4987 -5.23683) scale(47.2102 56.322)">
<stop offset="0.73" stop-color="#B074AD"/>
<stop offset="0.77" stop-color="#B278AF"/>
<stop offset="0.82" stop-color="#B985B7"/>
<stop offset="0.86" stop-color="#C599C3"/>
<stop offset="0.91" stop-color="#D6B6D4"/>
<stop offset="0.95" stop-color="#EBDBEA"/>
<stop offset="0.99" stop-color="white"/>
</radialGradient>
<linearGradient id="paint16_linear_70_16014" x1="22.4811" y1="28.6132" x2="78.3042" y2="28.6132" gradientUnits="userSpaceOnUse">
<stop stop-color="#A84080"/>
<stop offset="0.2" stop-color="#CC6699"/>
<stop offset="1" stop-color="#AB5594"/>
</linearGradient>
<linearGradient id="paint17_linear_70_16014" x1="46.4521" y1="0.938328" x2="57.1682" y2="33.6372" gradientUnits="userSpaceOnUse">
<stop offset="0.37" stop-color="#A16262"/>
<stop offset="0.94" stop-color="#F9EADE"/>
</linearGradient>
<linearGradient id="paint18_linear_70_16014" x1="27.1953" y1="11.9868" x2="73.6193" y2="11.9868" gradientUnits="userSpaceOnUse">
<stop stop-color="#D4A3BA"/>
<stop offset="0.8" stop-color="#EABED4"/>
<stop offset="1" stop-color="#D7A6BD"/>
</linearGradient>
<radialGradient id="paint19_radial_70_16014" cx="0" cy="0" r="1" gradientUnits="userSpaceOnUse" gradientTransform="translate(41.8566 36.7904) scale(39.1942 46.7589)">
<stop stop-color="#EADCE3"/>
<stop offset="1" stop-color="#B14B7E"/>
</radialGradient>
<radialGradient id="paint20_radial_70_16014" cx="0" cy="0" r="1" gradientUnits="userSpaceOnUse" gradientTransform="translate(55.3347 0.505603) scale(47.2102 56.322)">
<stop offset="0.73" stop-color="#B074AD"/>
<stop offset="0.77" stop-color="#B278AF"/>
<stop offset="0.82" stop-color="#B985B7"/>
<stop offset="0.86" stop-color="#C599C3"/>
<stop offset="0.91" stop-color="#D6B6D4"/>
<stop offset="0.95" stop-color="#EBDBEA"/>
<stop offset="0.99" stop-color="white"/>
</radialGradient>
<linearGradient id="paint21_linear_70_16014" x1="35.3171" y1="34.3557" x2="91.1401" y2="34.3557" gradientUnits="userSpaceOnUse">
<stop stop-color="#A84080"/>
<stop offset="0.2" stop-color="#CC6699"/>
<stop offset="1" stop-color="#AB5594"/>
</linearGradient>
<linearGradient id="paint22_linear_70_16014" x1="59.288" y1="6.68076" x2="70.0041" y2="39.3796" gradientUnits="userSpaceOnUse">
<stop offset="0.37" stop-color="#A16262"/>
<stop offset="0.94" stop-color="#F9EADE"/>
</linearGradient>
<linearGradient id="paint23_linear_70_16014" x1="40.0308" y1="17.7292" x2="86.4547" y2="17.7292" gradientUnits="userSpaceOnUse">
<stop stop-color="#D4A3BA"/>
<stop offset="0.8" stop-color="#EABED4"/>
<stop offset="1" stop-color="#D7A6BD"/>
</linearGradient>
<radialGradient id="paint24_radial_70_16014" cx="0" cy="0" r="1" gradientUnits="userSpaceOnUse" gradientTransform="translate(54.6926 42.5329) scale(39.1942 46.7589)">
<stop stop-color="#EADCE3"/>
<stop offset="1" stop-color="#B14B7E"/>
</radialGradient>
<radialGradient id="paint25_radial_70_16014" cx="0" cy="0" r="1" gradientUnits="userSpaceOnUse" gradientTransform="translate(33.8347 4.71678) scale(47.2102 56.322)">
<stop offset="0.73" stop-color="#B074AD"/>
<stop offset="0.77" stop-color="#B278AF"/>
<stop offset="0.82" stop-color="#B985B7"/>
<stop offset="0.86" stop-color="#C599C3"/>
<stop offset="0.91" stop-color="#D6B6D4"/>
<stop offset="0.95" stop-color="#EBDBEA"/>
<stop offset="0.99" stop-color="white"/>
</radialGradient>
<linearGradient id="paint26_linear_70_16014" x1="13.8171" y1="38.5669" x2="69.6401" y2="38.5669" gradientUnits="userSpaceOnUse">
<stop stop-color="#A84080"/>
<stop offset="0.2" stop-color="#CC6699"/>
<stop offset="1" stop-color="#AB5594"/>
</linearGradient>
<linearGradient id="paint27_linear_70_16014" x1="37.788" y1="10.8919" x2="48.5041" y2="43.5908" gradientUnits="userSpaceOnUse">
<stop offset="0.37" stop-color="#A16262"/>
<stop offset="0.94" stop-color="#F9EADE"/>
</linearGradient>
<linearGradient id="paint28_linear_70_16014" x1="18.5308" y1="21.9404" x2="64.9547" y2="21.9404" gradientUnits="userSpaceOnUse">
<stop stop-color="#D4A3BA"/>
<stop offset="0.8" stop-color="#EABED4"/>
<stop offset="1" stop-color="#D7A6BD"/>
</linearGradient>
<radialGradient id="paint29_radial_70_16014" cx="0" cy="0" r="1" gradientUnits="userSpaceOnUse" gradientTransform="translate(33.1926 46.744) scale(39.1942 46.7589)">
<stop stop-color="#EADCE3"/>
<stop offset="1" stop-color="#B14B7E"/>
</radialGradient>
<radialGradient id="paint30_radial_70_16014" cx="0" cy="0" r="1" gradientUnits="userSpaceOnUse" gradientTransform="translate(58.2224 22.3271) scale(47.2102 56.322)">
<stop offset="0.73" stop-color="#B074AD"/>
<stop offset="0.77" stop-color="#B278AF"/>
<stop offset="0.82" stop-color="#B985B7"/>
<stop offset="0.86" stop-color="#C599C3"/>
<stop offset="0.91" stop-color="#D6B6D4"/>
<stop offset="0.95" stop-color="#EBDBEA"/>
<stop offset="0.99" stop-color="white"/>
</radialGradient>
<linearGradient id="paint31_linear_70_16014" x1="38.2053" y1="56.177" x2="94.0283" y2="56.177" gradientUnits="userSpaceOnUse">
<stop stop-color="#A84080"/>
<stop offset="0.2" stop-color="#CC6699"/>
<stop offset="1" stop-color="#AB5594"/>
</linearGradient>
<linearGradient id="paint32_linear_70_16014" x1="62.1762" y1="28.502" x2="72.8923" y2="61.2009" gradientUnits="userSpaceOnUse">
<stop offset="0.37" stop-color="#A16262"/>
<stop offset="0.94" stop-color="#F9EADE"/>
</linearGradient>
<linearGradient id="paint33_linear_70_16014" x1="42.9189" y1="39.5507" x2="89.3429" y2="39.5507" gradientUnits="userSpaceOnUse">
<stop stop-color="#D4A3BA"/>
<stop offset="0.8" stop-color="#EABED4"/>
<stop offset="1" stop-color="#D7A6BD"/>
</linearGradient>
<radialGradient id="paint34_radial_70_16014" cx="0" cy="0" r="1" gradientUnits="userSpaceOnUse" gradientTransform="translate(57.5808 64.3541) scale(39.1942 46.7589)">
<stop stop-color="#EADCE3"/>
<stop offset="1" stop-color="#B14B7E"/>
</radialGradient>
<clipPath id="clip0_70_16014">
<rect width="94" height="66" fill="white" transform="translate(0.980957 0.762207)"/>
</clipPath>
</defs>
</svg>
