<svg width="160" height="167" viewBox="0 0 160 167" fill="none" xmlns="http://www.w3.org/2000/svg">
<path d="M111.396 65.8418L112.031 66.6356C112.293 66.9642 112.633 67.222 113.02 67.3854C113.408 67.5488 113.83 67.6126 114.248 67.571L116.341 67.3659C116.508 67.3495 116.675 67.3681 116.834 67.4204C116.992 67.4727 117.138 67.5576 117.262 67.6696C117.386 67.7816 117.484 67.9183 117.552 68.0708C117.62 68.2234 117.655 68.3884 117.655 68.5553V71.3861C117.655 71.3861 123.901 71.0002 124.809 69.9817C125.138 69.6186 125.358 69.1712 125.447 68.6896C125.496 68.4342 125.628 68.202 125.822 68.029C126.016 67.856 126.262 67.7517 126.521 67.7322L132.173 67.295C132.675 67.2566 133.159 67.0938 133.582 66.8212L135.106 65.8442L111.396 65.8418Z" fill="#FEA55D"/>
<path d="M103.273 135.037C103.526 135.741 103.538 136.508 103.306 137.219C103.075 137.929 102.614 138.543 101.995 138.962C98.8375 141.112 95.4129 142.841 91.8081 144.106C97.218 136.107 92.8632 111.016 90.6943 100.409L103.273 135.037Z" fill="#E9F2F5"/>
<path d="M127.404 68.7896C127.404 68.7896 118.941 94.1247 115.04 97.0653C111.973 99.3783 96.5805 98.3329 90.1276 97.7761C89.8272 96.3888 89.6392 95.5974 89.6392 95.5974C89.6392 95.5974 107.225 94.8647 114.552 92.9548C121.391 91.1718 117.172 72.6828 115.934 70.2403L115.802 69.9961L127.404 68.7896Z" fill="#E9F2F5"/>
<path d="M99.2795 124.047C98.366 125.691 97.5966 126.873 97.2523 126.92C96.0946 127.081 88.2935 93.9885 88.1738 93.4585L91.7764 97.9012L90.14 97.7645L89.7248 97.7303L90.7017 100.397L99.2795 124.047Z" fill="#E9F2F5"/>
<path d="M92.4552 72.1873C92.4306 72.1796 92.4042 72.1801 92.38 72.1889C92.3558 72.1977 92.3352 72.2142 92.3213 72.2359C92.3074 72.2575 92.301 72.2832 92.3031 72.3088C92.3053 72.3345 92.3158 72.3587 92.3331 72.3778C93.4053 73.472 94.5312 73.8774 93.1684 75.8778C93.0023 76.122 92.7434 76.4737 92.5431 76.7497C92.5261 76.771 92.5171 76.7976 92.5179 76.8248C92.5186 76.852 92.529 76.8781 92.5472 76.8983C92.5654 76.9186 92.5903 76.9317 92.6172 76.9353C92.6442 76.939 92.6716 76.9329 92.6945 76.9182C93.015 76.7222 93.3146 76.4939 93.5885 76.2368C95.0979 74.7787 94.8585 73.069 92.4552 72.1873Z" fill="#DB7841"/>
<path d="M93.7272 73.5187C93.7272 73.7092 93.3682 73.8655 92.9261 73.8655C92.484 73.8655 92.1274 73.7092 92.1274 73.5187C92.1274 73.3282 92.484 73.1719 92.9261 73.1719C93.3682 73.1719 93.7272 73.3257 93.7272 73.5187Z" fill="#DB7841"/>
<path d="M89.658 63.6606C89.658 63.6606 89.8021 65.8979 89.0181 66.8138H90.972L89.658 63.6606Z" fill="#4A2300"/>
<path d="M90.9699 67.7078C90.9699 67.7078 89.993 71.3176 89.3213 72.1798L91.3973 69.5152L90.9699 67.7078Z" fill="#4A2300"/>
<path d="M128.995 27.2567C129.219 26.2465 128.581 25.2465 127.571 25.0231C126.561 24.7997 125.561 25.4375 125.337 26.4477C125.114 27.4579 125.752 28.458 126.762 28.6814C127.772 28.9048 128.772 28.2669 128.995 27.2567Z" fill="#E8E8E8"/>
<path d="M129.033 26.8511C129.032 27.3475 128.834 27.8234 128.483 28.1742C128.132 28.525 127.656 28.722 127.159 28.722C126.994 28.7221 126.83 28.7008 126.671 28.6585C127.069 28.5521 127.421 28.3172 127.672 27.9904C127.922 27.6636 128.058 27.2631 128.058 26.8511C128.058 26.4391 127.922 26.0386 127.672 25.7118C127.421 25.385 127.069 25.1502 126.671 25.0437C126.83 24.9995 126.994 24.9773 127.159 24.9778C127.656 24.9778 128.133 25.1752 128.484 25.5265C128.835 25.8778 129.033 26.3543 129.033 26.8511Z" fill="#E0E0E0"/>
<path d="M106.511 31.3962C106.511 34.3857 105.323 37.2527 103.209 39.3665C101.096 41.4804 98.2285 42.668 95.2391 42.668C94.9948 42.668 94.7359 42.668 94.4868 42.6435C97.3388 42.4508 100.011 41.182 101.963 39.0937C103.915 37.0054 105.001 34.2535 105.001 31.395C105.001 28.5365 103.915 25.7847 101.963 23.6964C100.011 21.6081 97.3388 20.3392 94.4868 20.1465C94.7311 20.1294 94.9753 20.1221 95.2391 20.1221C98.2287 20.1227 101.096 21.3108 103.21 23.4251C105.323 25.5393 106.511 28.4066 106.511 31.3962Z" fill="#E9F2F5"/>
<path d="M73.5874 158.927C114.229 158.927 147.175 125.981 147.175 85.3398C147.175 44.6986 114.229 11.7524 73.5874 11.7524C32.9462 11.7524 0 44.6986 0 85.3398C0 125.981 32.9462 158.927 73.5874 158.927Z" fill="#095A78"/>
<path d="M42.7788 81.3487C42.7073 81.6221 42.5837 81.8792 42.4149 82.1058L40.8566 84.2161C40.6541 84.4903 40.5108 84.8037 40.436 85.1363C40.3611 85.4689 40.3563 85.8135 40.4219 86.148L41.008 89.1327L35.371 90.1438C35.371 90.1438 34.5039 85.5814 33.6368 84.6484C32.7698 83.7154 27.4233 80.8846 24.8222 80.7772C23.0563 80.7088 21.0584 79.4631 19.9569 78.6694C19.7626 78.5304 19.6175 78.3333 19.5426 78.1064C19.4677 77.8795 19.4669 77.6347 19.5403 77.4074C19.6138 77.1801 19.7576 76.982 19.951 76.8418C20.1445 76.7016 20.3775 76.6265 20.6164 76.6275C20.8301 76.6271 21.0395 76.6882 21.2196 76.8034L22.8316 77.8316C22.9927 77.9345 23.1618 78.0243 23.3372 78.1003H23.3592C23.8152 78.2966 24.3057 78.4004 24.8021 78.4054C25.2986 78.4104 25.7911 78.3167 26.251 78.1296C26.2827 78.1169 26.3099 78.095 26.3291 78.0667C26.3482 78.0384 26.3585 78.005 26.3585 77.9708C26.3589 77.9454 26.353 77.9202 26.3414 77.8976C26.328 77.8674 26.3058 77.8418 26.2779 77.8243L25.8236 77.5312L24.3826 76.6006C23.96 76.3284 23.615 75.9515 23.3812 75.5064L21.183 71.3543C21.099 71.2041 21.0563 71.0343 21.059 70.8621C21.0618 70.69 21.11 70.5217 21.1988 70.3742C21.2875 70.2267 21.4137 70.1052 21.5644 70.0221C21.7152 69.9391 21.8853 69.8973 22.0574 69.9011C22.2505 69.8991 22.4399 69.9545 22.6017 70.0601C22.7634 70.1657 22.8901 70.3169 22.966 70.4946L23.6645 72.0919L24.5853 73.7503C24.7188 73.9946 24.8759 74.2253 25.0542 74.4391C25.2081 74.6239 25.3763 74.7962 25.5574 74.9545L27.0033 76.2172C27.0587 76.2654 27.1268 76.2966 27.1995 76.3072C27.2722 76.3178 27.3464 76.3073 27.4133 76.277C27.4802 76.2466 27.537 76.1977 27.5768 76.136C27.6167 76.0743 27.6381 76.0024 27.6383 75.929C27.638 75.896 27.6339 75.8633 27.6261 75.8313C27.6271 75.8207 27.6271 75.8101 27.6261 75.7995L26.5832 72.8686C26.1852 71.7595 26.0125 70.582 26.0751 69.4053L26.1533 67.9789C26.1654 67.7643 26.2417 67.5582 26.3723 67.3875C26.503 67.2167 26.682 67.0892 26.886 67.0215C26.9919 66.988 27.1023 66.9707 27.2133 66.9702C27.4871 66.9711 27.7502 67.077 27.9483 67.266C28.1464 67.455 28.2644 67.7128 28.2782 67.9863L28.4418 71.3299C28.4418 71.474 28.4614 71.6181 28.4785 71.7598C28.5514 72.3981 28.7236 73.0211 28.9889 73.6062L29.155 73.975C29.2149 74.1046 29.3087 74.2155 29.4265 74.2959C29.5444 74.3763 29.6818 74.4233 29.8243 74.4318H29.8707C30.0377 74.4311 30.2002 74.3772 30.3346 74.2779C30.4689 74.1787 30.5682 74.0393 30.618 73.8798L31.4558 71.1736C31.5613 70.8305 31.7742 70.5302 32.063 70.317C32.3518 70.1038 32.7014 69.9888 33.0604 69.989H33.2387C33.698 69.9886 34.1516 70.0895 34.5674 70.2846L35.8448 70.8878C36.0128 70.9671 36.1488 71.1011 36.2306 71.2679C36.3123 71.4347 36.3348 71.6243 36.2945 71.8057C36.2541 71.987 36.1533 72.1491 36.0085 72.2655C35.8638 72.3819 35.6837 72.4456 35.498 72.4461H35.4076L34.0887 72.0236C33.9994 71.9951 33.9052 71.9853 33.812 71.9947C33.7187 72.0042 33.6284 72.0327 33.5467 72.0785C33.4649 72.1243 33.3934 72.1864 33.3367 72.261C33.2799 72.3356 33.2391 72.421 33.2167 72.512L33.058 73.1251C32.9238 73.4398 32.8547 73.7783 32.8547 74.1204C32.8547 74.4624 32.9238 74.801 33.058 75.1157C33.2605 75.5903 33.5468 76.0246 33.9031 76.3979C33.9617 76.4614 34.0227 76.52 34.0862 76.5787C34.1497 76.6373 34.2133 76.6959 34.2792 76.7496C34.8118 77.1896 35.4427 77.4946 36.1183 77.6387L37.5105 77.9366C37.6506 77.9661 37.7962 77.9551 37.9302 77.9049C38.0643 77.8547 38.1813 77.7675 38.2677 77.6533C38.3656 77.5221 38.4187 77.3628 38.4191 77.199C38.4196 77.0198 38.3554 76.8463 38.2383 76.7105L37.447 75.7873C37.0421 75.314 36.7999 74.7233 36.7558 74.1021L36.6557 72.7123C36.6233 72.2632 36.7244 71.8145 36.9463 71.4227C37.041 71.2549 37.1783 71.115 37.3444 71.0173C37.5108 70.919 37.7007 70.8675 37.894 70.8683C38.1117 70.8684 38.3245 70.9339 38.5046 71.0564C38.684 71.1754 38.8236 71.3456 38.9051 71.5449L39.0639 71.943L39.4986 74.4367L39.5279 74.5368C39.889 75.733 40.5057 76.8363 41.3353 77.7706L42.1535 78.6938C42.4674 79.0512 42.6885 79.4802 42.7976 79.9432C42.9066 80.4061 42.9001 80.8888 42.7788 81.3487Z" fill="#FEA55D"/>
<path d="M39.8015 78.0171C39.8015 78.0171 27.9167 82.5453 26.251 78.1417C26.2827 78.129 26.3099 78.107 26.329 78.0787C26.3482 78.0504 26.3584 78.0171 26.3584 77.9829C26.3589 77.9574 26.353 77.9323 26.3413 77.9096L27.0057 76.1999L27.6285 75.814L29.8804 74.4194L33.0555 75.0886C33.2581 75.5633 33.5443 75.9976 33.9006 76.3709C33.9592 76.4344 34.0203 76.493 34.0838 76.5516C34.1473 76.6103 34.2108 76.6689 34.2767 76.7226C34.8093 77.1626 35.4402 77.4676 36.1159 77.6116L37.508 77.9096C37.6481 77.9391 37.7937 77.9281 37.9278 77.8779C38.0618 77.8277 38.1788 77.7405 38.2652 77.6263C38.3632 77.4951 38.4163 77.3358 38.4166 77.172C38.4171 76.9927 38.3529 76.8193 38.2359 76.6835L37.4445 75.7603C37.0397 75.287 36.7974 74.6963 36.7533 74.075L36.6532 72.6853C36.6532 72.6853 38.0112 75.9997 39.8015 78.0171Z" fill="#EB924B"/>
<path d="M26.9541 79.1403C25.7012 79.4187 23.5909 78.2439 23.3589 78.1121C23.8149 78.3084 24.3054 78.4121 24.8019 78.4172C25.2983 78.4222 25.7908 78.3284 26.2507 78.1414C26.2824 78.1287 26.3096 78.1068 26.3288 78.0785C26.3479 78.0502 26.3582 78.0168 26.3582 77.9826C26.3586 77.9571 26.3528 77.932 26.3411 77.9093C26.3277 77.8791 26.3056 77.8536 26.2776 77.8361L26.4168 77.7139L27.9555 77.543C27.9555 77.543 28.2804 78.8448 26.9541 79.1403Z" fill="#EB924B"/>
<path d="M27.4917 76.2219L27.2231 77.5433L25.0566 74.4292C25.2105 74.614 25.3787 74.7863 25.5598 74.9445L27.0057 76.2073C27.0725 76.2655 27.1575 76.2988 27.2461 76.3015C27.3347 76.3042 27.4215 76.276 27.4917 76.2219Z" fill="#EB924B"/>
<path d="M30.0314 74.815L28.732 75.1374L28.4878 71.7498C28.5607 72.3881 28.7329 73.0111 28.9983 73.5962L29.1643 73.965C29.2242 74.0946 29.318 74.2054 29.4358 74.2859C29.5537 74.3663 29.6911 74.4133 29.8336 74.4218L30.0314 74.815Z" fill="#EB924B"/>
<path d="M33.5604 75.9826L31.4355 75.1351L33.2063 72.49L33.0475 73.103C32.9134 73.4177 32.8442 73.7562 32.8442 74.0983C32.8442 74.4404 32.9134 74.7789 33.0475 75.0936C33.1819 75.4096 33.3542 75.7081 33.5604 75.9826Z" fill="#EB924B"/>
<path d="M57.2285 165.26C57.2285 165.519 57.3315 165.768 57.5147 165.951C57.6979 166.134 57.9464 166.237 58.2055 166.237L63.8988 166.186C64.1835 166.183 64.4626 166.107 64.7091 165.964C64.9556 165.821 65.1611 165.618 65.3056 165.372L65.3959 165.221C65.4808 165.074 65.6024 164.952 65.7489 164.866C65.8953 164.78 66.0616 164.734 66.2313 164.732H66.4266C66.6857 164.732 66.9342 164.835 67.1175 165.019C67.3007 165.202 67.4036 165.45 67.4036 165.709V166.396H69.6018V163.682C69.6004 163.006 69.4485 162.338 69.1573 161.728L68.1021 159.518L64.8342 159.95L64.4507 160.866C64.134 161.627 63.6463 162.305 63.0254 162.848C62.4045 163.391 61.667 163.783 60.8702 163.995C59.9993 164.208 59.1044 164.307 58.2079 164.29C57.9497 164.29 57.7017 164.391 57.5181 164.573C57.3346 164.755 57.2305 165.002 57.2285 165.26Z" fill="black"/>
<path d="M71.9392 143.689L71.8635 144.236L71.0966 149.729L69.6092 160.38H60.2767L58.4523 144.827L58.44 144.712L58.1958 142.614L71.9392 143.689Z" fill="#E9F2F5"/>
<path d="M88.8186 165.26C88.8186 165.519 88.7156 165.768 88.5324 165.951C88.3492 166.134 88.1007 166.237 87.8416 166.237L82.1459 166.186C81.8615 166.183 81.5826 166.107 81.3365 165.964C81.0904 165.821 80.8854 165.618 80.7415 165.372L80.6511 165.221C80.5663 165.074 80.4447 164.952 80.2982 164.866C80.1517 164.78 79.9855 164.734 79.8158 164.732H79.618C79.3589 164.732 79.1104 164.835 78.9272 165.019C78.744 165.202 78.641 165.45 78.641 165.709V166.396H76.4429V163.682C76.4443 163.006 76.5961 162.338 76.8874 161.728L77.9425 159.518L81.208 159.95L81.5939 160.866C81.9107 161.627 82.3984 162.305 83.0193 162.848C83.6402 163.391 84.3776 163.783 85.1745 163.995C86.0453 164.208 86.9402 164.308 87.8367 164.29C88.0954 164.289 88.344 164.39 88.5281 164.572C88.7122 164.754 88.8166 165.001 88.8186 165.26Z" fill="black"/>
<path d="M87.8533 142.604L87.5969 144.802L87.526 145.393L85.7699 160.373H76.4399L75.1625 151.226L74.1856 144.25L74.105 143.679L87.8533 142.604Z" fill="#E9F2F5"/>
<path d="M71.8626 144.236L71.0932 149.729L70.9418 149.92L58.4488 144.817L58.1899 144.712L58.4366 144.703L71.8626 144.236Z" fill="#DFE8EB"/>
<path d="M87.5968 144.8L87.526 145.391L75.1625 151.236L74.188 144.26L87.5968 144.8Z" fill="#DFE8EB"/>
<path d="M62.0107 160.38H60.2766L58.4521 144.827C58.5352 145.281 61.1925 159.818 62.0107 160.38Z" fill="#DFE8EB"/>
<path d="M87.524 145.401L85.7679 160.38H82.6294C85.1768 158.956 87.4605 145.811 87.524 145.401Z" fill="#DFE8EB"/>
<path d="M127.403 68.7896C127.403 68.7896 118.94 94.1247 115.039 97.0653C112.209 99.2 98.8756 98.4746 91.7755 97.9128L90.1391 97.7761L89.7239 97.7419L90.7008 100.409L99.2859 124.047L103.279 135.037C103.532 135.741 103.544 136.508 103.313 137.219C103.082 137.929 102.62 138.543 102.002 138.962C98.844 141.112 95.4194 142.841 91.8146 144.106C80.8775 147.975 68.3919 147.809 56.8735 144.328C52.2 142.924 47.7095 140.97 43.4964 138.508C42.7998 138.102 42.2719 137.46 42.0088 136.698C41.7457 135.936 41.7648 135.105 42.0627 134.356L52.4283 108.564C48.9234 110.762 43.9849 113.486 41.0124 113.486C36.0275 113.486 32.1245 89.7943 32.1245 89.7943L42.8198 88.5291C42.7588 89.0716 42.7311 89.6172 42.7368 90.1631C42.7905 96.0249 46.3247 102.473 46.7204 103.662C47.0476 104.639 53.9084 99.2342 57.2764 96.5036L58.61 93.1868H88.0655L88.1705 93.4725L88.7005 91.0301C88.7005 91.0301 107.126 91.1376 108.425 89.1886C109.676 87.3128 116.913 72.9319 115.941 70.2697C115.908 70.1827 115.863 70.1006 115.809 70.0254L127.403 68.7896Z" fill="white"/>
<path d="M67.6549 101.679H66.1406V125.752H67.6549V101.679Z" fill="#E9F2F5"/>
<path d="M56.8661 144.329C52.1952 142.924 47.7072 140.97 43.4964 138.509C42.7998 138.103 42.2719 137.461 42.0088 136.699C41.7457 135.937 41.7648 135.106 42.0627 134.356L52.4283 108.565C48.9234 110.763 43.9849 113.486 41.0124 113.486C36.0275 113.486 32.1245 89.7947 32.1245 89.7947L42.8198 88.5295C42.7588 89.072 42.7311 89.6177 42.7368 90.1635C42.6171 90.95 37.3635 123.493 57.2765 96.5138C57.0933 96.9852 43.4622 133.824 56.8661 144.329Z" fill="#E9F2F5"/>
<path d="M71.9389 112.184C72.4879 112.184 72.9329 111.739 72.9329 111.19C72.9329 110.641 72.4879 110.196 71.9389 110.196C71.3899 110.196 70.9448 110.641 70.9448 111.19C70.9448 111.739 71.3899 112.184 71.9389 112.184Z" fill="black"/>
<path d="M81.2006 112.184C81.7496 112.184 82.1947 111.739 82.1947 111.19C82.1947 110.641 81.7496 110.196 81.2006 110.196C80.6516 110.196 80.2065 110.641 80.2065 111.19C80.2065 111.739 80.6516 112.184 81.2006 112.184Z" fill="black"/>
<path d="M71.9389 119.465C72.4879 119.465 72.9329 119.02 72.9329 118.471C72.9329 117.922 72.4879 117.477 71.9389 117.477C71.3899 117.477 70.9448 117.922 70.9448 118.471C70.9448 119.02 71.3899 119.465 71.9389 119.465Z" fill="black"/>
<path d="M81.2006 119.465C81.7496 119.465 82.1947 119.02 82.1947 118.471C82.1947 117.922 81.7496 117.477 81.2006 117.477C80.6516 117.477 80.2065 117.922 80.2065 118.471C80.2065 119.02 80.6516 119.465 81.2006 119.465Z" fill="black"/>
<path d="M72.9305 125.749C72.9305 125.946 72.8722 126.138 72.763 126.301C72.6538 126.465 72.4985 126.592 72.3169 126.668C72.1352 126.743 71.9353 126.763 71.7425 126.724C71.5497 126.686 71.3726 126.591 71.2335 126.452C71.0945 126.313 70.9998 126.136 70.9615 125.943C70.9231 125.75 70.9428 125.55 71.0181 125.369C71.0933 125.187 71.2207 125.032 71.3842 124.923C71.5477 124.813 71.7398 124.755 71.9364 124.755C72.1999 124.756 72.4524 124.861 72.6386 125.047C72.8249 125.233 72.9299 125.486 72.9305 125.749Z" fill="black"/>
<path d="M82.1942 125.749C82.1947 125.946 82.1366 126.139 82.0273 126.304C81.918 126.468 81.7623 126.596 81.5801 126.672C81.398 126.748 81.1974 126.767 81.0039 126.729C80.8103 126.691 80.6326 126.596 80.4931 126.456C80.3535 126.317 80.2586 126.139 80.2202 125.945C80.1818 125.752 80.2018 125.551 80.2775 125.369C80.3532 125.187 80.4813 125.031 80.6456 124.922C80.8098 124.813 81.0028 124.755 81.2001 124.755C81.4636 124.756 81.716 124.861 81.9023 125.047C82.0886 125.233 82.1935 125.486 82.1942 125.749Z" fill="black"/>
<path d="M71.9389 134.027C72.4879 134.027 72.9329 133.582 72.9329 133.033C72.9329 132.484 72.4879 132.039 71.9389 132.039C71.3899 132.039 70.9448 132.484 70.9448 133.033C70.9448 133.582 71.3899 134.027 71.9389 134.027Z" fill="black"/>
<path d="M81.2006 134.027C81.7496 134.027 82.1947 133.582 82.1947 133.033C82.1947 132.484 81.7496 132.039 81.2006 132.039C80.6516 132.039 80.2065 132.484 80.2065 133.033C80.2065 133.582 80.6516 134.027 81.2006 134.027Z" fill="black"/>
<path d="M90.0886 88.8712C89.8761 91.719 87.7341 94.2689 84.4173 96.0714C81.3057 97.7591 77.1633 98.7898 72.618 98.7898C65.5057 98.7898 59.385 96.2668 56.6544 92.6471C55.7949 91.5568 55.272 90.2395 55.1499 88.8565L55.4943 88.031L55.7385 87.4179L55.3551 86.7463C54.2731 85.0122 63.9035 78.0171 72.618 78.0171C80.9491 78.0171 87.9197 81.478 89.6783 86.1112L88.8136 86.7829L90.0886 88.8712Z" fill="#DA0A08"/>
<path d="M69.4258 95.5534C69.4258 95.5534 61.1582 95.0258 56.6544 92.6469C55.7949 91.5566 55.272 90.2393 55.1499 88.8563L55.4943 88.0308C55.4943 88.0308 59.9126 92.8887 65.2444 94.2736C70.5762 95.6584 69.4258 95.5534 69.4258 95.5534Z" fill="#B50906"/>
<path d="M90.0882 88.871C89.8757 91.7188 87.7337 94.2687 84.4169 96.0712L78.5307 97.1214L84.4291 94.679L76.4033 95.5192C78.1765 95.2969 86.4172 93.8901 88.8132 86.7827L90.0882 88.871Z" fill="#B50906"/>
<path d="M86.4832 110.193C86.4832 110.193 86.1901 110.14 85.7017 110.008C84.1434 109.585 80.5872 108.354 78.1717 105.465C76.4156 103.362 75.6316 100.824 75.2823 98.973C75.1181 98.1414 75.025 97.2973 75.0039 96.45C75.0039 96.45 80.133 97.3805 83.3081 101.176C86.4832 104.972 86.4832 110.193 86.4832 110.193Z" fill="#DA0A08"/>
<path d="M85.7064 110.011C84.1482 109.588 80.592 108.357 78.1765 105.468C76.4204 103.365 75.6364 100.827 75.2871 98.9758C76.8454 99.3984 80.4015 100.629 82.8171 103.519C84.5732 105.622 85.3572 108.162 85.7064 110.011Z" fill="#B50906"/>
<path d="M71.6016 97.2099C71.6016 97.2099 69.8333 102.124 65.5639 104.623C62.2862 106.54 58.4809 106.479 56.9031 106.347C56.4147 106.305 56.1436 106.259 56.1436 106.259C56.1436 106.259 57.9143 101.345 62.1812 98.8463C64.1351 97.7009 66.2844 97.2612 68.043 97.122C69.2288 97.0205 70.4222 97.05 71.6016 97.2099Z" fill="#B50906"/>
<path d="M68.7904 97.2095C68.7904 97.2095 67.0221 102.124 62.7527 104.622C60.7988 105.768 58.6495 106.207 56.8909 106.347C56.4025 106.305 56.1313 106.259 56.1313 106.259C56.1313 106.259 57.9021 101.345 62.169 98.8459C64.1229 97.7004 66.2722 97.2608 68.0308 97.1216C68.5119 97.1631 68.7904 97.2095 68.7904 97.2095Z" fill="#DA0A08"/>
<path d="M72.5009 100.736C74.968 100.736 76.968 99.0929 76.968 97.0655C76.968 95.0381 74.968 93.3945 72.5009 93.3945C70.0337 93.3945 68.0337 95.0381 68.0337 97.0655C68.0337 99.0929 70.0337 100.736 72.5009 100.736Z" fill="#B50906"/>
<path d="M91.6532 74.1022C91.6533 79.0267 89.7271 83.7559 86.2862 87.2789C82.8454 90.8019 78.163 92.8391 73.2399 92.9552C73.0917 92.9552 72.9427 92.9552 72.7929 92.9552C69.0627 92.9552 65.4163 91.8491 62.3147 89.7767C59.2131 87.7043 56.7958 84.7587 55.3683 81.3124C53.9408 77.8662 53.5673 74.074 54.295 70.4155C55.0227 66.7569 56.819 63.3963 59.4567 60.7587C62.0943 58.121 65.4549 56.3248 69.1135 55.597C72.772 54.8693 76.5642 55.2428 80.0104 56.6703C83.4567 58.0978 86.4023 60.5151 88.4747 63.6167C90.5471 66.7183 91.6532 70.3647 91.6532 74.0949V74.1022Z" fill="#FEA55D"/>
<path d="M91.6541 74.1018C91.6542 79.0262 89.728 83.7554 86.2872 87.2784C82.8463 90.8014 78.1639 92.8386 73.2408 92.9547C75.6197 89.6086 74.7233 71.3931 73.5998 69.9961C72.4079 68.4867 72.806 55.239 72.806 55.239C77.8064 55.2423 82.6008 57.2311 86.1352 60.7682C89.6697 64.3054 91.6548 69.1014 91.6541 74.1018Z" fill="#FC8A4A"/>
<path d="M73.4729 85.8672C76.4365 85.8672 78.8389 84.3833 78.8389 82.5529C78.8389 80.7224 76.4365 79.2385 73.4729 79.2385C70.5094 79.2385 68.1069 80.7224 68.1069 82.5529C68.1069 84.3833 70.5094 85.8672 73.4729 85.8672Z" fill="#D46222"/>
<path d="M73.4729 84.6458C76.4365 84.6458 78.8389 83.1619 78.8389 81.3314C78.8389 79.501 76.4365 78.0171 73.4729 78.0171C70.5094 78.0171 68.1069 79.501 68.1069 81.3314C68.1069 83.1619 70.5094 84.6458 73.4729 84.6458Z" fill="white"/>
<path d="M73.4726 79.5779C70.2608 79.5779 67.6572 81.0629 67.6572 82.8947H69.025C69.025 81.4927 71.0155 80.3594 73.4726 80.3594C75.9297 80.3594 77.9178 81.4927 77.9178 82.8947H79.288C79.288 81.0629 76.6844 79.5779 73.4726 79.5779Z" fill="#D46222"/>
<path d="M87.2963 82.4377C86.9128 81.418 86.3829 80.4595 85.7234 79.5923C81.3857 73.9088 77.4339 80.2591 73.2012 77.8582C73.5832 78.8781 74.1123 79.8367 74.7716 80.7036C79.1094 86.3896 83.0636 80.0393 87.2963 82.4377Z" fill="#6B2706"/>
<path d="M59.104 82.4377C59.4876 81.418 60.0174 80.4595 60.6769 79.5923C65.0146 73.9088 68.9664 80.2591 73.1991 77.8582C72.8171 78.8781 72.288 79.8367 71.6287 80.7036C67.291 86.3896 63.3367 80.0393 59.104 82.4377Z" fill="#6B2706"/>
<path d="M87.2968 82.4406C83.0641 80.0397 79.1099 86.39 74.7721 80.7065C74.1135 79.8388 73.5837 78.8804 73.1992 77.8611C73.639 78.1132 74.1205 78.2845 74.6207 78.3667L74.7721 78.5718C78.6189 83.6154 82.1653 79.1873 85.8729 79.793C86.4655 80.6069 86.9445 81.4976 87.2968 82.4406Z" fill="#572005"/>
<path d="M73.1991 77.8611C72.8166 78.8808 72.2875 79.8393 71.6287 80.7065C67.291 86.39 63.3367 80.0397 59.104 82.4406C59.4571 81.5012 59.9344 80.6132 60.523 79.8004C64.2306 79.1849 67.7794 83.6178 71.6287 78.5792L71.7801 78.374C72.2796 78.288 72.7601 78.1143 73.1991 77.8611Z" fill="#572005"/>
<path d="M68.5513 65.8493L62.8361 67.9131C62.5057 68.0317 62.1417 68.0145 61.824 67.8653C61.5062 67.716 61.2607 67.4469 61.141 67.1169C61.0224 66.7865 61.0396 66.4225 61.1888 66.1048C61.3381 65.7871 61.6072 65.5415 61.9372 65.4218L67.6525 63.3605C67.8161 63.3014 67.9897 63.2751 68.1634 63.2832C68.3371 63.2912 68.5076 63.3334 68.665 63.4073C68.8224 63.4813 68.9637 63.5855 69.0808 63.7141C69.1979 63.8427 69.2886 63.9931 69.3475 64.1567C69.4661 64.4867 69.4488 64.8503 69.2995 65.1677C69.1502 65.485 68.8811 65.7302 68.5513 65.8493Z" fill="#602D00"/>
<path d="M76.9411 65.8493L82.6563 67.9131C82.9867 68.0317 83.3506 68.0145 83.6684 67.8653C83.9861 67.716 84.2317 67.4469 84.3513 67.1169C84.4104 66.9533 84.4367 66.7797 84.4286 66.606C84.4206 66.4322 84.3784 66.2618 84.3044 66.1044C84.2305 65.947 84.1262 65.8057 83.9977 65.6886C83.8691 65.5714 83.7187 65.4808 83.5551 65.4218L77.8399 63.3605C77.6763 63.3014 77.5027 63.2751 77.3289 63.2832C77.1552 63.2912 76.9848 63.3334 76.8274 63.4073C76.67 63.4813 76.5287 63.5855 76.4115 63.7141C76.2944 63.8427 76.2038 63.9931 76.1448 64.1567C76.0263 64.4867 76.0435 64.8503 76.1928 65.1677C76.3421 65.485 76.6112 65.7302 76.9411 65.8493Z" fill="#602D00"/>
<path d="M73.2015 79.8466C75.5958 79.8466 77.5368 77.3742 77.5368 74.3243C77.5368 71.2744 75.5958 68.802 73.2015 68.802C70.8072 68.802 68.8662 71.2744 68.8662 74.3243C68.8662 77.3742 70.8072 79.8466 73.2015 79.8466Z" fill="#FEB36D"/>
<path d="M91.8002 78.8721C94.2552 78.8721 96.2454 76.8819 96.2454 74.4269C96.2454 71.9719 94.2552 69.9817 91.8002 69.9817C89.3452 69.9817 87.355 71.9719 87.355 74.4269C87.355 76.8819 89.3452 78.8721 91.8002 78.8721Z" fill="#FC8A4A"/>
<path d="M54.0751 78.8721C56.5301 78.8721 58.5203 76.8819 58.5203 74.4269C58.5203 71.9719 56.5301 69.9817 54.0751 69.9817C51.6201 69.9817 49.6299 71.9719 49.6299 74.4269C49.6299 76.8819 51.6201 78.8721 54.0751 78.8721Z" fill="#FEA55D"/>
<path d="M53.6496 72.1871C53.6741 72.1793 53.7006 72.1799 53.7248 72.1887C53.749 72.1974 53.7696 72.2139 53.7835 72.2356C53.7974 72.2573 53.8038 72.2829 53.8016 72.3086C53.7995 72.3342 53.789 72.3585 53.7717 72.3776C52.6995 73.4718 51.5735 73.8772 52.9388 75.8775C53.1025 76.1218 53.3638 76.4735 53.5641 76.7495C53.579 76.7713 53.5861 76.7975 53.5842 76.8238C53.5824 76.8502 53.5717 76.8751 53.5539 76.8946C53.5361 76.9141 53.5122 76.9271 53.4861 76.9313C53.46 76.9355 53.4333 76.9309 53.4102 76.918C53.0898 76.722 52.7902 76.4937 52.5163 76.2366C51.0093 74.7785 51.2463 73.0688 53.6496 72.1871Z" fill="#D48A4E"/>
<path d="M53.8058 73.5184C53.8058 73.709 53.4468 73.8653 53.0047 73.8653C52.5627 73.8653 52.2061 73.709 52.2061 73.5184C52.2061 73.3279 52.5651 73.1716 53.0047 73.1716C53.4444 73.1716 53.8058 73.3255 53.8058 73.5184Z" fill="#D48A4E"/>
<path d="M63.2483 71.2956C63.1796 71.2947 63.1125 71.2746 63.0546 71.2376C62.9967 71.2006 62.9502 71.1482 62.9205 71.0862C62.8908 71.0243 62.879 70.9553 62.8864 70.8869C62.8939 70.8186 62.9202 70.7537 62.9626 70.6996C63.0138 70.6385 64.2057 69.1658 65.6981 69.1487C66.443 69.1487 67.122 69.4906 67.7057 70.1916C67.7621 70.2667 67.7875 70.3606 67.7767 70.4539C67.7659 70.5471 67.7197 70.6327 67.6476 70.6929C67.5755 70.7531 67.483 70.7833 67.3893 70.7773C67.2956 70.7712 67.2078 70.7295 67.144 70.6605C66.6994 70.1305 66.2378 69.8765 65.7054 69.8814C64.5574 69.8936 63.5463 71.1441 63.5365 71.1588C63.5017 71.2016 63.4577 71.236 63.4078 71.2597C63.358 71.2834 63.3035 71.2956 63.2483 71.2956Z" fill="black"/>
<path d="M82.7883 71.2956C82.7331 71.2956 82.6786 71.2834 82.6288 71.2597C82.5789 71.236 82.535 71.2016 82.5001 71.1588C82.4879 71.1441 81.4718 69.8912 80.3288 69.8814H80.3141C79.7963 69.8814 79.3372 70.1256 78.8927 70.6605C78.8628 70.7003 78.8252 70.7335 78.7821 70.7582C78.739 70.783 78.6913 70.7987 78.6419 70.8044C78.5926 70.8101 78.5426 70.8057 78.495 70.7915C78.4474 70.7773 78.4031 70.7536 78.365 70.7217C78.3268 70.6899 78.2956 70.6506 78.2731 70.6063C78.2506 70.562 78.2373 70.5135 78.2342 70.464C78.231 70.4144 78.2379 70.3647 78.2545 70.3178C78.2712 70.271 78.2971 70.2281 78.3309 70.1916C78.9073 69.4979 79.5765 69.1487 80.3141 69.1487H80.3386C81.8309 69.1658 83.0252 70.6385 83.0741 70.6996C83.1164 70.7537 83.1428 70.8186 83.1502 70.8869C83.1576 70.9553 83.1458 71.0243 83.1161 71.0862C83.0864 71.1482 83.0399 71.2006 82.982 71.2376C82.9241 71.2746 82.857 71.2947 82.7883 71.2956Z" fill="black"/>
<path d="M58.1027 62.2441L57.2722 69.1171L56.7349 72.6977L55.1498 73.1715L54.0727 69.9841L54.0458 69.8425C53.8864 69.0335 53.9089 68.1992 54.1118 67.4001L54.6515 65.2581C54.8046 64.6494 55.1063 64.0883 55.5296 63.625C55.9529 63.1616 56.4845 62.8105 57.0768 62.6032L58.1027 62.2441Z" fill="#602D00"/>
<path d="M58.1027 62.2441L57.0768 62.6056C56.4854 62.8123 55.9543 63.1623 55.5311 63.6243C55.1079 64.0863 54.8057 64.6459 54.6515 65.2532L54.1118 67.3952C53.9089 68.1944 53.8864 69.0286 54.0458 69.8376L54.0727 69.9793L55.1498 73.1666C54.9262 72.0413 54.8328 70.8939 54.8714 69.7472L56.4418 70.773C55.7915 70.0798 55.2925 69.2588 54.9764 68.3624C55.0485 67.7983 55.1604 67.2401 55.311 66.6918L56.1414 66.9482C55.8361 66.6307 55.7018 66.0812 55.6529 65.6904C56.1585 64.3495 57.0024 63.1623 58.1027 62.2441Z" fill="#4A2300"/>
<path d="M91.6272 69.8425L91.6003 69.9841L90.5232 73.1715L88.9381 72.6977L88.4007 69.1171L87.5703 62.2441L88.5863 62.6007C89.1787 62.8081 89.7103 63.1592 90.1336 63.6225C90.5569 64.0859 90.8586 64.647 91.0117 65.2556L91.5514 67.3976C91.7579 68.1969 91.7837 69.032 91.6272 69.8425Z" fill="#602D00"/>
<path d="M91.5612 67.4027L91.0214 65.2608C90.8684 64.6521 90.5667 64.091 90.1434 63.6276C89.7201 63.1643 89.1885 62.8132 88.5961 62.6059L87.5801 62.2493C87.795 62.3543 91.6272 64.3717 90.7186 71.865C90.6575 72.1361 88.9381 72.6979 88.9381 72.6979L90.5232 73.1717L91.6003 69.9844L91.6272 69.8427C91.7862 69.0346 91.7637 68.2011 91.5612 67.4027Z" fill="#4A2300"/>
<path d="M90.6622 37.4998C90.6944 38.2947 90.6395 39.0908 90.4986 39.8738L90.2714 41.52L89.5705 46.6002L87.4114 62.2438C86.172 61.3909 84.8761 60.623 83.5328 59.9455C75.3686 55.839 67.2045 56.3991 59.0403 61.6259C58.7277 61.8237 58.4151 62.0313 58.1024 62.2438L55.599 44.1065L55.472 43.1833L55.0152 39.8738C54.8742 39.0908 54.8194 38.2947 54.8516 37.4998C54.832 37.2555 54.8174 37.026 54.8174 36.7866C54.8242 35.4208 55.1699 34.078 55.8237 32.8787C55.9238 32.6858 56.0337 32.4977 56.1509 32.3121C57.0875 30.8589 58.3109 29.6123 59.7462 28.6485C60.4703 28.1486 61.2303 27.7029 62.0201 27.3149C65.012 25.8495 68.7294 24.9702 72.7667 24.9702H72.9254C73.6207 24.9702 74.3054 24.9995 74.9795 25.0581C78.6114 25.3512 81.9062 26.3599 84.5293 27.862C85.7173 28.5271 86.8107 29.3486 87.7802 30.3044C88.8349 31.3314 89.6562 32.5735 90.1884 33.9461C90.3315 34.3234 90.445 34.7113 90.5279 35.1062C90.6462 35.6527 90.706 36.2103 90.7062 36.7695C90.6988 37.026 90.6842 37.2629 90.6622 37.4998Z" fill="white"/>
<path d="M50.3181 44.2898C57.2313 44.2898 62.8355 38.6856 62.8355 31.7725C62.8355 24.8593 57.2313 19.2551 50.3181 19.2551C43.405 19.2551 37.8008 24.8593 37.8008 31.7725C37.8008 38.6856 43.405 44.2898 50.3181 44.2898Z" fill="white"/>
<path d="M77.9209 19.3885C79.6676 12.1739 75.2351 4.90933 68.0205 3.1626C60.8059 1.41588 53.5413 5.84845 51.7946 13.063C50.0478 20.2776 54.4804 27.5422 61.695 29.2889C68.9096 31.0357 76.1742 26.6031 77.9209 19.3885Z" fill="white"/>
<path d="M98.8688 16.2757C98.8668 19.3108 97.9077 22.268 96.1278 24.7265C94.348 27.185 91.8381 29.0196 88.9553 29.9692C86.0725 30.9188 82.9637 30.9351 80.0711 30.0156C77.1786 29.0962 74.6497 27.288 72.8442 24.8482C71.0388 22.4085 70.0488 19.4614 70.0151 16.4265C69.9813 13.3915 70.9056 10.4232 72.6564 7.94392C74.4072 5.46464 76.8953 3.60066 79.7667 2.61721C82.6382 1.63377 85.7466 1.58094 88.6497 2.46626C89.6835 2.77982 90.6783 3.21001 91.6148 3.74852C93.6069 4.89099 95.2974 6.49247 96.5459 8.41983C97.7944 10.3472 98.5648 12.5447 98.7931 14.8297C98.8431 15.3101 98.8684 15.7927 98.8688 16.2757Z" fill="white"/>
<path d="M98.7487 14.419C97.3565 7.90263 91.5655 4.23902 84.634 4.23902C82.6742 4.2368 80.7346 4.63492 78.9341 5.40896C77.1336 6.183 75.5102 7.31664 74.1634 8.74038C71.6869 6.44332 68.4334 5.16773 65.0556 5.16958C57.6307 5.16958 51.6224 9.96647 51.6224 17.3816C51.6227 17.9458 51.6578 18.5095 51.7274 19.0693C51.1132 16.2757 51.4068 13.3589 52.5654 10.7437C53.724 8.12846 55.6872 5.95135 58.1691 4.52932C60.6509 3.1073 63.5219 2.51462 66.364 2.83757C69.2061 3.16051 71.8709 4.38223 73.9704 6.32484C75.8477 4.34358 78.2484 2.93536 80.8938 2.26364C83.5392 1.59193 86.3209 1.68426 88.916 2.52993C91.511 3.3756 93.813 4.93992 95.5548 7.04131C97.2965 9.1427 98.4065 11.695 98.756 14.4019L98.7487 14.419Z" fill="#E9F2F5"/>
<path d="M106.171 34.0245C107.629 27.9726 103.905 21.8841 97.8535 20.4256C91.8016 18.9671 85.7132 22.6908 84.2547 28.7427C82.7961 34.7946 86.5198 40.8831 92.5718 42.3416C98.6237 43.8001 104.712 40.0764 106.171 34.0245Z" fill="white"/>
<path d="M91.5069 31.5599C91.5069 37.5585 83.4885 42.4189 73.5992 42.4189C63.7098 42.4189 55.6914 37.5585 55.6914 31.5599C55.692 31.2758 55.71 30.9919 55.7451 30.71C56.4632 36.3055 64.1837 40.7238 73.5992 40.7238C83.0147 40.7238 90.7351 36.3275 91.4532 30.71C91.4883 30.9919 91.5063 31.2758 91.5069 31.5599Z" fill="#E9F2F5"/>
<path d="M52.0769 19.3774C50.0592 19.0902 48.0018 19.2998 46.0835 19.9881C44.1652 20.6763 42.4438 21.8224 41.0689 23.3268C39.694 24.8312 38.707 26.6485 38.1937 28.6209C37.6804 30.5933 37.6563 32.6611 38.1234 34.6449C38.0399 34.0616 37.9982 33.4731 37.9989 32.8839C38.0001 30.7659 38.5386 28.6827 39.5638 26.8293C40.589 24.9758 42.0675 23.4127 43.861 22.286C45.6545 21.1592 47.7045 20.5058 49.8192 20.3867C51.9339 20.2676 54.0443 20.6867 55.953 21.6049C54.9855 20.4032 53.6023 19.6083 52.0769 19.3774Z" fill="#E9F2F5"/>
<path d="M59.0405 61.6261C58.7279 61.8239 58.4152 62.0315 58.1026 62.244L55.5991 44.1066L55.6919 43.6182C55.5942 44.07 57.2062 53.0605 58.1905 56.0451C58.7205 57.6425 58.9452 59.8797 59.0405 61.6261Z" fill="#E9F2F5"/>
<path d="M90.2708 41.5203L87.4108 62.2441C86.1714 61.3912 84.8756 60.6233 83.5322 59.9458C83.9279 59.0934 85.4862 58.0896 86.4876 56.038C87.5671 53.83 89.6578 45.157 90.2708 41.5203Z" fill="#E9F2F5"/>
<path d="M127.16 66.8137C145.296 66.8137 159.998 61.7988 159.998 55.6128C159.998 49.4267 145.296 44.4119 127.16 44.4119C109.023 44.4119 94.3213 49.4267 94.3213 55.6128C94.3213 61.7988 109.023 66.8137 127.16 66.8137Z" fill="#D1D1D1"/>
<path d="M160 53.3855H94.3213V55.613H160V53.3855Z" fill="#D1D1D1"/>
<path d="M127.16 64.5864C145.296 64.5864 159.998 59.5715 159.998 53.3855C159.998 47.1994 145.296 42.1846 127.16 42.1846C109.023 42.1846 94.3213 47.1994 94.3213 53.3855C94.3213 59.5715 109.023 64.5864 127.16 64.5864Z" fill="white"/>
<path d="M157.411 55.9105C146.42 64.9621 107.894 64.9474 96.9075 55.9105C96.5379 55.6017 96.2449 55.2113 96.0517 54.7702C95.8584 54.329 95.7702 53.849 95.7938 53.3679C96.3311 41.3806 108.785 28.9927 127.159 28.9927C145.533 28.9927 157.987 41.3733 158.525 53.3679C158.548 53.849 158.46 54.329 158.267 54.7702C158.074 55.2113 157.781 55.6017 157.411 55.9105Z" fill="#D1D1D1"/>
<path d="M157.411 55.4224C146.42 64.474 107.894 64.4594 96.9075 55.4224C96.5379 55.1136 96.2449 54.7233 96.0517 54.2821C95.8584 53.841 95.7702 53.361 95.7938 52.8799C96.3311 40.8925 108.785 28.5046 127.159 28.5046C145.533 28.5046 157.987 40.8852 158.525 52.8799C158.548 53.361 158.46 53.841 158.267 54.2821C158.074 54.7233 157.781 55.1136 157.411 55.4224Z" fill="#E8E8E8"/>
<path d="M158.534 52.8799C158.558 53.361 158.47 53.8412 158.277 54.2825C158.084 54.7237 157.791 55.114 157.421 55.4224C151.446 60.3439 137.337 62.5885 123.935 62.1586C135.187 61.7971 145.936 59.5526 150.951 55.4224C151.321 55.114 151.614 54.7237 151.807 54.2825C152 53.8412 152.089 53.361 152.064 52.8799C151.561 41.6033 140.517 29.9872 123.933 28.6365C124.989 28.5486 126.068 28.5046 127.169 28.5046C145.526 28.5046 157.987 40.8852 158.534 52.8799Z" fill="#E0E0E0"/>
<path d="M123.547 29.5552C111.77 32.6277 103.876 40.4092 100.769 48.7208C100.695 48.9161 100.56 49.0825 100.384 49.1955C100.208 49.3085 100.001 49.3621 99.7924 49.3485C99.6331 49.3408 99.4781 49.2943 99.3409 49.2129C99.2037 49.1316 99.0886 49.0179 99.0054 48.8818C98.9223 48.7457 98.8738 48.5913 98.8641 48.4321C98.8544 48.2729 98.8838 48.1137 98.9498 47.9685C102.482 39.8792 110.576 32.5105 122.375 29.8067C122.763 29.7164 123.157 29.6309 123.547 29.5552Z" fill="white"/>
</svg>
