<svg width="38" height="32" viewBox="0 0 38 32" fill="none" xmlns="http://www.w3.org/2000/svg">
<path d="M38 22.704C38 28.528 33.877 32 26.961 32H24.7C23.655 32 22.8 31.28 22.8 30.4V21.168C22.8 20.736 23.218 20.368 23.731 20.368L27.075 20.32C27.341 20.304 27.569 20.144 27.626 19.92L28.291 16.864C28.348 16.576 28.082 16.304 27.721 16.304L23.674 16.352C23.142 16.352 22.724 16 22.705 15.568L22.629 11.648C22.629 11.392 22.876 11.168 23.199 11.168L27.759 11.104C28.082 11.104 28.329 10.896 28.329 10.624L28.253 6.78398C28.253 6.51198 28.006 6.304 27.683 6.304L22.553 6.36802C19.399 6.41602 16.891 8.592 16.948 11.248L17.043 15.648C17.062 16.096 16.644 16.448 16.112 16.464L13.832 16.496C13.509 16.496 13.262 16.704 13.262 16.976L13.319 20.016C13.319 20.288 13.566 20.496 13.889 20.496L16.169 20.464C16.701 20.464 17.119 20.816 17.138 21.248L17.309 30.368C17.328 31.264 16.473 32 15.409 32H11.039C4.123 32 0 28.528 0 22.688V9.296C0 3.472 4.123 0 11.039 0H26.961C33.877 0 38 3.472 38 9.296V22.704Z" fill="#E94438"/>
</svg>
