<svg width="32" height="63" viewBox="0 0 32 63" fill="none" xmlns="http://www.w3.org/2000/svg">
<path d="M5.21368 62.7416C4.18453 62.7436 3.18715 62.3851 2.3947 61.7285C1.94869 61.3587 1.58001 60.9046 1.30978 60.3921C1.03954 59.8797 0.873062 59.3189 0.819872 58.742C0.766682 58.1651 0.827828 57.5834 0.999806 57.0301C1.17178 56.4769 1.45121 55.963 1.82209 55.5179L21.555 31.9089L2.52684 8.25589C2.16096 7.80535 1.88774 7.28693 1.72286 6.73045C1.55799 6.17397 1.50472 5.59039 1.56612 5.01325C1.62751 4.43612 1.80236 3.87681 2.08062 3.36747C2.35888 2.85813 2.73506 2.4088 3.18754 2.04532C3.64327 1.64433 4.17697 1.34187 4.75513 1.15693C5.3333 0.971979 5.94345 0.908535 6.5473 0.970575C7.15115 1.03261 7.73566 1.2188 8.26414 1.51744C8.79262 1.81609 9.25367 2.22074 9.61835 2.70602L30.8929 29.134C31.5407 29.9221 31.8949 30.9107 31.8949 31.9309C31.8949 32.9512 31.5407 33.9398 30.8929 34.7279L8.86955 61.1559C8.42769 61.6889 7.86639 62.1103 7.23119 62.3858C6.596 62.6613 5.9048 62.7832 5.21368 62.7416Z" fill="#231F20"/>
</svg>
