<svg width="32" height="62" viewBox="0 0 32 62" fill="none" xmlns="http://www.w3.org/2000/svg">
<path d="M25.9172 61.7418C25.2592 61.7441 24.609 61.5988 24.0145 61.3168C23.42 61.0348 22.8962 60.6231 22.4816 60.1121L1.20709 33.6841C0.55924 32.896 0.205078 31.9074 0.205078 30.8872C0.205078 29.8669 0.55924 28.8783 1.20709 28.0902L23.2304 1.66224C23.978 0.762734 25.0524 0.197068 26.2171 0.0896832C27.3818 -0.0177012 28.5415 0.341992 29.441 1.08963C30.3405 1.83727 30.9061 2.91162 31.0135 4.07633C31.1209 5.24104 30.7612 6.4007 30.0136 7.3002L10.3247 30.9092L29.3529 54.5182C29.8915 55.1647 30.2336 55.952 30.3388 56.7869C30.444 57.6218 30.3078 58.4694 29.9464 59.2293C29.585 59.9892 29.0134 60.6297 28.2994 61.075C27.5853 61.5202 26.7587 61.7517 25.9172 61.7418Z" fill="#231F20"/>
</svg>
