<svg width="36" height="37" viewBox="0 0 36 37" fill="none" xmlns="http://www.w3.org/2000/svg">
<g clip-path="url(#clip0_68_993)">
<path d="M35.9811 18.8368C35.9811 17.3619 35.8586 16.2856 35.5935 15.1694H18.3586V21.8264H28.4751C28.2713 23.4808 27.1699 25.9722 24.7223 27.6463L24.6879 27.8692L30.1373 31.9945L30.5148 32.0313C33.9822 28.9021 35.9811 24.2979 35.9811 18.8368Z" fill="#4285F4"/>
<path d="M18.3587 36.3764C23.3149 36.3764 27.4757 34.7818 30.5148 32.0314L24.7223 27.6464C23.1722 28.7027 21.0917 29.4402 18.3587 29.4402C13.5044 29.4402 9.38433 26.3111 7.91566 21.986L7.70038 22.0038L2.03406 26.2891L1.95996 26.4904C4.97859 32.3501 11.1791 36.3764 18.3587 36.3764Z" fill="#34A853"/>
<path d="M7.91565 21.9859C7.52813 20.8698 7.30386 19.6738 7.30386 18.4382C7.30386 17.2023 7.52813 16.0065 7.89526 14.8904L7.885 14.6527L2.14767 10.2986L1.95995 10.3858C0.715833 12.8175 0.00195312 15.5481 0.00195312 18.4382C0.00195312 21.3282 0.715833 24.0587 1.95995 26.4903L7.91565 21.9859Z" fill="#FBBC05"/>
<path d="M18.3587 7.43604C21.8056 7.43604 24.1307 8.89102 25.4566 10.1069L30.6372 5.16392C27.4555 2.27389 23.3149 0.5 18.3587 0.5C11.1791 0.5 4.97859 4.52609 1.95996 10.3858L7.89527 14.8904C9.38434 10.5653 13.5044 7.43604 18.3587 7.43604Z" fill="#EB4335"/>
</g>
<defs>
<clipPath id="clip0_68_993">
<rect width="36" height="36" fill="white" transform="translate(0 0.5)"/>
</clipPath>
</defs>
</svg>

