<svg width="38" height="31" viewBox="0 0 38 31" fill="none" xmlns="http://www.w3.org/2000/svg">
<path d="M26.9744 0H11.0445C4.12506 0 0 3.3635 0 9.0055V21.979C0 27.6365 4.12506 31 11.0445 31H26.9554C33.8749 31 37.9999 27.6365 37.9999 21.9945V9.0055C38.0189 3.3635 33.8939 0 26.9744 0ZM19.0095 21.514C14.9414 21.514 11.6338 18.817 11.6338 15.5C11.6338 12.183 14.9414 9.486 19.0095 9.486C23.0775 9.486 26.3851 12.183 26.3851 15.5C26.3851 18.817 23.0775 21.514 19.0095 21.514ZM30.2631 7.564C30.168 7.75 30.035 7.9205 29.8639 8.0755C29.6738 8.215 29.4647 8.3235 29.2366 8.401C29.0085 8.4785 28.7613 8.525 28.5142 8.525C28.001 8.525 27.5257 8.37 27.1645 8.0755C26.9935 7.9205 26.8604 7.75 26.7653 7.564C26.6703 7.378 26.6133 7.1765 26.6133 6.975C26.6133 6.7735 26.6703 6.572 26.7653 6.386C26.8604 6.1845 26.9935 6.0295 27.1645 5.8745C27.6018 5.518 28.2671 5.3475 28.8754 5.456C29.0085 5.4715 29.1225 5.5025 29.2366 5.549C29.3506 5.58 29.4647 5.6265 29.5787 5.6885C29.6738 5.735 29.7688 5.8125 29.8639 5.8745C30.035 6.0295 30.168 6.1845 30.2631 6.386C30.3581 6.572 30.4152 6.7735 30.4152 6.975C30.4152 7.1765 30.3581 7.378 30.2631 7.564Z" fill="#E94438"/>
</svg>
