<svg width="75" height="18" viewBox="0 0 75 18" fill="none" xmlns="http://www.w3.org/2000/svg">
<path style="mix-blend-mode:multiply" opacity="0.5" fill-rule="evenodd" clip-rule="evenodd" d="M52.7236 14.5016C51.1933 14.5016 50.077 14.7842 50.5938 15.7614C50.8873 16.3147 50.8195 17.1335 49.5301 17.4332C49.1604 17.5342 48.7596 17.5716 48.3634 17.5419C47.9673 17.5122 47.5881 17.4163 47.2598 17.2629C46.6377 16.965 46.0356 16.3674 45.1827 15.9452C44.4301 15.5741 43.3037 15.3528 42.6089 15.7137C42.0269 16.015 41.8864 16.5445 41.6506 16.9531C41.2667 17.6205 40.326 17.886 39.3351 17.9644C38.0457 18.0682 36.548 17.9797 35.4969 17.3821C34.6566 16.9037 34.3982 16.456 31.0868 16.3606C28.5004 16.284 27.7328 17.1267 25.7108 17.4945C25.4022 17.5615 25.0728 17.5714 24.7566 17.5233C24.4404 17.4751 24.1489 17.3705 23.9122 17.2204C23.4932 16.9463 23.0768 16.8901 22.0708 17.0944C21.0649 17.2987 20.237 16.9616 20.4051 16.1325C20.4503 15.918 20.0364 15.8635 19.8181 15.6218C19.6826 15.4652 19.5672 14.8948 18.3305 14.8812C17.8764 14.8812 17.5779 14.791 17.4199 14.4948C17.2267 14.1355 17.2543 13.5805 16.4766 13.6112C14.9539 13.6708 14.121 13.4597 14.101 12.7259C14.0759 11.8168 13.8501 11.7044 13.3333 11.5342C12.8166 11.364 11.9712 11.9292 11.4092 11.8049C10.8022 11.6704 10.6792 11.1103 10.3054 10.8192C9.52777 10.2131 8.52433 10.5195 7.25246 10.5263C6.39201 10.5263 6.08094 10.0514 5.92541 9.1797C5.70716 7.94713 6.63284 6.98525 5.17283 6.68732C3.16594 6.27362 4.68364 5.0053 3.55226 4.64438C-0.035059 3.48671 1.7586 0.406982 4.42776 0.406982H69.15C74.832 0.406982 73.7307 4.68865 71.6084 5.22492C70.2437 5.56541 69.6367 5.73566 69.9001 7.16401C70.4018 9.94922 67.6874 8.29954 66.837 9.06735C66.1823 9.6581 65.9063 11.6074 65.0308 12.5931C64.7198 12.9336 63.9421 13.3933 63.3425 13.1413C61.8173 12.5012 60.9794 12.9149 59.971 14.2615C59.4216 14.997 58.4482 15.4158 57.0936 15.2098C55.8393 15.0191 54.1008 14.5186 52.7085 14.5186L52.7236 14.5016Z" fill="url(#paint0_radial_70_35759)"/>
<path fill-rule="evenodd" clip-rule="evenodd" d="M57.6354 14.9048C57.1814 14.9525 52.839 13.2024 51.2861 13.7131C54.6953 12.1435 55.9496 12.4584 57.6354 14.9048Z" fill="url(#paint1_radial_70_35759)"/>
<path fill-rule="evenodd" clip-rule="evenodd" d="M26.8046 16.7845C26.195 14.7093 26.4233 14.1645 28.4828 13.778C30.5424 13.3916 33.2492 13.538 34.7067 14.1492C36.257 14.7978 35.798 16.1649 36.3373 17.3191C36.0779 17.2444 35.8348 17.1459 35.6148 17.0263C34.2953 16.3453 34.0319 15.14 31.1219 15.2149C28.9695 15.2711 28.0187 15.7512 26.8046 16.7845Z" fill="url(#paint2_radial_70_35759)"/>
<path fill-rule="evenodd" clip-rule="evenodd" d="M47.508 16.7522C47.1593 16.6143 46.8507 16.0984 46.4293 15.6132C45.4259 14.4539 42.9724 14.1304 41.8536 14.6939C41.402 14.922 41.3343 15.4668 41.3995 15.9963C39.5933 12.9642 45.0295 13.5754 46.0079 13.7627C47.4553 14.0385 47.7112 15.1399 47.513 16.7522H47.508Z" fill="url(#paint3_radial_70_35759)"/>
<path fill-rule="evenodd" clip-rule="evenodd" d="M7.33008 10.2488C8.08266 10.0292 9.02088 9.84704 9.63298 9.96962C10.4282 10.1297 10.5762 10.843 11.0328 10.94C11.3589 11.0081 11.8029 10.7698 12.563 10.78C13.8173 10.7987 13.7446 12.6714 13.7446 12.6901C15.8217 10.1228 11.4266 7.54363 8.92806 8.49019C8.28084 8.73705 7.59097 9.48272 7.33008 10.2488Z" fill="url(#paint4_radial_70_35759)"/>
<path fill-rule="evenodd" clip-rule="evenodd" d="M14.3768 13.3983C15.0266 13.6418 16.2006 13.429 16.9055 13.3762C17.6104 13.3234 17.7735 13.6469 18.348 14.1184C18.6164 14.3415 19.2586 14.4589 19.4869 14.7041C19.573 14.8032 19.6291 14.913 19.6519 15.027C19.6748 15.141 19.6639 15.2569 19.6198 15.368C19.4442 16.1767 20.3398 16.5019 21.3608 16.3078C23.2473 15.9486 23.0817 16.9496 24.5091 17.2339C25.658 17.4638 27.1432 17.1045 27.0729 16.095C27.0604 15.9043 27.0127 15.7221 26.9876 15.5536C26.8095 14.3789 29.3307 14.0367 31.1043 14.0214C33.362 13.9942 35.0503 14.3857 35.537 15.4174C35.6497 15.6873 35.6497 15.9732 35.537 16.2431C35.3764 16.6908 35.6097 17.1726 36.8891 17.4978C38.7957 17.9796 41.8587 17.474 41.3519 15.8141C41.1613 15.191 40.8251 14.8164 41.4222 14.4062C42.5711 13.6162 46.013 13.3677 46.9888 14.3398C47.2773 14.6258 47.2597 14.9271 47.1569 15.3731C47.1063 15.5328 47.0686 15.6942 47.044 15.8566C46.9135 17.062 48.8552 17.3173 50.0819 16.9956C51.3989 16.6551 51.3889 16.0814 51.0854 15.5383C50.6614 14.7637 50.2324 14.0895 51.6648 13.5481C52.6482 13.1753 54.1383 13.2281 55.1468 13.6128C55.9345 13.9125 56.509 14.6019 57.3042 14.8352C58.5435 15.1995 59.4039 14.6973 59.9282 13.9925C60.8614 12.7326 61.042 11.7452 63.3675 12.828C64.4613 13.3387 65.698 11.7401 65.8761 11.6261C66.8796 10.9451 67.7877 11.6465 67.8279 10.2062C67.8429 9.59504 67.7225 8.86809 68.2066 8.46121C69.0972 7.71213 71.947 9.32264 71.4102 6.60383C71.1367 5.21463 71.7714 5.04609 73.1963 4.7107C75.4189 4.18805 76.5703 0.00683594 70.6274 0.00683594H4.02127C-0.63472 0.00683594 -1.16404 3.30278 1.99681 4.14379C3.20095 4.46385 1.57788 5.73729 3.69264 6.14077C5.19781 6.43189 4.24202 7.37163 4.47281 8.57356C4.67099 9.61716 5.75973 10.3611 6.81084 10.3305C7.86195 10.2998 7.97986 9.7057 8.30096 9.30051C8.46152 9.09947 8.69506 8.92957 8.97944 8.80691C9.26382 8.68425 9.58963 8.61289 9.92601 8.59959C10.2624 8.58629 10.5982 8.63149 10.9017 8.73091C11.2051 8.83033 11.4661 8.98068 11.66 9.16772C12.0614 9.56609 12.0915 9.75166 12.4678 10.162C12.8441 10.5722 13.7497 10.1534 13.7948 11.3877C13.8224 12.176 13.401 13.0357 14.3768 13.4051V13.3983Z" fill="url(#paint5_radial_70_35759)"/>
<path style="mix-blend-mode:multiply" fill-rule="evenodd" clip-rule="evenodd" d="M10.8273 7.50095C9.68839 6.568 9.25942 6.45904 8.02016 6.09302C7.4783 6.69568 6.9841 7.21834 6.68809 7.80568C5.82011 9.52856 6.98912 10.041 8.82292 8.75395C9.50275 8.27556 10.1149 7.92486 10.8298 7.50095H10.8273Z" fill="url(#paint6_radial_70_35759)"/>
<path style="mix-blend-mode:multiply" fill-rule="evenodd" clip-rule="evenodd" d="M33.5227 12.5419C34.4571 12.1947 35.5047 12.0118 36.57 12.01C37.6353 12.0082 38.6843 12.1876 39.6211 12.5317C39.7265 15.5365 38.9438 18.1021 35.8958 14.9866C35.3565 14.4351 34.5262 13.4851 33.5227 12.5419Z" fill="url(#paint7_radial_70_35759)"/>
<path style="mix-blend-mode:multiply" opacity="0.75" fill-rule="evenodd" clip-rule="evenodd" d="M48.79 15.8923C48.8808 15.9328 48.9836 15.9595 49.0911 15.9704C49.1986 15.9814 49.3083 15.9765 49.4127 15.9559C49.5172 15.9354 49.6138 15.8997 49.696 15.8514C49.7781 15.8031 49.8439 15.7433 49.8887 15.6761C50.3077 14.5337 47.4805 13.1462 47.8818 12.5316C48.2832 11.9171 50.6413 12.0039 51.5118 12.106C53.3657 12.3239 55.0239 12.9573 56.3333 13.4288C59.4465 14.5524 56.9028 11.9903 56.5692 11.66C55.9144 11.0165 55.9972 10.7475 56.3333 10.2163C55.5808 10.3457 45.1098 12.0447 44.5278 12.4397C45.9051 13.136 47.6009 14.0383 47.1644 15.3662C47.0996 15.5239 47.0618 15.6861 47.0515 15.8497C47.0119 16.1021 47.0956 16.3563 47.2898 16.5732C47.3523 16.6388 47.4264 16.6988 47.5106 16.752C47.9442 17.0052 48.5046 17.1356 49.0759 17.1163C48.4563 17.0108 48.2055 16.7503 48.2581 16.2651C48.3008 15.8752 48.4638 15.7544 48.7925 15.8923H48.79Z" fill="url(#paint8_radial_70_35759)"/>
<path style="mix-blend-mode:multiply" fill-rule="evenodd" clip-rule="evenodd" d="M65.2866 7.35113C65.7285 6.64256 66.4888 6.04676 67.4591 5.64868C68.0009 6.28029 71.1191 7.31878 70.8231 7.66778C70.6776 7.83803 69.5964 7.72567 68.159 7.51116C67.2244 7.33756 66.2514 7.27989 65.2866 7.34092V7.35113Z" fill="url(#paint9_radial_70_35759)"/>
<path style="mix-blend-mode:multiply" fill-rule="evenodd" clip-rule="evenodd" d="M71.4077 0.357422L69.5137 3.84234C70.5171 3.8883 72.1778 4.0313 73.0257 3.55121C73.7783 3.1239 73.2415 2.74255 73.3092 2.29481C73.3368 2.10583 73.545 1.95432 73.6253 1.77045C73.974 0.987326 73.0207 0.578736 72.0398 0.432325C71.8818 0.408491 71.4077 0.357422 71.4077 0.357422Z" fill="url(#paint10_radial_70_35759)"/>
<path style="mix-blend-mode:multiply" fill-rule="evenodd" clip-rule="evenodd" d="M57.2239 10.1925C58.7591 8.19208 60.7134 7.99459 63.7463 7.53833C63.9945 7.86734 64.2966 8.17631 64.6469 8.45936C65.0081 8.76069 68.1589 11.105 65.5173 10.3082C64.4863 9.99667 63.7212 9.68853 62.6951 9.36507C61.3731 8.94797 61.1474 9.82473 61.9928 10.5874C63.089 11.5748 65.7356 13.7114 61.6516 11.5459C60.5327 10.9535 59.3562 10.3661 57.2314 10.1925H57.2239Z" fill="url(#paint11_radial_70_35759)"/>
<path style="mix-blend-mode:multiply" fill-rule="evenodd" clip-rule="evenodd" d="M29.0624 12.2337C27.507 12.9147 27.3766 13.405 26.3029 14.91C25.6908 15.7612 25.3898 15.6744 25.2995 15.3254C25.164 14.8266 25.6356 13.1888 24.5996 13.0441C23.6814 12.9164 22.2415 14.469 21.9279 14.7465C20.6083 15.9212 20.1869 15.7391 20.5431 14.372C20.6886 13.8187 21.085 13.0883 21.1954 12.4023C21.2932 11.7945 20.9721 11.1748 20.2822 11.551C20.059 11.6753 19.6501 11.975 19.3566 11.8422C19.1308 11.7417 19.0856 11.534 18.604 11.5289C17.7912 11.5187 16.8304 12.1077 15.9473 12.4363C15.3779 12.6474 14.7959 12.5078 14.8937 11.9698C14.9564 11.6294 15.1446 11.3076 15.1948 10.9688C15.3277 10.2708 15.1044 10.0478 14.4773 9.58471C16.5293 9.55917 27.4845 11.5987 29.0774 12.2269L29.0624 12.2337Z" fill="url(#paint12_radial_70_35759)"/>
<path style="mix-blend-mode:screen" fill-rule="evenodd" clip-rule="evenodd" d="M27.7403 14.5577C28.2845 14.3332 28.8891 14.1844 29.5189 14.1202C30.0424 14.0561 30.5726 14.0208 31.1044 14.0146C32.2734 14.001 33.2919 14.0997 34.067 14.3415C34.3685 14.4317 34.6458 14.5554 34.8873 14.7075C35.002 14.7802 35.1054 14.8606 35.1959 14.9476C35.1332 14.8624 35.0655 14.7773 34.9952 14.7041C34.8879 14.5822 34.768 14.4656 34.6365 14.3551C34.4301 14.1767 34.1868 14.0196 33.914 13.8886C33.4513 13.6716 32.9156 13.5369 32.3562 13.4971C32.1583 13.4946 31.9618 13.4745 31.7716 13.4375C31.4405 13.3473 31.137 13.2196 30.8234 13.1191C29.677 12.7531 28.7463 13.1191 27.9485 13.7082C27.8405 13.7901 27.7392 13.8759 27.645 13.9652L27.6224 13.9874C27.4598 14.1459 27.3266 14.3174 27.226 14.4981C27.0794 14.7582 26.9997 15.0335 26.9902 15.3119C27.0261 15.1566 27.1122 15.0085 27.2423 14.8784C27.3724 14.7483 27.5433 14.6394 27.7428 14.5594L27.7403 14.5577Z" fill="url(#paint13_radial_70_35759)"/>
<path style="mix-blend-mode:screen" fill-rule="evenodd" clip-rule="evenodd" d="M49.4498 13.6078C50.0167 14.0885 50.4874 14.618 50.8496 15.1825L51.1557 15.6456C51.1381 15.6064 51.118 15.569 51.098 15.5298C51.0277 15.4038 50.96 15.2796 50.8973 15.1587C50.6238 14.6156 50.5084 14.1372 51.2861 13.7133C51.4025 13.6503 51.5258 13.5934 51.6549 13.5431H51.6775C52.3661 13.3077 53.1485 13.23 53.9076 13.3217C54.3474 13.3658 54.7721 13.4627 55.1619 13.6078C55.2499 13.6412 55.3338 13.6793 55.4128 13.7218C54.997 13.5139 54.5525 13.3338 54.0857 13.1838C53.8349 13.1021 53.584 13.0136 53.303 12.9404C53.1575 12.8978 53.0095 12.857 52.8565 12.8161C52.6633 12.765 52.4677 12.7157 52.272 12.6697C50.8722 12.3394 49.4072 12.159 48.6395 12.4058C48.2206 12.5454 48.6395 12.8859 49.0911 13.2928L49.2341 13.4205C49.3093 13.4869 49.3796 13.5516 49.4448 13.6112L49.4498 13.6078Z" fill="url(#paint14_radial_70_35759)"/>
<path style="mix-blend-mode:screen" fill-rule="evenodd" clip-rule="evenodd" d="M16.9056 13.3762C17.6181 13.3217 17.7736 13.6469 18.3481 14.1184C18.6165 14.3415 19.2587 14.4589 19.487 14.7041C19.5731 14.8032 19.6293 14.913 19.6521 15.027C19.6749 15.141 19.664 15.2569 19.62 15.368C19.5823 15.5168 19.59 15.6692 19.6426 15.8158C19.6727 15.4519 19.7835 15.0932 19.9712 14.7518C20.2622 14.0469 19.6225 14.0708 19.0003 14.0469C18.5312 14.0265 18.4183 13.8188 18.5513 13.5175C18.6203 13.3834 18.7042 13.2531 18.8022 13.1276C18.8565 13.0516 18.8977 12.9717 18.9251 12.8893C18.9512 12.8138 18.968 12.7369 18.9753 12.6594C19.0054 12.2594 18.6165 12.319 18.2026 12.4892C17.874 12.6169 17.5278 12.8059 17.3547 12.8757L17.2594 12.9165C16.3111 13.2996 15.7166 13.4851 14.668 13.4783C15.3353 13.5924 16.2961 13.4272 16.9056 13.3813V13.3762Z" fill="url(#paint15_radial_70_35759)"/>
<path style="mix-blend-mode:screen" fill-rule="evenodd" clip-rule="evenodd" d="M63.0366 12.6628C61.8626 12.1163 60.5279 11.3927 59.1833 10.9875L59.0002 10.9348C58.7996 10.8781 58.5944 10.8293 58.3856 10.7884C57.4976 10.6181 56.5719 10.6181 57.4449 11.3706L57.5653 11.4727C58.1272 11.9324 58.8196 12.3801 59.3088 12.8483C59.5384 13.0401 59.6952 13.2672 59.7652 13.5098C59.8352 13.7523 59.8163 14.0028 59.7102 14.2392C59.7879 14.1558 59.8632 14.069 59.9309 13.977C60.8139 12.7853 61.0247 11.8337 63.0215 12.6576L63.1996 12.7343L63.0265 12.6542L63.0366 12.6628Z" fill="url(#paint16_radial_70_35759)"/>
<path style="mix-blend-mode:screen" fill-rule="evenodd" clip-rule="evenodd" d="M46.5524 13.6929C46.3492 13.5095 46.1226 13.3385 45.8751 13.1821C45.587 12.9908 45.2431 12.8424 44.8656 12.7465C44.488 12.6507 44.085 12.6094 43.6826 12.6254C42.7544 12.6561 41.7685 12.8468 41.3295 13.1821C40.8278 13.572 40.7074 13.9023 40.7726 14.2615C40.8001 14.3911 40.8421 14.5192 40.898 14.6446C40.9582 14.7807 41.031 14.9238 41.1062 15.077C41.065 14.9292 41.0885 14.7765 41.174 14.6377C41.2368 14.5481 41.3216 14.4663 41.4248 14.396C41.5357 14.3208 41.6576 14.2535 41.7886 14.1951C42.4218 13.9357 43.1322 13.7752 43.8682 13.7252C44.4981 13.6683 45.1381 13.6926 45.7547 13.7967C46.0992 13.8537 46.4212 13.9612 46.6979 14.1117C46.8098 14.175 46.9086 14.2483 46.9914 14.3296C47.0897 14.4255 47.1588 14.5337 47.1947 14.648C47.144 14.4491 47.0484 14.2567 46.9112 14.0776C46.8532 13.9997 46.7887 13.9241 46.718 13.8512C46.6653 13.795 46.6101 13.7422 46.5499 13.681L46.5524 13.6929Z" fill="url(#paint17_radial_70_35759)"/>
<path style="mix-blend-mode:screen" fill-rule="evenodd" clip-rule="evenodd" d="M67.6774 7.87202C67.3664 7.81924 67.0478 7.76987 66.7492 7.73412C66.6113 7.7188 66.4783 7.70518 66.3504 7.69497C65.4272 7.62006 64.8151 7.7239 65.4021 8.29763C65.4346 8.33071 65.4698 8.36254 65.5075 8.39297L65.5326 8.4168C65.9013 8.73176 66.3328 9.00755 66.7392 9.30037C66.8596 9.3872 66.9901 9.47062 67.0929 9.56936C67.7326 10.0801 67.7803 10.3099 67.7652 10.6862C67.8071 10.5254 67.8289 10.3625 67.8305 10.1993C67.8455 9.58808 67.7251 8.86114 68.2093 8.45425C68.5053 8.20569 69.017 8.21761 69.5489 8.24315C69.3181 8.19718 68.5254 8.01672 67.6774 7.87202Z" fill="url(#paint18_radial_70_35759)"/>
<path style="mix-blend-mode:screen" fill-rule="evenodd" clip-rule="evenodd" d="M67.0051 11.2329C66.5536 11.1665 66.1748 11.003 65.5275 10.7511L65.4673 10.7273C61.5263 9.19505 62.6075 9.92199 64.6621 11.4542L64.8602 11.6006C65.0955 11.7522 65.2574 11.9487 65.3244 12.1641C65.6129 11.9019 65.8261 11.6619 65.8788 11.6193C66.1868 11.4151 66.5801 11.2802 67.0051 11.2329Z" fill="url(#paint19_radial_70_35759)"/>
<path style="mix-blend-mode:screen" fill-rule="evenodd" clip-rule="evenodd" d="M23.0768 14.5219C22.0934 15.4225 21.6644 16.301 20.4578 16.3367C20.7577 16.3775 21.0679 16.3675 21.3609 16.3078C22.866 16.0184 23.0667 16.6057 23.8218 16.9888C24.0275 17.0957 24.2605 17.1759 24.5092 17.2254C25.0935 17.3446 25.7232 17.3049 26.2652 17.1148L26.3982 17.0586L26.1849 17.1131C25.6205 17.2407 25.2141 17.2084 24.9306 17.0654C24.3486 16.7794 24.2458 16.0439 24.2809 15.317C24.3035 14.8573 24.3712 14.2138 24.1329 14.0248C24.1037 14 24.0634 13.9825 24.018 13.9748C23.9727 13.9671 23.9249 13.9697 23.882 13.9823C23.6989 14.0214 23.4405 14.1814 23.0793 14.5134L23.0768 14.5219Z" fill="url(#paint20_radial_70_35759)"/>
<path style="mix-blend-mode:screen" fill-rule="evenodd" clip-rule="evenodd" d="M73.8309 4.44336C73.0307 4.74299 71.4001 4.49103 70.3766 4.59318C69.7444 4.65617 69.6892 4.84003 69.9376 5.14647C70.0936 5.3244 70.2671 5.49503 70.4569 5.65721C70.5998 5.78659 70.7353 5.90066 70.8632 6.02324C71.0849 6.23213 71.2749 6.45573 71.4302 6.69059C71.4302 6.66165 71.4176 6.63101 71.4126 6.60037C71.1392 5.21117 71.7739 5.04262 73.1988 4.70724C73.4328 4.64969 73.6477 4.56116 73.8309 4.44677V4.44336Z" fill="url(#paint21_radial_70_35759)"/>
<path style="mix-blend-mode:screen" fill-rule="evenodd" clip-rule="evenodd" d="M3.69282 6.13403C4.94713 6.37407 4.50812 7.05166 4.4454 7.95225C4.43018 8.13671 4.43606 8.3217 4.46297 8.50555C4.47338 8.37505 4.49854 8.24527 4.53822 8.11738C4.69626 7.62027 5.03994 7.31553 5.30586 6.98015C5.32843 6.95121 5.35101 6.92226 5.37108 6.89162L5.38362 6.87289V6.85757C5.68716 6.41323 5.51407 6.23107 5.08761 6.14424C4.92363 6.11299 4.75562 6.09247 4.58589 6.08295H4.49056H4.38018C4.05155 6.05742 3.77812 6.03699 3.54482 6.00634C3.27656 5.97952 3.01991 5.91391 2.79224 5.81396C3.00953 5.96541 3.28362 6.07372 3.58495 6.12722L3.66774 6.14255L3.69282 6.13403Z" fill="url(#paint22_radial_70_35759)"/>
<path style="mix-blend-mode:multiply" fill-rule="evenodd" clip-rule="evenodd" d="M4.69116 0.585693C7.45064 1.69569 6.73067 3.93441 7.33023 5.41043C6.54754 5.33552 4.14679 5.77135 3.70277 5.55003C3.18098 5.28956 3.58236 4.52857 3.31394 3.90036C2.98029 3.12234 2.13489 3.06956 1.61811 2.43966C1.2067 1.93914 1.51025 1.19346 2.91005 0.772959C3.52717 0.585689 4.69116 0.585693 4.69116 0.585693Z" fill="url(#paint23_radial_70_35759)"/>
<path style="mix-blend-mode:multiply" opacity="0.7" fill-rule="evenodd" clip-rule="evenodd" d="M4.02132 0L71.2697 0.796745C72.1176 1.01977 72.9154 1.50837 72.6946 1.93909C72.5672 2.10062 72.518 2.28528 72.5541 2.46685C72.5917 2.96567 72.7799 3.3351 71.8617 3.49683C71.2948 3.59727 69.8975 3.473 69.5187 3.67729C68.9518 3.98373 68.588 4.43659 68.1992 4.85369C67.9209 5.1471 67.6992 5.46349 67.5394 5.79513C67.498 5.86292 67.4782 5.93587 67.4812 6.00922C67.4842 6.08256 67.51 6.15464 67.5569 6.22075C67.7902 6.4642 69.8448 7.31031 67.4014 7.06005C66.551 6.97323 65.4347 6.82511 64.7699 7.00557C64.362 7.11722 64.0077 7.30345 63.7464 7.54355C63.2672 7.9913 63.7915 8.40839 64.3309 8.79485C65.4823 9.61543 65.1612 9.64608 63.8793 9.30558C63.4554 9.19322 63.0389 9.07065 62.6075 8.97531C61.9653 8.8323 60.8514 8.97531 61.0421 9.57458C61.3105 10.3969 61.9502 10.9008 60.2895 10.4258C59.9333 10.3254 59.5971 10.1926 59.2334 10.1109C58.0192 9.83846 55.5909 9.60011 55.0139 10.6403C54.8282 10.9808 55.0716 11.3213 55.473 11.7486C56.2256 12.5419 55.6034 12.4994 54.5649 12.2185C54.0406 12.0772 53.5438 11.878 53.0145 11.7486C49.1763 10.7663 43.0829 10.9672 39.5207 12.1691C39.0993 12.3121 39.0441 12.5726 38.4846 13.463C37.5163 14.9952 36.3774 13.6247 35.6474 13.1378C34.1422 12.1317 29.1601 11.8388 27.4994 12.5385C26.9024 12.7905 26.2451 13.0493 26.0319 12.7684C25.6456 12.2713 25.9215 11.3724 24.1203 12.1623C23.8395 12.2933 23.5797 12.444 23.3452 12.6117C21.7748 13.6673 21.9805 13.9482 21.9955 12.2185C21.9955 11.4813 21.7597 10.7646 20.0463 10.7169C18.7795 10.6812 18.0068 10.8787 16.9281 11.2498C15.9774 11.5767 15.9924 11.3945 16.0677 10.7663C16.113 10.5577 16.0973 10.3451 16.0216 10.1406C15.9458 9.93616 15.8115 9.74381 15.6262 9.57458C14.2339 8.25858 11.4669 7.2303 9.10377 8.04237C8.07022 8.39818 8.02506 8.28753 8.03259 7.90788C8.03259 7.63889 8.03259 7.10092 7.84946 6.88641C7.71902 6.73319 7.39791 6.75191 7.20726 6.65998C6.90121 6.51187 6.70554 6.28544 6.38193 6.14925C5.89526 5.93133 6.07588 5.82919 6.00313 5.48359C5.96299 5.29803 5.79241 5.1431 4.93697 4.87241C4.18438 4.63917 4.217 4.47744 4.12167 3.94117C4.1016 3.8237 3.87081 3.77093 3.77548 3.67219C3.55221 3.41682 3.43933 2.93843 3.27376 2.78691C3.0229 2.54686 2.37567 2.35619 2.27031 2.04634C2.12983 1.65137 2.54877 1.3228 2.6165 0.99423C2.66918 0.733755 2.65162 0.600962 2.89244 0.396668C3.13327 0.192375 4.02132 0 4.02132 0Z" fill="url(#paint24_radial_70_35759)"/>
<defs>
<radialGradient id="paint0_radial_70_35759" cx="0" cy="0" r="1" gradientUnits="userSpaceOnUse" gradientTransform="translate(42.9651 -39.2244) scale(86.5321 58.7243)">
<stop offset="0.73" stop-color="#6E2A08"/>
<stop offset="0.82" stop-color="#6F2C0A"/>
<stop offset="0.86" stop-color="#733211"/>
<stop offset="0.88" stop-color="#7A3C1D"/>
<stop offset="0.9" stop-color="#844B2E"/>
<stop offset="0.92" stop-color="#925E45"/>
<stop offset="0.94" stop-color="#A27660"/>
<stop offset="0.95" stop-color="#B59381"/>
<stop offset="0.96" stop-color="#CCB4A8"/>
<stop offset="0.97" stop-color="#E4D8D2"/>
<stop offset="0.99" stop-color="white"/>
</radialGradient>
<radialGradient id="paint1_radial_70_35759" cx="0" cy="0" r="1" gradientUnits="userSpaceOnUse" gradientTransform="translate(52.3699 13.8936) scale(8.60956 5.84281)">
<stop stop-color="#678700"/>
<stop offset="1" stop-color="#98BF09"/>
</radialGradient>
<radialGradient id="paint2_radial_70_35759" cx="0" cy="0" r="1" gradientUnits="userSpaceOnUse" gradientTransform="translate(28.5305 13.635) scale(8.95073 6.07434)">
<stop stop-color="#779908"/>
<stop offset="1" stop-color="#98BF09"/>
</radialGradient>
<radialGradient id="paint3_radial_70_35759" cx="0" cy="0" r="1" gradientUnits="userSpaceOnUse" gradientTransform="translate(42.8746 15.5877) scale(4.55062 3.08824)">
<stop stop-color="#678700"/>
<stop offset="1" stop-color="#98BF09"/>
</radialGradient>
<radialGradient id="paint4_radial_70_35759" cx="0" cy="0" r="1" gradientUnits="userSpaceOnUse" gradientTransform="translate(9.30937 8.60255) scale(6.91123 4.69025)">
<stop stop-color="#779908"/>
<stop offset="1" stop-color="#98BF09"/>
</radialGradient>
<radialGradient id="paint5_radial_70_35759" cx="0" cy="0" r="1" gradientUnits="userSpaceOnUse" gradientTransform="translate(17.5502 13.8682) scale(48.1955 32.7075)">
<stop stop-color="#B3D100"/>
<stop offset="1" stop-color="#8EB309"/>
</radialGradient>
<radialGradient id="paint6_radial_70_35759" cx="0" cy="0" r="1" gradientUnits="userSpaceOnUse" gradientTransform="translate(13.4287 5.11922) scale(9.26431 6.28715)">
<stop stop-color="#779908"/>
<stop offset="1" stop-color="white"/>
</radialGradient>
<radialGradient id="paint7_radial_70_35759" cx="0" cy="0" r="1" gradientUnits="userSpaceOnUse" gradientTransform="translate(36.6484 12.1725) scale(6.40449 4.34635)">
<stop stop-color="#779908"/>
<stop offset="1" stop-color="white"/>
</radialGradient>
<radialGradient id="paint8_radial_70_35759" cx="0" cy="0" r="1" gradientUnits="userSpaceOnUse" gradientTransform="translate(45.2704 11.9239) scale(13.5314 9.18301)">
<stop stop-color="#779908"/>
<stop offset="1" stop-color="white"/>
</radialGradient>
<radialGradient id="paint9_radial_70_35759" cx="0" cy="0" r="1" gradientUnits="userSpaceOnUse" gradientTransform="translate(66.2449 5.73721) scale(4.49041 3.04738)">
<stop stop-color="#779908"/>
<stop offset="1" stop-color="white"/>
</radialGradient>
<radialGradient id="paint10_radial_70_35759" cx="0" cy="0" r="1" gradientUnits="userSpaceOnUse" gradientTransform="translate(69.6792 2.12797) scale(4.23705 2.87544)">
<stop stop-color="#779908"/>
<stop offset="1" stop-color="white"/>
</radialGradient>
<radialGradient id="paint11_radial_70_35759" cx="0" cy="0" r="1" gradientUnits="userSpaceOnUse" gradientTransform="translate(60.6406 8.77601) scale(6.3518 4.31061)">
<stop stop-color="#779908"/>
<stop offset="1" stop-color="white"/>
</radialGradient>
<radialGradient id="paint12_radial_70_35759" cx="0" cy="0" r="1" gradientUnits="userSpaceOnUse" gradientTransform="translate(23.7717 8.12911) scale(11.349 7.70189)">
<stop stop-color="#779908"/>
<stop offset="1" stop-color="white"/>
</radialGradient>
<radialGradient id="paint13_radial_70_35759" cx="0" cy="0" r="1" gradientUnits="userSpaceOnUse" gradientTransform="translate(30.3794 15.0123) scale(4.57822 3.10697)">
<stop stop-color="#A9C500"/>
<stop offset="1"/>
</radialGradient>
<radialGradient id="paint14_radial_70_35759" cx="0" cy="0" r="1" gradientUnits="userSpaceOnUse" gradientTransform="translate(51.4442 14.7416) scale(4.23706 2.87543)">
<stop stop-color="#A9C500"/>
<stop offset="1"/>
</radialGradient>
<radialGradient id="paint15_radial_70_35759" cx="0" cy="0" r="1" gradientUnits="userSpaceOnUse" gradientTransform="translate(16.6774 14.4504) scale(3.82815 2.59794)">
<stop stop-color="#A9C500"/>
<stop offset="1"/>
</radialGradient>
<radialGradient id="paint16_radial_70_35759" cx="0" cy="0" r="1" gradientUnits="userSpaceOnUse" gradientTransform="translate(61.3282 13.4169) scale(4.81903 3.27041)">
<stop stop-color="#A9C500"/>
<stop offset="1"/>
</radialGradient>
<radialGradient id="paint17_radial_70_35759" cx="0" cy="0" r="1" gradientUnits="userSpaceOnUse" gradientTransform="translate(43.2637 14.9425) scale(4.83912 3.28403)">
<stop stop-color="#A9C500"/>
<stop offset="1"/>
</radialGradient>
<radialGradient id="paint18_radial_70_35759" cx="0" cy="0" r="1" gradientUnits="userSpaceOnUse" gradientTransform="translate(67.3262 9.78557) scale(3.12574 2.12125)">
<stop stop-color="#A9C500"/>
<stop offset="1"/>
</radialGradient>
<radialGradient id="paint19_radial_70_35759" cx="0" cy="0" r="1" gradientUnits="userSpaceOnUse" gradientTransform="translate(65.8386 11.9905) scale(3.86326 2.62178)">
<stop stop-color="#A9C500"/>
<stop offset="1"/>
</radialGradient>
<radialGradient id="paint20_radial_70_35759" cx="0" cy="0" r="1" gradientUnits="userSpaceOnUse" gradientTransform="translate(22.5951 16.9632) scale(4.52804 3.07292)">
<stop stop-color="#A9C500"/>
<stop offset="1"/>
</radialGradient>
<radialGradient id="paint21_radial_70_35759" cx="0" cy="0" r="1" gradientUnits="userSpaceOnUse" gradientTransform="translate(71.8165 5.56527) scale(1.84383 1.2513)">
<stop stop-color="#A9C500"/>
<stop offset="1"/>
</radialGradient>
<radialGradient id="paint22_radial_70_35759" cx="0" cy="0" r="1" gradientUnits="userSpaceOnUse" gradientTransform="translate(3.77812 7.16912) scale(2.4208 1.64287)">
<stop stop-color="#A9C500"/>
<stop offset="1"/>
</radialGradient>
<radialGradient id="paint23_radial_70_35759" cx="0" cy="0" r="1" gradientUnits="userSpaceOnUse" gradientTransform="translate(8.23835 0.493761) scale(8.89053 6.03348)">
<stop stop-color="#779908"/>
<stop offset="1" stop-color="white"/>
</radialGradient>
<radialGradient id="paint24_radial_70_35759" cx="0" cy="0" r="1" gradientUnits="userSpaceOnUse" gradientTransform="translate(43.4843 -12.3598) scale(58.3729 39.6143)">
<stop stop-color="#779908"/>
<stop offset="1" stop-color="white"/>
</radialGradient>
</defs>
</svg>
