<svg width="36" height="37" viewBox="0 0 36 37" fill="none" xmlns="http://www.w3.org/2000/svg">
<g clip-path="url(#clip0_68_1025)">
<path d="M23.2499 11.5205L28.4999 6.27051M31.4999 3.27051L28.4999 6.27051L31.4999 3.27051ZM17.0849 17.6855C17.8594 18.4497 18.4751 19.3596 18.8966 20.3627C19.318 21.3658 19.5368 22.4424 19.5405 23.5305C19.5441 24.6185 19.3325 25.6965 18.9178 26.7025C18.5031 27.7084 17.8935 28.6223 17.1241 29.3917C16.3548 30.1611 15.4408 30.7707 14.4349 31.1854C13.4289 31.6001 12.3509 31.8117 11.2629 31.808C10.1748 31.8044 9.09824 31.5856 8.09511 31.1641C7.09198 30.7427 6.18212 30.127 5.41792 29.3525C3.91512 27.7965 3.08357 25.7126 3.10236 23.5494C3.12116 21.3863 3.9888 19.3171 5.51842 17.7875C7.04804 16.2579 9.11724 15.3902 11.2804 15.3714C13.4435 15.3526 15.5275 16.1842 17.0834 17.687L17.0849 17.6855ZM17.0849 17.6855L23.2499 11.5205L17.0849 17.6855ZM23.2499 11.5205L27.7499 16.0205L32.9999 10.7705L28.4999 6.27051L23.2499 11.5205Z" stroke="black" stroke-width="2" stroke-linecap="round" stroke-linejoin="round"/>
</g>
<defs>
<clipPath id="clip0_68_1025">
<rect width="36" height="36" fill="white" transform="translate(0 0.270508)"/>
</clipPath>
</defs>
</svg>

