<svg width="841" height="521" viewBox="0 0 841 521" fill="none" xmlns="http://www.w3.org/2000/svg">
<g clip-path="url(#clip0_68_925)">
<path d="M587.411 512.511C576.273 503.1 569.507 488.232 571.281 473.758C573.056 459.284 584.045 445.978 598.3 442.904C612.554 439.83 628.804 448.339 633.133 462.264C635.516 435.417 638.262 407.446 652.535 384.584C665.459 363.883 687.844 349.07 712.104 346.42C736.364 343.77 761.907 353.779 777.037 372.927C792.167 392.075 795.871 419.912 785.275 441.896C777.468 458.091 763.087 470.143 748.018 479.948C699.326 511.365 640.926 524.141 583.564 515.925L587.411 512.511Z" fill="#F2F2F2"/>
<path d="M802.728 356.079C782.71 372.383 764.346 390.619 747.901 410.521C722.165 441.562 701.34 476.364 686.149 513.715C685.037 516.44 689.462 517.626 690.562 514.931C715.416 454.228 755.092 400.724 805.963 359.314C808.248 357.454 804.993 354.234 802.728 356.079Z" fill="white"/>
<path d="M251.067 511.699C266.366 498.772 275.658 478.351 273.221 458.471C270.784 438.591 255.69 420.315 236.112 416.094C216.533 411.872 194.214 423.558 188.267 442.684C184.995 405.81 181.223 367.392 161.619 335.991C143.868 307.558 113.122 287.213 79.8012 283.573C46.4801 279.933 11.3972 293.68 -9.38394 319.98C-30.1651 346.28 -35.2533 384.515 -20.6987 414.709C-9.97684 436.952 9.77659 453.506 30.4733 466.973C96.5028 509.939 178.412 527.858 256.351 516.388" fill="#F2F2F2"/>
<path d="M23.5666 294.442C51.0607 316.836 76.2836 341.883 98.8705 369.219C121.461 396.527 141.349 425.961 158.257 457.109C167.707 474.582 176.196 492.557 183.687 510.956C185.214 514.698 179.137 516.327 177.627 512.626C164.359 480.191 147.944 449.133 128.618 419.899C109.385 390.772 87.3725 363.578 62.8889 338.701C49.0409 324.637 34.4301 311.346 19.1226 298.886C15.985 296.331 20.455 291.908 23.5666 294.442L23.5666 294.442Z" fill="white"/>
<path d="M595.5 519H230.5V144.5C230.5 64.8223 295.322 0 375 0H451C530.678 0 595.5 64.8223 595.5 144.5V519Z" fill="#F2F2F2"/>
<path d="M519.5 519H230.5V144.5C230.42 113.969 240.088 84.2103 258.096 59.5557C258.76 58.6509 259.422 57.7578 260.104 56.8745C268.815 45.4506 279.18 35.3897 290.859 27.0239C291.518 26.5439 292.181 26.0723 292.853 25.6006C302.625 18.838 313.196 13.3097 324.325 9.1416C324.986 8.89111 325.659 8.64013 326.332 8.3994C336.397 4.80748 346.83 2.34702 357.44 1.06348C358.098 0.973628 358.773 0.903319 359.448 0.833009C369.787 -0.272461 380.215 -0.272461 390.554 0.833009C391.227 0.903319 391.902 0.973619 392.568 1.06444C403.175 2.34807 413.606 4.80822 423.668 8.39945C424.341 8.64018 425.014 8.89114 425.677 9.14212C436.669 13.2577 447.115 18.7035 456.783 25.3579C457.455 25.8194 458.127 26.2911 458.79 26.7627C465.336 31.4355 471.485 36.6412 477.173 42.3267C481.735 46.8871 485.986 51.7483 489.898 56.8775C490.578 57.7579 491.24 58.6509 491.903 59.5543C509.911 84.2091 519.58 113.969 519.5 144.5V519Z" fill="#CCCCCC"/>
<path d="M496 351.5C504.837 351.5 512 344.337 512 335.5C512 326.663 504.837 319.5 496 319.5C487.163 319.5 480 326.663 480 335.5C480 344.337 487.163 351.5 496 351.5Z" fill="#E94438"/>
<path d="M565.599 507.783H553.339L547.506 460.495L565.601 460.496L565.599 507.783Z" fill="#FFB8B8"/>
<path d="M544.582 504.28H568.226V519.167H529.695C529.695 517.212 530.08 515.276 530.828 513.47C531.576 511.664 532.673 510.022 534.055 508.64C535.437 507.258 537.079 506.161 538.885 505.413C540.691 504.665 542.627 504.28 544.582 504.28Z" fill="#2F2E41"/>
<path d="M626.599 507.783H614.339L608.506 460.495L626.601 460.496L626.599 507.783Z" fill="#FFB8B8"/>
<path d="M605.582 504.28H629.226V519.167H590.695C590.695 517.212 591.08 515.276 591.828 513.47C592.576 511.664 593.673 510.022 595.055 508.64C596.437 507.258 598.079 506.161 599.885 505.413C601.691 504.665 603.627 504.28 605.582 504.28Z" fill="#2F2E41"/>
<path d="M504.098 338.67C503.216 337.37 502.629 335.893 502.38 334.343C502.131 332.792 502.224 331.206 502.654 329.695C503.084 328.185 503.84 326.787 504.869 325.6C505.898 324.413 507.174 323.467 508.608 322.827L550.284 207.96L570.791 219.151L523.206 328.922C524.122 331.403 524.096 334.133 523.133 336.595C522.17 339.058 520.337 341.082 517.982 342.283C515.626 343.485 512.912 343.781 510.353 343.115C507.794 342.449 505.568 340.867 504.098 338.67Z" fill="#FFB8B8"/>
<path d="M620.336 360.254C618.974 359.472 617.799 358.402 616.895 357.118C615.991 355.834 615.38 354.367 615.104 352.821C614.828 351.275 614.895 349.687 615.299 348.169C615.703 346.652 616.435 345.241 617.443 344.037L604.533 222.528L627.87 223.594L633.236 343.114C635.147 344.942 636.32 347.408 636.535 350.043C636.749 352.678 635.989 355.301 634.399 357.414C632.809 359.526 630.499 360.982 627.907 361.506C625.316 362.029 622.622 361.584 620.336 360.254Z" fill="#FFB8B8"/>
<path d="M583.106 186.684C596.671 186.684 607.667 175.687 607.667 162.123C607.667 148.558 596.671 137.562 583.106 137.562C569.541 137.562 558.545 148.558 558.545 162.123C558.545 175.687 569.541 186.684 583.106 186.684Z" fill="#FFB8B8"/>
<path d="M620.18 332.619H546.133L546.222 332.043C546.355 331.181 559.419 245.604 549.784 217.607C548.817 214.855 548.902 211.844 550.022 209.151C551.143 206.459 553.22 204.276 555.853 203.023H555.853C569.625 196.538 596.061 188.552 618.373 207.932C621.657 210.831 624.221 214.454 625.862 218.515C627.504 222.575 628.179 226.962 627.833 231.328L620.18 332.619Z" fill="#E94438"/>
<path d="M560.354 258.25L527.018 251.487L542.644 214.457C543.579 210.871 545.898 207.802 549.093 205.923C552.288 204.044 556.098 203.51 559.687 204.436C563.276 205.363 566.351 207.675 568.237 210.865C570.123 214.056 570.667 217.864 569.75 221.455L560.354 258.25Z" fill="#E94438"/>
<path d="M603.05 270.808L601.046 224.867C599.526 216.23 604.47 208.066 612.073 206.732C619.679 205.402 627.105 211.392 628.632 220.092L636.165 263.019L603.05 270.808Z" fill="#E94438"/>
<path d="M617.716 327.119C629.63 372.495 630.93 430.188 627.716 493.119L611.716 491.119L582.716 371.119L566.716 493.119L548.716 492.119C543.338 426.089 538.103 369.403 546.716 332.119L617.716 327.119Z" fill="#2F2E41"/>
<path d="M599.289 181.104C594.707 185.985 586.198 183.365 585.601 176.697C585.554 176.179 585.557 175.658 585.611 175.141C585.919 172.188 587.625 169.506 587.217 166.388C587.124 165.611 586.835 164.872 586.377 164.239C582.725 159.349 574.154 166.425 570.708 161.999C568.595 159.285 571.079 155.012 569.458 151.979C567.318 147.975 560.979 149.95 557.004 147.758C552.581 145.318 552.846 138.532 555.757 134.405C559.307 129.371 565.533 126.685 571.68 126.298C577.828 125.911 583.933 127.573 589.673 129.81C596.194 132.351 602.66 135.863 606.673 141.597C611.553 148.57 612.023 157.945 609.582 166.099C608.098 171.059 603.031 177.118 599.289 181.104Z" fill="#2F2E41"/>
<path d="M789.847 520H73.1525C72.8465 519.999 72.5534 519.84 72.3374 519.559C72.1213 519.278 72 518.897 72 518.5C72 518.103 72.1213 517.722 72.3374 517.441C72.5534 517.16 72.8465 517.001 73.1525 517H789.847C790.153 517.001 790.447 517.16 790.663 517.441C790.879 517.722 791 518.103 791 518.5C791 518.897 790.879 519.278 790.663 519.559C790.447 519.84 790.153 519.999 789.847 520Z" fill="#3F3D56"/>
<path d="M440 410.5H310C308.288 410.509 306.642 409.839 305.424 408.636C304.205 407.434 303.513 405.797 303.5 404.085V113.915C303.513 112.203 304.205 110.566 305.424 109.364C306.642 108.161 308.288 107.491 310 107.5H440C441.712 107.491 443.358 108.161 444.576 109.364C445.795 110.566 446.487 112.203 446.5 113.915V404.085C446.487 405.797 445.795 407.434 444.576 408.636C443.358 409.839 441.712 410.509 440 410.5Z" fill="white"/>
<path d="M446.5 201.39H303.5V203.39H446.5V201.39Z" fill="#CCCCCC"/>
<path d="M447 315.5H304V317.5H447V315.5Z" fill="#CCCCCC"/>
<path d="M350.5 107.5H348.5V411.5H350.5V107.5Z" fill="#CCCCCC"/>
<path d="M400.5 107.5H398.5V411.5H400.5V107.5Z" fill="#CCCCCC"/>
<path d="M199.375 186.75C242.108 186.75 276.75 152.108 276.75 109.375C276.75 66.6421 242.108 32 199.375 32C156.642 32 122 66.6421 122 109.375C122 152.108 156.642 186.75 199.375 186.75Z" fill="#E94438"/>
<path d="M231.431 143.089H167.32C166.148 143.088 165.024 142.621 164.195 141.792C163.366 140.964 162.9 139.84 162.898 138.667V99.9797C162.9 98.8074 163.366 97.6835 164.195 96.8546C165.024 96.0257 166.148 95.5595 167.32 95.5582H231.431C232.603 95.5595 233.727 96.0257 234.556 96.8546C235.385 97.6835 235.851 98.8074 235.852 99.9797V138.667C235.851 139.84 235.385 140.964 234.556 141.792C233.727 142.621 232.603 143.088 231.431 143.089ZM167.32 99.9797V138.667H231.434L231.431 99.9797L167.32 99.9797Z" fill="white"/>
<path d="M219.272 99.9798H179.479V82.294C179.479 69.4841 187.846 60.1868 199.375 60.1868C210.904 60.1868 219.271 69.4841 219.271 82.294L219.272 99.9798ZM183.9 95.5583H214.85V82.294C214.85 71.881 208.487 64.6082 199.375 64.6082C190.263 64.6082 183.9 71.881 183.9 82.294L183.9 95.5583Z" fill="white"/>
<path d="M199.375 122.64C201.817 122.64 203.796 120.66 203.796 118.218C203.796 115.776 201.817 113.797 199.375 113.797C196.933 113.797 194.954 115.776 194.954 118.218C194.954 120.66 196.933 122.64 199.375 122.64Z" fill="white"/>
</g>
<defs>
<clipPath id="clip0_68_925">
<rect width="870" height="520.139" fill="white" transform="translate(-29)"/>
</clipPath>
</defs>
</svg>
