<svg width="426" height="405" viewBox="0 0 426 405" fill="none" xmlns="http://www.w3.org/2000/svg">
<path d="M39.0838 220.859C39.7361 220.86 40.3682 220.647 40.8705 220.256C41.1531 220.036 41.3868 219.765 41.5581 219.46C41.7294 219.155 41.8349 218.821 41.8686 218.478C41.9023 218.134 41.8635 217.788 41.7545 217.458C41.6455 217.129 41.4684 216.823 41.2334 216.558L28.7267 202.5L40.7867 188.415C41.0186 188.147 41.1918 187.838 41.2963 187.507C41.4008 187.176 41.4345 186.828 41.3956 186.484C41.3567 186.141 41.2459 185.808 41.0695 185.504C40.8932 185.201 40.6547 184.934 40.368 184.717C40.0791 184.478 39.7409 184.298 39.3744 184.188C39.008 184.078 38.6213 184.04 38.2385 184.077C37.8558 184.114 37.4854 184.225 37.1504 184.403C36.8155 184.581 36.5233 184.822 36.2921 185.111L22.8084 200.847C22.3978 201.317 22.1733 201.905 22.1733 202.513C22.1733 203.12 22.3978 203.709 22.8084 204.178L36.7667 219.915C37.0468 220.232 37.4025 220.483 37.8051 220.647C38.2077 220.811 38.6458 220.884 39.0838 220.859Z" fill="#231F20"/>
<g clip-path="url(#clip0_82_7214)">
<path d="M217.432 0C210.763 0 205.359 5.3965 205.359 12.0559V30.1155H229.505V12.0559C229.505 6.06357 225.726 0 219.913 0C219.245 0 218.096 0 217.432 0ZM217.432 15.2863C214.797 15.2863 212.662 13.154 212.662 10.5232C212.662 7.89238 214.797 5.76002 217.432 5.76002C220.067 5.76002 222.202 7.89238 222.202 10.5232C222.202 13.154 220.067 15.2863 217.432 15.2863Z" fill="#016589"/>
<path d="M363 54.0024V381.255C363 394.368 352.353 405 339.218 405H90.7822C77.647 405 67 394.368 67 381.255V54.0024C67 40.8859 77.647 30.2578 90.7822 30.2578H339.222C352.353 30.2541 363 40.8859 363 54.0024Z" fill="#FF7768"/>
<path d="M342.903 79.737V363.945C342.903 377.223 332.125 387.986 318.828 387.986H111.172C97.8751 387.986 87.0967 377.223 87.0967 363.945V79.737C87.0967 66.4593 97.8751 55.6963 111.172 55.6963H318.832C332.128 55.6963 342.903 66.4593 342.903 79.737Z" fill="#FFF8F3"/>
<path d="M315.852 121.819H288.212V154.689H315.852V121.819Z" fill="#65B3C6"/>
<path d="M312.974 151.706V124.81H291.091V151.706H312.974Z" fill="white"/>
<path d="M324.277 109.246C323.399 108.736 322.288 109.062 321.797 109.976L301.771 147.167L295.905 132.102C295.526 131.131 294.464 130.663 293.53 131.056C292.595 131.446 292.145 132.552 292.524 133.519L301.242 155.907L324.979 111.824C325.471 110.909 325.156 109.759 324.277 109.246Z" fill="#FF7768"/>
<path d="M267.008 126.289H117.207C116.31 126.289 115.582 125.562 115.582 124.667C115.582 123.771 116.31 123.044 117.207 123.044H267.012C267.909 123.044 268.637 123.771 268.637 124.667C268.633 125.562 267.905 126.289 267.008 126.289Z" fill="#65B3C6"/>
<path d="M267.008 135.696H117.207C116.31 135.696 115.582 134.969 115.582 134.073C115.582 133.177 116.31 132.45 117.207 132.45H267.012C267.909 132.45 268.637 133.177 268.637 134.073C268.633 134.972 267.905 135.696 267.008 135.696Z" fill="#65B3C6"/>
<path d="M191.165 141.86H117.278C116.43 141.86 115.672 142.479 115.593 143.322C115.499 144.289 116.261 145.102 117.21 145.102H191.169C192.066 145.102 192.794 144.375 192.794 143.479C192.79 142.587 192.062 141.86 191.165 141.86Z" fill="#65B3C6"/>
<path d="M269.568 187.57H119.766C118.869 187.57 118.141 186.843 118.141 185.947C118.141 185.051 118.869 184.324 119.766 184.324H269.568C270.464 184.324 271.193 185.051 271.193 185.947C271.193 186.843 270.464 187.57 269.568 187.57Z" fill="#65B3C6"/>
<path d="M269.568 196.976H119.766C118.869 196.976 118.141 196.249 118.141 195.353C118.141 194.458 118.869 193.73 119.766 193.73H269.568C270.464 193.73 271.193 194.458 271.193 195.353C271.193 196.253 270.464 196.976 269.568 196.976Z" fill="#65B3C6"/>
<path d="M193.725 203.141H119.834C118.985 203.141 118.227 203.759 118.148 204.602C118.055 205.569 118.816 206.382 119.766 206.382H193.725C194.622 206.382 195.35 205.655 195.35 204.76C195.346 203.868 194.622 203.141 193.725 203.141Z" fill="#65B3C6"/>
<path d="M268.884 237.109H119.083C118.186 237.109 117.458 236.382 117.458 235.486C117.458 234.59 118.186 233.863 119.083 233.863H268.888C269.785 233.863 270.513 234.59 270.513 235.486C270.509 236.382 269.781 237.109 268.884 237.109Z" fill="#65B3C6"/>
<path d="M268.884 246.515H119.083C118.186 246.515 117.458 245.788 117.458 244.892C117.458 243.997 118.186 243.27 119.083 243.27H268.888C269.785 243.27 270.513 243.997 270.513 244.892C270.509 245.788 269.781 246.515 268.884 246.515Z" fill="#65B3C6"/>
<path d="M193.042 252.68H119.154C118.306 252.68 117.548 253.298 117.469 254.141C117.375 255.108 118.137 255.921 119.087 255.921H193.045C193.942 255.921 194.67 255.194 194.67 254.299C194.667 253.407 193.939 252.68 193.042 252.68Z" fill="#65B3C6"/>
<path d="M269.568 289.676H119.766C118.869 289.676 118.141 288.949 118.141 288.053C118.141 287.158 118.869 286.431 119.766 286.431H269.568C270.464 286.431 271.193 287.158 271.193 288.053C271.193 288.953 270.464 289.676 269.568 289.676Z" fill="#65B3C6"/>
<path d="M269.568 299.086H119.766C118.869 299.086 118.141 298.359 118.141 297.464C118.141 296.568 118.869 295.841 119.766 295.841H269.568C270.464 295.841 271.193 296.568 271.193 297.464C271.193 298.359 270.464 299.086 269.568 299.086Z" fill="#65B3C6"/>
<path d="M193.725 305.247H119.834C118.985 305.247 118.227 305.865 118.148 306.709C118.055 307.675 118.816 308.489 119.766 308.489H193.725C194.622 308.489 195.35 307.762 195.35 306.866C195.346 305.974 194.622 305.247 193.725 305.247Z" fill="#65B3C6"/>
<path d="M159.889 55.6962H255.404L254.413 30.2539H160.876L159.889 55.6962Z" fill="#FF5B51"/>
<path d="M265.188 55.6963H169.676L171.136 27.4883H263.724L265.188 55.6963Z" fill="#65B3C6"/>
<path d="M219.718 0C213.049 0 207.645 5.3965 207.645 12.0559V30.1155H231.791V12.0559C231.791 5.3965 226.387 0 219.718 0ZM219.718 15.2863C217.083 15.2863 214.948 13.154 214.948 10.5232C214.948 7.89238 217.083 5.76002 219.718 5.76002C222.352 5.76002 224.488 7.89238 224.488 10.5232C224.488 13.154 222.352 15.2863 219.718 15.2863Z" fill="#65B3C6"/>
</g>
<path d="M389.227 220.859C388.614 220.86 388.021 220.647 387.549 220.256C387.283 220.036 387.064 219.765 386.903 219.46C386.742 219.155 386.643 218.821 386.611 218.478C386.579 218.134 386.616 217.788 386.718 217.458C386.82 217.129 386.987 216.823 387.208 216.558L398.958 202.5L387.627 188.415C387.409 188.147 387.247 187.838 387.149 187.507C387.05 187.176 387.019 186.828 387.055 186.484C387.092 186.141 387.196 185.808 387.362 185.504C387.527 185.201 387.751 184.934 388.021 184.717C388.292 184.478 388.61 184.298 388.954 184.188C389.298 184.078 389.662 184.04 390.021 184.077C390.381 184.114 390.729 184.225 391.044 184.403C391.358 184.581 391.633 184.822 391.85 185.111L404.518 200.847C404.904 201.317 405.115 201.905 405.115 202.513C405.115 203.12 404.904 203.709 404.518 204.178L391.404 219.915C391.141 220.232 390.807 220.483 390.429 220.647C390.05 220.811 389.639 220.884 389.227 220.859Z" fill="#231F20"/>
<defs>
<clipPath id="clip0_82_7214">
<rect width="296" height="405" fill="white" transform="translate(67)"/>
</clipPath>
</defs>
</svg>
