<svg width="410" height="378" viewBox="0 0 410 378" fill="none" xmlns="http://www.w3.org/2000/svg">
<path d="M22.9641 5.60303H86.8779V72.2261H22.9641V5.60303Z" fill="#E0E0E0"/>
<path d="M27.3008 5.60303H91.2146V72.2261H27.3008V5.60303Z" fill="#FAFAFA"/>
<path d="M27.2743 72.2433H91.2322V5.58496H27.2743V72.2433ZM91.1882 72.2433H27.3183V5.62015H91.1882V72.2433Z" fill="#E0E0E0"/>
<path d="M35.8947 14.5571H82.6206V63.271H35.8947V14.5571Z" fill="white"/>
<path d="M82.6207 63.5967C82.9533 64.0842 83.3399 64.5327 83.773 64.9337C84.5207 65.7254 85.5323 66.7897 86.7461 67.942C87.96 69.0944 88.998 70.1323 89.7985 70.8712C90.1998 71.2971 90.6518 71.6723 91.1443 71.9883C90.8186 71.5007 90.4346 71.0547 90.0008 70.6601C89.2531 69.8684 88.1975 68.8041 87.0188 67.643C85.8401 66.4819 84.7582 65.4439 83.9665 64.7138C83.5629 64.2904 83.1112 63.9154 82.6207 63.5967Z" fill="#E0E0E0"/>
<path d="M35.886 63.5176C35.3964 63.8475 34.9476 64.2343 34.549 64.6699C33.7573 65.4176 32.6929 66.4292 31.5406 67.643C30.3883 68.8569 29.3504 69.8949 28.6115 70.6954C28.188 71.1014 27.8105 71.5527 27.4855 72.0412C27.9792 71.72 28.4287 71.3356 28.8226 70.8977C29.6142 70.15 30.6786 69.1384 31.8397 67.9245C33.0008 66.7106 34.0388 65.6551 34.7689 64.8634C35.1923 64.4598 35.5672 64.0081 35.886 63.5176Z" fill="#E0E0E0"/>
<path d="M36.0181 14.6895C35.685 14.2102 35.2984 13.7705 34.8658 13.3788C34.1181 12.596 33.1065 11.5316 31.8926 10.3705C30.6787 9.2094 29.6408 8.18023 28.8403 7.45014C28.4387 7.01854 27.9834 6.64016 27.4857 6.32422C27.821 6.80969 28.2073 7.25792 28.638 7.66126C29.3857 8.44412 30.3972 9.51727 31.6111 10.6784C32.825 11.8395 33.8718 12.8687 34.6722 13.5988C35.0765 14.0139 35.5282 14.38 36.0181 14.6895Z" fill="#E0E0E0"/>
<path d="M82.7438 14.8039C83.2354 14.473 83.687 14.0863 84.0896 13.6516C84.8725 12.9039 85.9369 11.8923 87.098 10.6872C88.2591 9.48212 89.2883 8.42657 90.0184 7.6261C90.4507 7.22849 90.8292 6.77604 91.1443 6.28027C90.6547 6.60684 90.2058 6.99073 89.8072 7.42379C89.0244 8.17148 87.9512 9.22703 86.7901 10.4057C85.629 11.5844 84.5998 12.6664 83.8697 13.458C83.4422 13.8603 83.0643 14.3121 82.7438 14.8039Z" fill="#E0E0E0"/>
<path d="M36.018 63.2716C36.018 63.2716 36.018 63.1837 36.018 63.0341C36.018 62.8846 36.018 62.6383 36.018 62.3568C36.018 61.7411 36.018 60.8615 36.018 59.7179C36.018 57.4045 36.018 54.0531 36.062 49.7869C36.062 41.2545 36.1147 29.0981 36.1499 14.549L35.974 14.7249H82.5944L82.3832 14.5226C82.3832 32.4055 82.3832 49.1272 82.3832 63.2365L82.5592 63.0605L48.8166 63.1485H39.3342H36.8273H36.1851C36.1092 63.1385 36.0323 63.1385 35.9564 63.1485H36.7921H39.2638L48.7023 63.2013L82.5592 63.2892H82.7351V63.1133C82.7351 49.0392 82.7351 32.3263 82.7351 14.3995V14.3467H82.524H35.9036H35.7189V14.5314C35.7189 29.1332 35.7893 41.3249 35.8157 49.8837C35.8157 54.1323 35.8157 57.4749 35.8597 59.7707C35.8597 60.8966 35.8597 61.7675 35.8597 62.4096C35.8597 62.6911 35.8597 62.911 35.8597 63.0693C35.9015 63.1447 35.9549 63.213 36.018 63.2716Z" fill="#E0E0E0"/>
<path d="M51.4555 31.1118H67.0513V46.7076H51.4555V31.1118Z" fill="#EBEBEB"/>
<path d="M22.9641 89.5986H86.8779V156.222H22.9641V89.5986Z" fill="#E0E0E0"/>
<path d="M27.3008 89.5986H91.2146V156.222H27.3008V89.5986Z" fill="#FAFAFA"/>
<path d="M27.2743 156.239H91.2322V89.5723H27.2743V156.239ZM91.1882 156.239H27.3183V89.6162H91.1882V156.239Z" fill="#E0E0E0"/>
<path d="M35.8947 98.5532H82.6206V147.267H35.8947V98.5532Z" fill="white"/>
<path d="M82.6207 147.583C82.9516 148.075 83.3382 148.527 83.773 148.929C84.5207 149.712 85.5323 150.785 86.7461 151.938C87.96 153.09 88.998 154.128 89.7985 154.858C90.1983 155.288 90.6505 155.666 91.1443 155.984C90.8177 155.494 90.4338 155.045 90.0008 154.647C89.2531 153.864 88.1975 152.791 87.0188 151.63C85.8401 150.469 84.7582 149.44 83.9665 148.709C83.5643 148.282 83.1125 147.904 82.6207 147.583Z" fill="#E0E0E0"/>
<path d="M35.886 147.469C35.3964 147.799 34.9476 148.186 34.549 148.622C33.7573 149.369 32.6929 150.381 31.5406 151.595C30.3883 152.809 29.3504 153.847 28.6115 154.647C28.188 155.053 27.8105 155.504 27.4855 155.993C27.9792 155.672 28.4287 155.287 28.8226 154.849C29.6142 154.102 30.6786 153.046 31.8397 151.867C33.0008 150.689 34.0388 149.607 34.7689 148.815C35.1923 148.411 35.5672 147.96 35.886 147.469Z" fill="#E0E0E0"/>
<path d="M36.0181 98.7027C35.6872 98.2111 35.3005 97.7595 34.8658 97.3569C34.1181 96.574 33.1065 95.5009 31.8926 94.3485C30.6787 93.1962 29.6408 92.1583 28.8403 91.4282C28.4387 90.9966 27.9834 90.6182 27.4857 90.3022C27.8201 90.7857 28.2065 91.2312 28.638 91.6305C29.3857 92.4222 30.3972 93.4865 31.6111 94.6564C32.825 95.8263 33.8718 96.8467 34.6722 97.5768C35.0745 98.0043 35.5263 98.3823 36.0181 98.7027Z" fill="#E0E0E0"/>
<path d="M82.7438 98.7995C83.2354 98.4686 83.687 98.0819 84.0896 97.6472C84.8725 96.8995 85.9369 95.8879 87.098 94.674C88.2591 93.4601 89.2883 92.4222 90.0184 91.6217C90.4484 91.2218 90.8266 90.7697 91.1443 90.2759C90.6547 90.6024 90.2058 90.9863 89.8072 91.4194C89.0244 92.1671 87.9512 93.2226 86.7901 94.4013C85.629 95.58 84.5998 96.662 83.8697 97.4537C83.4422 97.8559 83.0643 98.3077 82.7438 98.7995Z" fill="#E0E0E0"/>
<path d="M36.018 147.267C36.018 147.267 36.018 147.179 36.018 147.03C36.018 146.88 36.018 146.634 36.018 146.344C36.018 145.737 36.018 144.857 36.018 143.705C36.018 141.4 36.018 138.04 36.062 133.783C36.062 125.25 36.1147 113.094 36.1499 98.5447L35.974 98.7207H82.5944L82.3832 98.5183C82.3832 116.392 82.3832 133.123 82.3832 147.232L82.5592 147.047L48.8166 147.144H39.3342H36.8273H36.1851C36.1091 147.137 36.0325 147.137 35.9564 147.144H36.7921H39.2638L48.7023 147.188L82.5592 147.285H82.7351V147.109C82.7351 133.035 82.7351 116.269 82.7351 98.3952V98.1841H82.524H35.9036H35.7189V98.3688C35.7189 112.971 35.7893 125.162 35.8157 133.721C35.8157 137.97 35.8157 141.312 35.8597 143.608C35.8597 144.734 35.8597 145.596 35.8597 146.247C35.8597 146.528 35.8597 146.748 35.8597 146.907C35.8823 147.038 35.9366 147.162 36.018 147.267Z" fill="#E0E0E0"/>
<path d="M51.4555 115.108H67.0513V130.704H51.4555V115.108Z" fill="#EBEBEB"/>
<path d="M324.448 5.58496H393.051V105.018H324.448V5.58496Z" fill="#E0E0E0"/>
<path d="M327.888 5.58496H396.49V105.018H327.888V5.58496Z" fill="#F5F5F5"/>
<path d="M336.411 16.3521H387.966V94.252H336.411V16.3521Z" fill="white"/>
<path d="M336.411 94.2517C336.411 94.2517 336.411 94.1197 336.411 93.8734C336.411 93.6271 336.411 93.2489 336.411 92.7651C336.411 91.7887 336.411 90.3549 336.411 88.4901C336.411 84.7605 336.411 79.3156 336.411 72.4457C336.411 58.7059 336.464 39.2573 336.499 16.3517L336.332 16.5189H387.878L387.694 16.3341C387.694 45.7225 387.694 72.8151 387.694 94.2341L387.843 94.0845L350.318 94.1637H339.947H337.229H336.288H337.168H339.86L350.38 94.3044L388.002 94.3836H388.116V94.2341C388.116 72.8151 388.116 45.7225 388.116 16.3341V16.1494H387.922H336.376H336.2V16.3165C336.2 39.2661 336.262 58.7586 336.288 72.5248C336.288 79.3771 336.288 84.8396 336.288 88.5341C336.288 90.3725 336.288 91.7975 336.288 92.7651C336.288 93.2401 336.288 93.6447 336.288 93.8558C336.288 94.0669 336.411 94.2517 336.411 94.2517Z" fill="#E0E0E0"/>
<path d="M327.694 5.58496C328.048 6.20697 328.457 6.79578 328.917 7.34422C329.708 8.40857 330.843 9.85996 332.136 11.4257C333.429 12.9914 334.634 14.3813 335.523 15.3664C335.978 15.9228 336.485 16.4352 337.036 16.897C336.65 16.2743 336.211 15.6858 335.725 15.1377C334.845 14.0294 333.675 12.6484 332.418 11.1354L329.119 7.22107C328.691 6.63679 328.214 6.0895 327.694 5.58496Z" fill="#E0E0E0"/>
<path d="M336.147 93.9966C333.583 98.0749 330.564 101.849 327.149 105.247L336.147 93.9966Z" fill="white"/>
<path d="M327.149 105.247C327.721 104.827 328.249 104.35 328.723 103.822C329.603 102.89 330.861 101.553 332.11 99.9957C333.176 98.6628 334.174 97.2771 335.101 95.8438C335.509 95.2638 335.86 94.6451 336.147 93.9966C335.681 94.5282 335.258 95.0959 334.881 95.6943C334.124 96.7586 333.06 98.21 331.82 99.7582C330.579 101.306 329.401 102.67 328.53 103.637C328.031 104.14 327.57 104.678 327.149 105.247Z" fill="#E0E0E0"/>
<path d="M396.499 104.939L387.509 93.856L396.499 104.939Z" fill="white"/>
<path d="M387.509 93.856C388.865 95.8132 390.318 97.7009 391.863 99.512C393.312 101.401 394.859 103.213 396.499 104.939C395.148 102.981 393.698 101.093 392.153 99.2833C390.7 97.395 389.15 95.5835 387.509 93.856Z" fill="#E0E0E0"/>
<path d="M396.49 5.58496C394.929 7.23872 393.461 8.97716 392.092 10.7924C390.634 12.5331 389.274 14.3538 388.019 16.2461C389.576 14.5857 391.044 12.8445 392.417 11.0299C393.871 9.28914 395.231 7.47155 396.49 5.58496Z" fill="#E0E0E0"/>
<path d="M352.465 32.1675H369.732V81.1804H352.465V32.1675Z" fill="#E0E0E0"/>
<path d="M395.153 355.687H323.894V348.06H395.153V355.687Z" fill="#EBEBEB"/>
<path d="M352.623 297.042C352.623 298.801 381.008 373.956 381.008 373.956H391.81L363.495 297.042H352.623Z" fill="#EBEBEB"/>
<path d="M324.959 373.956H314.192V293.584H324.959V373.956Z" fill="#EBEBEB"/>
<path d="M384.457 327.767H319.575V320.141H384.457V327.767Z" fill="#EBEBEB"/>
<path d="M372.687 299.865H313.11V292.239H372.687V299.865Z" fill="#EBEBEB"/>
<path d="M373.998 299.865C373.998 299.988 360.557 300.085 343.985 300.085C327.413 300.085 313.963 299.988 313.963 299.865C313.963 299.742 327.404 299.636 343.985 299.636C360.566 299.636 373.998 299.742 373.998 299.865Z" fill="#E0E0E0"/>
<path d="M324.959 299.548C324.827 299.548 324.73 316.2 324.73 336.739C324.73 357.278 324.827 373.93 324.959 373.93C325.09 373.93 325.187 357.278 325.187 336.739C325.187 316.2 325.082 299.548 324.959 299.548Z" fill="#E0E0E0"/>
<path d="M353.951 300.446C353.941 300.51 353.941 300.575 353.951 300.639C353.951 300.798 354.057 300.982 354.127 301.211C354.312 301.739 354.549 302.46 354.857 303.375C355.499 305.249 356.449 307.958 357.645 311.292C360.029 317.968 363.425 327.125 367.225 337.276L376.9 363.225L379.821 371.089C380.164 371.968 380.428 372.699 380.63 373.226L380.85 373.772C380.871 373.837 380.901 373.899 380.938 373.956C380.948 373.892 380.948 373.827 380.938 373.763L380.762 373.191L380.032 371.027C379.399 369.154 378.44 366.444 377.244 363.111C374.886 356.434 371.491 347.251 367.691 337.082C363.891 326.914 360.487 317.818 358.015 311.151L355.094 303.278C354.751 302.399 354.488 301.668 354.285 301.141L354.065 300.595C354.033 300.541 353.995 300.491 353.951 300.446Z" fill="#E0E0E0"/>
<path d="M364.682 300.023C364.694 300.092 364.712 300.16 364.735 300.226L364.911 300.798C365.096 301.325 365.333 302.055 365.641 302.97C366.283 304.861 367.242 307.579 368.447 310.887C370.849 317.607 374.262 326.843 378.123 337.029C381.985 347.216 385.371 356.381 387.887 363.119C389.11 366.427 390.113 369.118 390.825 371.036C391.168 371.916 391.432 372.654 391.634 373.182L391.854 373.736C391.876 373.803 391.909 373.865 391.951 373.921C391.94 373.855 391.922 373.79 391.898 373.728C391.898 373.569 391.793 373.385 391.722 373.156C391.546 372.619 391.3 371.889 390.992 370.974C390.35 369.092 389.391 366.365 388.186 363.014C385.785 356.302 382.372 347.066 378.51 336.871C374.649 326.676 371.262 317.519 368.755 310.79L365.808 302.873C365.474 301.994 365.201 301.255 364.999 300.727L364.779 300.173C364.754 300.119 364.722 300.068 364.682 300.023Z" fill="#E0E0E0"/>
<path d="M325.425 218.948C325.43 220.773 325.996 222.552 327.046 224.044C328.095 225.537 329.578 226.67 331.294 227.292C333.01 227.914 334.875 227.993 336.637 227.519C338.399 227.046 339.973 226.042 341.146 224.644C342.319 223.246 343.034 221.522 343.194 219.704C343.354 217.887 342.952 216.064 342.042 214.482C341.131 212.901 339.757 211.637 338.105 210.863C336.453 210.088 334.603 209.84 332.805 210.152C330.741 210.526 328.873 211.61 327.525 213.217C326.177 214.823 325.434 216.851 325.425 218.948C325.425 222.027 320.587 222.036 320.631 218.948C320.66 216.145 321.536 213.417 323.143 211.12C324.751 208.824 327.015 207.067 329.638 206.079C332.292 205.117 335.179 204.998 337.904 205.738C340.629 206.479 343.058 208.042 344.86 210.216C346.662 212.39 347.749 215.067 347.972 217.882C348.194 220.696 347.542 223.511 346.105 225.941C344.641 228.355 342.476 230.264 339.898 231.415C337.32 232.565 334.453 232.902 331.679 232.38C325.275 231.228 320.719 225.343 320.631 218.948C320.587 215.861 325.381 215.861 325.425 218.948Z" fill="#F5F5F5"/>
<path d="M349.016 229.768C350.834 231.732 352.737 233.615 354.725 235.415C355.168 235.867 355.417 236.475 355.417 237.108C355.417 237.741 355.168 238.349 354.725 238.801C354.268 239.239 353.66 239.483 353.027 239.483C352.395 239.483 351.787 239.239 351.33 238.801C349.35 237.042 347.442 235.116 345.63 233.154C345.187 232.699 344.935 232.092 344.926 231.457C344.925 230.982 345.066 230.519 345.329 230.124C345.593 229.73 345.967 229.423 346.405 229.242C346.844 229.061 347.326 229.015 347.791 229.108C348.256 229.202 348.682 229.431 349.016 229.768Z" fill="#F5F5F5"/>
<path d="M336.939 236.611V244.818C336.902 245.429 336.633 246.002 336.188 246.421C335.742 246.841 335.154 247.074 334.542 247.074C333.93 247.074 333.342 246.841 332.896 246.421C332.451 246.002 332.182 245.429 332.145 244.818V236.611C332.182 236 332.451 235.427 332.896 235.008C333.342 234.588 333.93 234.355 334.542 234.355C335.154 234.355 335.742 234.588 336.188 235.008C336.633 235.427 336.902 236 336.939 236.611Z" fill="#F5F5F5"/>
<path d="M323.709 233.128L317.737 239.356C317.283 239.799 316.674 240.048 316.039 240.048C315.404 240.048 314.795 239.799 314.341 239.356C313.904 238.899 313.659 238.291 313.659 237.658C313.659 237.025 313.904 236.417 314.341 235.96L320.323 229.732C320.775 229.289 321.383 229.041 322.016 229.041C322.649 229.041 323.257 229.289 323.709 229.732C324.149 230.188 324.395 230.797 324.395 231.43C324.395 232.063 324.149 232.672 323.709 233.128Z" fill="#F5F5F5"/>
<path d="M320.059 207.548C318.238 205.586 316.338 203.695 314.359 201.901C313.913 201.448 313.663 200.838 313.663 200.203C313.663 199.568 313.913 198.958 314.359 198.505C314.814 198.068 315.421 197.824 316.052 197.824C316.683 197.824 317.29 198.068 317.745 198.505C319.722 200.306 321.625 202.188 323.454 204.153C323.889 204.612 324.137 205.218 324.149 205.85C324.148 206.485 323.898 207.094 323.454 207.548C323.004 207.998 322.393 208.251 321.757 208.251C321.12 208.251 320.509 207.998 320.059 207.548Z" fill="#F5F5F5"/>
<path d="M332.136 200.74V192.533C332.173 191.922 332.442 191.349 332.888 190.93C333.333 190.51 333.922 190.277 334.533 190.277C335.145 190.277 335.734 190.51 336.179 190.93C336.625 191.349 336.893 191.922 336.93 192.533V200.74C336.893 201.351 336.625 201.924 336.179 202.343C335.734 202.763 335.145 202.996 334.533 202.996C333.922 202.996 333.333 202.763 332.888 202.343C332.442 201.924 332.173 201.351 332.136 200.74Z" fill="#F5F5F5"/>
<path d="M345.366 204.188L351.347 197.96C351.799 197.517 352.407 197.269 353.041 197.269C353.674 197.269 354.282 197.517 354.734 197.96C355.174 198.416 355.419 199.024 355.419 199.658C355.419 200.291 355.174 200.9 354.734 201.355L348.752 207.583C348.3 208.026 347.692 208.275 347.059 208.275C346.426 208.275 345.818 208.026 345.366 207.583C344.926 207.127 344.68 206.519 344.68 205.885C344.68 205.252 344.926 204.644 345.366 204.188Z" fill="#F5F5F5"/>
<path d="M316.426 221.367H307.63C307.019 221.33 306.446 221.062 306.026 220.616C305.607 220.171 305.374 219.582 305.374 218.97C305.374 218.358 305.607 217.77 306.026 217.324C306.446 216.879 307.019 216.61 307.63 216.573H316.426C317.037 216.61 317.61 216.879 318.029 217.324C318.449 217.77 318.682 218.358 318.682 218.97C318.682 219.582 318.449 220.171 318.029 220.616C317.61 221.062 317.037 221.33 316.426 221.367Z" fill="#F5F5F5"/>
<path d="M361.727 221.464H351.805C351.194 221.427 350.621 221.158 350.201 220.713C349.782 220.267 349.549 219.679 349.549 219.067C349.549 218.455 349.782 217.867 350.201 217.421C350.621 216.976 351.194 216.707 351.805 216.67H361.727C362.054 216.65 362.382 216.697 362.69 216.809C362.998 216.92 363.28 217.094 363.518 217.318C363.757 217.543 363.947 217.814 364.077 218.114C364.207 218.415 364.274 218.739 364.274 219.067C364.274 219.395 364.207 219.719 364.077 220.019C363.947 220.32 363.757 220.591 363.518 220.816C363.28 221.04 362.998 221.213 362.69 221.325C362.382 221.436 362.054 221.484 361.727 221.464Z" fill="#F5F5F5"/>
<path d="M353.362 135.92C363.328 138.392 369.784 149.114 367.436 159.063C365.087 169.011 355.455 175.679 345.445 174.967C340.114 174.588 335.224 171.993 332.708 167.147C331.582 164.974 334.863 163.048 335.989 165.22C339.675 172.319 349.289 172.548 355.614 168.95C362.809 164.868 366.407 155.615 362.607 148.024C361.614 145.963 360.188 144.143 358.425 142.686C356.662 141.23 354.604 140.173 352.394 139.588C350.019 138.999 351.031 135.33 353.406 135.92H353.362Z" fill="#F5F5F5"/>
<path d="M354.646 137.002C356.281 139.628 357.306 142.588 357.646 145.663C357.985 148.739 357.631 151.851 356.608 154.771C354.96 159.206 351.821 162.93 347.729 165.306C343.637 167.681 338.846 168.559 334.177 167.789C333.693 167.651 333.282 167.329 333.034 166.891C332.785 166.453 332.719 165.935 332.849 165.449C332.994 164.97 333.318 164.565 333.753 164.318C334.189 164.071 334.703 164 335.189 164.121C337.525 164.438 339.902 164.26 342.164 163.597C344.427 162.935 346.525 161.804 348.321 160.277C350.196 158.649 351.673 156.613 352.64 154.326C353.606 152.039 354.037 149.562 353.898 147.083C353.77 144.185 352.881 141.373 351.321 138.928C350.002 136.861 353.291 134.952 354.602 137.011L354.646 137.002Z" fill="#F5F5F5"/>
<path d="M14.1415 202.675H100.055V365.072H14.1415V202.675Z" fill="#E0E0E0"/>
<path d="M39.6333 202.675H125.547V365.072H39.6333V202.675Z" fill="#F5F5F5"/>
<path d="M45.9665 236.101H119.706V210.363H45.9665V236.101ZM118.8 235.221H46.9077V211.295H118.8V235.221Z" fill="#E0E0E0"/>
<path d="M96.3252 210.812H68.3442V211.586C68.3442 212.74 68.8029 213.848 69.6195 214.664C70.4361 215.481 71.5436 215.94 72.6984 215.94H91.9798C93.1346 215.94 94.2421 215.481 95.0587 214.664C95.8752 213.848 96.334 212.74 96.334 211.586V210.812H96.3252Z" fill="#EBEBEB"/>
<path d="M45.9665 268.805H119.706V243.059H45.9665V268.805ZM118.8 267.926H46.9077V243.965H118.8V267.926Z" fill="#E0E0E0"/>
<path d="M96.3252 243.516H68.3442V244.29C68.3442 245.445 68.8029 246.552 69.6195 247.369C70.4361 248.186 71.5436 248.644 72.6984 248.644H91.9798C93.1346 248.644 94.2421 248.186 95.0587 247.369C95.8752 246.552 96.334 245.445 96.334 244.29V243.516H96.3252Z" fill="#EBEBEB"/>
<path d="M45.9665 301.502H119.706V275.764H45.9665V301.502ZM118.8 300.622H46.9077V276.696H118.8V300.622Z" fill="#E0E0E0"/>
<path d="M96.3252 276.212H68.3442V276.986C68.3442 278.141 68.8029 279.248 69.6195 280.065C70.4361 280.881 71.5436 281.34 72.6984 281.34H91.9798C93.1346 281.34 94.2421 280.881 95.0587 280.065C95.8752 279.248 96.334 278.141 96.334 276.986V276.212H96.3252Z" fill="#EBEBEB"/>
<path d="M45.9665 334.206H119.706V308.459H45.9665V334.206ZM118.8 333.326H46.9077V309.365H118.8V333.326Z" fill="#E0E0E0"/>
<path d="M96.3252 308.934H68.3442V309.708C68.3442 310.863 68.8029 311.97 69.6195 312.787C70.4361 313.604 71.5436 314.062 72.6984 314.062H91.971C93.1258 314.062 94.2333 313.604 95.0499 312.787C95.8664 311.97 96.3252 310.863 96.3252 309.708V308.934Z" fill="#EBEBEB"/>
<path d="M36.0532 196.597H129.364V204.689H36.0532V196.597Z" fill="#EBEBEB"/>
<path d="M7.98427 196.597H36.0444V204.689H7.98427V196.597Z" fill="#E0E0E0"/>
<path d="M121.034 365.072H125.547V373.367H121.034V365.072Z" fill="#E0E0E0"/>
<path d="M93.1411 365.072H97.6536V373.367H93.1411V365.072Z" fill="#E0E0E0"/>
<path d="M42.1928 365.072H46.7053V373.367H42.1928V365.072Z" fill="#E0E0E0"/>
<path d="M16.7102 365.072H21.2227V373.367H16.7102V365.072Z" fill="#E0E0E0"/>
<path d="M23.7207 373.956C23.7207 374.088 104.603 374.185 204.353 374.185C304.102 374.185 385.002 374.088 385.002 373.956C385.002 373.824 304.138 373.728 204.353 373.728C104.567 373.728 23.7207 373.833 23.7207 373.956Z" fill="#263238"/>
<path d="M142.998 347.251C142.998 347.251 146.878 320.615 146.517 305.116C146.156 289.617 146.517 272.183 146.517 272.183H144.758C144.758 272.183 145.971 302.97 144.652 321.495C143.333 340.02 139.876 347.251 139.876 347.251H142.972" fill="#263238"/>
<path d="M131.457 242.215C131.74 241.27 132.308 240.437 133.085 239.831C134.22 239.118 135.724 239.417 136.973 239.831C142.365 241.74 147.141 251.803 149.288 257.089L142.127 281.217C129.241 269.254 126.954 253.518 131.457 242.215Z" fill="#455A64"/>
<path d="M133.507 240.807C133.529 240.917 133.564 241.023 133.613 241.124C133.701 241.353 133.815 241.643 133.965 242.003C134.272 242.76 134.712 243.868 135.24 245.24C136.296 247.976 137.641 251.811 138.838 256.121C140.034 260.432 140.861 264.416 141.371 267.31C141.626 268.753 141.82 269.949 141.943 270.741C142.004 271.119 142.048 271.427 142.092 271.673C142.102 271.784 142.126 271.894 142.163 271.999C142.176 271.891 142.176 271.781 142.163 271.673C142.163 271.418 142.101 271.11 142.057 270.723C141.978 269.905 141.811 268.727 141.582 267.275C140.973 263.489 140.157 259.739 139.137 256.042C138.109 252.349 136.875 248.717 135.442 245.161C134.888 243.798 134.422 242.707 134.079 241.959L133.674 241.08C133.627 240.984 133.571 240.893 133.507 240.807Z" fill="#263238"/>
<path d="M145.347 287.032C148.607 285.178 151.335 282.516 153.268 279.302C155.202 276.088 156.276 272.431 156.386 268.682C156.641 263.334 154.996 258.074 153.132 253.051C153.021 252.596 152.753 252.194 152.375 251.917C152.071 251.805 151.744 251.773 151.424 251.822C151.104 251.871 150.802 252.001 150.545 252.198C145.672 254.978 142.717 260.273 141.142 265.657C140.013 269.232 139.636 273.003 140.034 276.731C140.639 280.643 142.49 284.255 145.312 287.032" fill="#455A64"/>
<path d="M145.347 287.032C145.358 286.923 145.358 286.814 145.347 286.706C145.347 286.469 145.347 286.161 145.347 285.783C145.347 284.982 145.347 283.812 145.444 282.378C145.638 278.642 146.055 274.92 146.693 271.233C147.44 266.914 148.347 263.044 149.006 260.247C149.34 258.875 149.604 257.758 149.807 256.931C149.886 256.561 149.956 256.262 150.009 256.051C150.039 255.948 150.056 255.842 150.062 255.734C150.017 255.834 149.982 255.937 149.956 256.042L149.692 256.922C149.472 257.696 149.165 258.822 148.813 260.212C148.1 263 147.159 266.87 146.411 271.198C145.766 274.897 145.378 278.635 145.25 282.387C145.25 283.83 145.25 285.026 145.25 285.8C145.25 286.178 145.25 286.486 145.25 286.733C145.273 286.835 145.306 286.935 145.347 287.032Z" fill="#263238"/>
<g opacity="0.3">
<path d="M145.347 287.031C148.607 285.177 151.335 282.515 153.269 279.302C155.202 276.088 156.276 272.431 156.386 268.682C156.641 263.334 154.997 258.074 153.132 253.051C153.021 252.595 152.753 252.193 152.375 251.916C152.071 251.805 151.744 251.772 151.424 251.822C151.104 251.871 150.802 252 150.546 252.198C145.673 254.977 142.717 260.273 141.142 265.656C140.014 269.232 139.636 273.002 140.034 276.731C140.639 280.643 142.49 284.255 145.312 287.031" fill="black"/>
</g>
<path d="M137.773 327.794C131.167 329.245 125.731 333.898 119.354 336.168C115.141 337.663 110.364 338.2 107.039 341.146C107.84 339.106 109.757 337.742 111.622 336.581C116.877 333.307 122.483 330.634 128.335 328.612C131.335 327.582 134.589 326.712 137.641 327.565" fill="#455A64"/>
<path d="M147.326 333.678C155.604 333.537 164.312 326.5 172.545 326.078C163.925 323.298 151.592 325.568 147.326 333.678Z" fill="#455A64"/>
<path d="M144.089 313.825C139.833 312.439 135.298 312.137 130.895 312.945C126.5 313.757 122.181 314.934 117.982 316.464C118.404 313.596 120.726 311.432 122.908 309.524C124.507 308.033 126.244 306.699 128.097 305.539C129.962 304.375 132.119 303.765 134.316 303.78C135.634 303.866 136.921 304.217 138.1 304.813C139.279 305.408 140.326 306.236 141.178 307.245C142.849 309.069 143.88 311.389 144.115 313.851" fill="#455A64"/>
<path d="M161.075 304.694C166.282 300.243 174.172 300.683 181.016 300.833C170.016 306.076 159.641 312.541 150.088 320.106C149.824 315.268 154.495 310.306 161.075 304.694Z" fill="#455A64"/>
<g opacity="0.3">
<path d="M161.075 304.694C166.282 300.243 174.172 300.683 181.016 300.833C170.016 306.076 159.641 312.541 150.088 320.106C149.824 315.268 154.495 310.306 161.075 304.694Z" fill="black"/>
</g>
<path d="M141.749 298.555C139.211 296.79 136.534 295.234 133.745 293.901C131 292.652 128.467 290.664 125.828 289.23C122.397 287.374 119.424 284.788 116.266 282.484C113.109 280.179 109.66 278.086 105.799 277.487C108.974 276.927 112.236 277.117 115.325 278.042C118.404 278.976 121.404 280.153 124.297 281.56C128.361 283.39 132.496 285.263 135.812 288.236C139.128 291.21 142.136 294.139 141.784 298.581" fill="#455A64"/>
<path d="M119.503 333.678C119.596 333.651 119.684 333.612 119.767 333.564L120.489 333.186C121.113 332.86 122.01 332.367 123.127 331.796C123.682 331.505 124.297 331.198 124.966 330.916C125.634 330.635 126.356 330.265 127.121 329.931C128.766 329.202 130.47 328.613 132.214 328.172C133.936 327.7 135.748 327.655 137.492 328.04C138.26 328.202 139.013 328.429 139.744 328.717C140.374 328.97 140.981 329.279 141.556 329.641C142.395 330.171 143.164 330.807 143.843 331.532C144.318 332.042 144.555 332.359 144.573 332.341C144.534 332.253 144.484 332.17 144.423 332.095C144.318 331.945 144.151 331.725 143.922 331.453C143.27 330.688 142.512 330.022 141.67 329.474C141.09 329.087 140.474 328.757 139.832 328.488C139.093 328.19 138.331 327.951 137.553 327.776C135.76 327.358 133.891 327.398 132.117 327.89C130.354 328.338 128.635 328.945 126.98 329.702C126.215 330.036 125.494 330.371 124.834 330.714C124.174 331.057 123.55 331.356 123.004 331.664C121.887 332.262 120.999 332.781 120.365 333.142L119.67 333.564C119.612 333.597 119.556 333.635 119.503 333.678Z" fill="#263238"/>
<path d="M153.501 329.579C153.501 329.579 153.308 329.579 152.982 329.729C152.518 329.892 152.066 330.086 151.628 330.309C150.18 331.045 148.85 331.991 147.678 333.115C146.506 334.238 145.51 335.531 144.722 336.95C144.48 337.379 144.265 337.822 144.08 338.279C143.998 338.44 143.939 338.611 143.904 338.789C143.957 338.789 144.265 338.112 144.898 337.03C146.559 334.282 148.913 332.019 151.724 330.468C152.806 329.905 153.519 329.623 153.501 329.579Z" fill="#263238"/>
<path d="M171.815 304.272C171.694 304.294 171.576 304.329 171.463 304.378L170.469 304.729L168.903 305.31C168.288 305.539 167.628 305.873 166.88 306.19C162.997 307.986 159.373 310.297 156.105 313.059C154.324 314.595 152.646 316.247 151.082 318.003C149.816 319.447 148.627 320.956 147.52 322.524C146.578 323.861 145.857 324.97 145.364 325.744L144.802 326.623C144.729 326.722 144.667 326.828 144.617 326.94C144.706 326.857 144.783 326.762 144.846 326.659C144.995 326.465 145.206 326.175 145.461 325.779C145.98 325.031 146.728 323.932 147.687 322.612C148.646 321.293 149.859 319.771 151.284 318.161C152.851 316.421 154.525 314.782 156.298 313.253C159.552 310.516 163.137 308.199 166.968 306.357C167.707 306.014 168.367 305.671 168.965 305.424L170.504 304.809L171.481 304.404C171.598 304.375 171.71 304.331 171.815 304.272Z" fill="#263238"/>
<path d="M131.677 309.172C131.9 309.175 132.122 309.149 132.337 309.093L133.111 308.934C133.41 308.873 133.753 308.873 134.132 308.837C136.093 308.664 138.064 309.051 139.814 309.955C140.776 310.455 141.652 311.105 142.409 311.881C143.037 312.501 143.594 313.188 144.071 313.93C144.498 314.628 144.877 315.354 145.206 316.103C145.183 315.882 145.127 315.665 145.039 315.461C144.832 314.89 144.567 314.342 144.247 313.825C143.786 313.05 143.234 312.332 142.602 311.687C141.521 310.555 140.191 309.689 138.718 309.158C137.245 308.627 135.669 308.445 134.114 308.626C133.736 308.679 133.384 308.697 133.085 308.767L132.328 308.961C132.104 309.005 131.885 309.076 131.677 309.172Z" fill="#263238"/>
<path d="M123.365 283.425C123.46 283.501 123.563 283.566 123.673 283.618L124.597 284.12C125.406 284.551 126.558 285.184 127.957 286.011C129.355 286.838 131 287.885 132.751 289.134C134.664 290.469 136.457 291.97 138.108 293.62C138.958 294.464 139.694 295.417 140.298 296.452C140.835 297.49 141.354 298.493 141.829 299.46C142.686 301.164 143.455 302.911 144.133 304.694C144.575 305.901 144.948 307.131 145.25 308.38C145.461 309.26 145.532 309.77 145.567 309.761C145.581 309.638 145.581 309.514 145.567 309.391C145.567 309.154 145.488 308.802 145.391 308.353C145.138 307.087 144.794 305.841 144.362 304.624C143.71 302.824 142.959 301.062 142.11 299.346C141.635 298.37 141.125 297.358 140.588 296.32C139.976 295.255 139.225 294.275 138.354 293.409C136.69 291.75 134.879 290.246 132.944 288.914C131.185 287.665 129.514 286.653 128.098 285.835C126.681 285.017 125.503 284.419 124.685 284.014L123.735 283.566C123.619 283.502 123.494 283.454 123.365 283.425Z" fill="#263238"/>
<path d="M146.561 308.433C146.645 308.206 146.701 307.97 146.728 307.729C146.825 307.219 146.948 306.586 147.089 305.821C147.49 303.722 148.013 301.648 148.654 299.61C149.323 297.582 150.113 295.597 151.021 293.664C151.337 292.952 151.61 292.362 151.821 291.905C151.941 291.699 152.03 291.477 152.085 291.245C151.944 291.434 151.823 291.638 151.724 291.852C151.504 292.257 151.197 292.855 150.845 293.611C149.882 295.534 149.062 297.524 148.391 299.566C147.74 301.614 147.243 303.708 146.904 305.829C146.772 306.639 146.675 307.298 146.631 307.765C146.587 307.985 146.563 308.208 146.561 308.433Z" fill="#263238"/>
<path d="M147.185 289.583C147.438 286.462 148.336 283.427 149.824 280.672C151.865 276.88 154.712 273.581 158.165 271.006C161.618 268.432 165.592 266.645 169.809 265.771L151.337 293.347L148.945 298.273C147.446 295.638 146.829 292.593 147.185 289.583Z" fill="#455A64"/>
<path d="M120.62 343.961H163.643V351.587H120.62V343.961Z" fill="#FF725E"/>
<path d="M160.433 350.066L156.765 373.737H128.203L123.831 350.066H160.433Z" fill="#FF725E"/>
<path d="M120.647 351.596C120.647 351.675 130.323 351.745 142.321 351.745C154.319 351.745 163.995 351.675 163.995 351.596C163.995 351.517 154.319 351.438 142.321 351.438C130.323 351.438 120.647 351.508 120.647 351.596Z" fill="#263238"/>
<path d="M149.763 0.492188H266.243C290.048 0.492188 309.345 19.7895 309.345 43.594C309.345 67.3985 290.048 86.6958 266.243 86.6958H149.763C125.958 86.6958 106.661 67.3985 106.661 43.594C106.661 19.7895 125.958 0.492188 149.763 0.492188Z" fill="#E0E0E0"/>
<path d="M149.763 86.696C149.763 86.696 149.323 86.696 148.47 86.608L146.869 86.5112C146.132 86.4957 145.397 86.431 144.67 86.3177L141.89 85.8867L141.107 85.7635L140.307 85.5524L138.6 85.1126C138.011 84.9455 137.377 84.8135 136.762 84.6112L134.835 83.8987C134.184 83.6436 133.481 83.4237 132.803 83.1247L130.71 82.1131C129.193 81.377 127.724 80.5456 126.312 79.6237C125.544 79.1487 124.806 78.6258 124.104 78.058L122.978 77.1784L122.406 76.7562L121.87 76.2724C121.157 75.6126 120.427 74.9529 119.679 74.2756C118.932 73.5983 118.298 72.7802 117.577 72.015C117.234 71.6279 116.865 71.2409 116.521 70.8363L115.554 69.5344C115.228 69.1034 114.894 68.6548 114.569 68.215L114.067 67.5464L113.636 66.8251C111 62.7914 109.094 58.3251 108.007 53.6307C106.764 48.3662 106.513 42.9162 107.268 37.5599C108.104 31.6637 110.162 26.0072 113.311 20.9525C116.703 15.4524 121.313 10.8056 126.787 7.37101L128.933 6.06916C129.654 5.63814 130.446 5.32148 131.202 4.93444C131.959 4.5474 132.707 4.15157 133.516 3.87888L135.935 2.99925C136.348 2.85851 136.744 2.68259 137.158 2.56823L138.415 2.24277L140.949 1.60064C141.828 1.44231 142.708 1.32796 143.588 1.18722C144.46 1.02834 145.341 0.922589 146.227 0.870549C149.745 0.615457 153.395 0.721015 157.064 0.694626H168.208H266.234C270.537 0.761377 274.812 1.40333 278.945 2.60342C282.986 3.92236 286.832 5.77732 290.38 8.11869C293.809 10.5184 296.901 13.3675 299.572 16.5895C302.133 19.8117 304.251 23.3616 305.87 27.1451C307.374 30.9121 308.376 34.8602 308.852 38.8881C308.967 39.8821 308.975 40.8849 309.037 41.8789L309.116 43.3654C309.116 43.8668 309.116 44.3594 309.063 44.852C309.011 45.846 308.967 46.8312 308.914 47.8164C308.861 48.8015 308.624 49.7603 308.483 50.7367L308.263 52.1881L307.911 53.6043L307.172 56.4367C306.838 57.3163 306.504 58.2488 306.178 59.1548C306.002 59.6122 305.87 60.0344 305.659 60.5094L305.035 61.8025C303.42 65.2484 301.349 68.4614 298.877 71.3552L296.995 73.4312L296.52 73.9413L296.01 74.4163L294.981 75.3487C293.627 76.5933 292.193 77.7481 290.688 78.8057C290.326 79.082 289.947 79.3347 289.553 79.5622L288.383 80.2659L287.222 80.9784L286.642 81.3302L286.035 81.6205C284.448 82.4497 282.809 83.1726 281.126 83.7844C280.291 84.0747 279.473 84.4265 278.628 84.664L276.077 85.3149L274.811 85.6404L273.518 85.8339L270.949 86.2298C270.069 86.3441 269.19 86.3353 268.389 86.3969C267.589 86.4585 266.683 86.5024 265.83 86.5112H260.763H223.493L169.519 86.5904L154.847 86.6344H151.029H149.727C149.727 86.6344 150.167 86.6344 151.029 86.6344H154.847H169.519L223.493 86.7048H260.763H265.83C266.709 86.7048 267.589 86.6256 268.407 86.5904C269.225 86.5552 270.166 86.5464 270.993 86.4233L273.632 86.0362L274.934 85.8339L276.209 85.5085L278.787 84.8487C279.666 84.6112 280.467 84.2594 281.311 83.9691C283.012 83.3553 284.67 82.6264 286.272 81.7876L286.888 81.4885L287.469 81.1367L288.638 80.4242L289.817 79.7117C290.22 79.4865 290.606 79.2306 290.969 78.9464C292.492 77.8716 293.941 76.6962 295.306 75.4279L296.344 74.4867L296.863 74.0117L297.338 73.4927L299.247 71.3992C301.726 68.466 303.797 65.2112 305.404 61.7233L306.038 60.4126C306.249 59.9728 306.381 59.533 306.565 59.0492L307.568 56.296C307.814 55.346 308.061 54.396 308.316 53.446L308.676 52.0122L308.905 50.5432C309.046 49.5668 309.222 48.5816 309.336 47.5964C309.45 46.6113 309.433 45.5997 309.486 44.6057C309.486 44.1043 309.556 43.6029 309.538 43.1015L309.459 41.5974C309.398 40.5946 309.398 39.583 309.275 38.5802C308.79 34.5209 307.772 30.543 306.249 26.7492C304.617 22.9233 302.478 19.3344 299.889 16.0793C294.495 9.41234 287.247 4.49335 279.059 1.9437C274.885 0.725611 270.565 0.0747105 266.217 0.00851332H168.191H157.037C153.369 0.00851332 149.754 -0.0618559 146.165 0.202033C145.279 0.246987 144.397 0.352793 143.526 0.5187C142.646 0.65944 141.767 0.77379 140.887 0.932123L138.327 1.59184L137.061 1.91731C136.639 2.03166 136.243 2.20759 135.829 2.34833L133.393 3.22796C132.575 3.50944 131.827 3.94925 131.053 4.3011C130.279 4.65296 129.496 5.00481 128.766 5.44462L126.602 6.76406C121.056 10.3143 116.415 15.1092 113.047 20.7678C109.882 25.8552 107.814 31.5478 106.977 37.4807C106.229 42.8771 106.492 48.3655 107.752 53.6659C108.854 58.4222 110.783 62.9478 113.452 67.0362L113.891 67.7575L114.393 68.4349L115.387 69.7543L116.398 71.021C116.75 71.4344 117.12 71.8214 117.471 72.2085C118.193 72.9737 118.844 73.783 119.591 74.4691L121.799 76.4659L122.345 76.9497L122.916 77.3807L124.042 78.2603C124.754 78.8242 125.497 79.347 126.268 79.826C127.679 80.7457 129.149 81.5742 130.666 82.3066L132.768 83.3094C133.454 83.6173 134.158 83.8284 134.818 84.0835L136.744 84.7872C137.377 84.9895 138.002 85.1126 138.6 85.2798L140.315 85.7108L141.116 85.9131L141.908 86.0362L144.696 86.4497C145.427 86.5554 146.165 86.6112 146.904 86.6168L148.505 86.6872L149.763 86.696Z" fill="#263238"/>
<g opacity="0.3">
<path d="M261.159 85.0949C238.603 85.0949 220.318 66.8097 220.318 44.2538C220.318 21.6978 238.603 3.4126 261.159 3.4126C283.715 3.4126 302 21.6978 302 44.2538C302 66.8097 283.715 85.0949 261.159 85.0949Z" fill="black"/>
</g>
<path d="M264.976 84.4353C242.421 84.4353 224.135 66.1501 224.135 43.5941C224.135 21.0381 242.421 2.75293 264.976 2.75293C287.532 2.75293 305.818 21.0381 305.818 43.5941C305.818 66.1501 287.532 84.4353 264.976 84.4353Z" fill="#455A64"/>
<path d="M224.135 43.5942C224.135 43.5942 224.135 43.3654 224.197 42.9344L224.311 40.9905C224.311 40.5682 224.364 40.1108 224.399 39.5654C224.434 39.0201 224.566 38.4747 224.654 37.859L224.971 35.871C225.099 35.1093 225.266 34.3548 225.472 33.6104C226.423 29.7876 227.947 26.1308 229.993 22.7645C232.671 18.2912 236.183 14.3734 240.338 11.2238L242.097 9.91316C242.713 9.50853 243.364 9.13909 244.006 8.74325C244.648 8.34742 245.29 7.9164 245.994 7.59094L248.105 6.57937L249.222 6.10437L250.348 5.69974L252.635 4.82011C253.418 4.56502 254.227 4.39789 255.028 4.17798C255.837 3.94456 256.659 3.75951 257.491 3.62381C259.187 3.3073 260.904 3.10745 262.628 3.02567C263.507 3.02567 264.387 2.91132 265.267 2.92011L267.906 3.06085C268.363 3.06085 268.785 3.06085 269.269 3.14881L270.624 3.35993C271.503 3.50946 272.444 3.61502 273.35 3.79974C275.206 4.23413 277.03 4.78949 278.813 5.46224L280.159 5.95483C280.387 6.0428 280.616 6.11316 280.836 6.20992L281.487 6.52659L284.126 7.79326C285.005 8.25946 285.806 8.79603 286.65 9.29742C287.064 9.57011 287.53 9.79001 287.908 10.0979L289.105 10.9775C290.727 12.1801 292.267 13.4908 293.714 14.9007L295.772 17.1701L296.291 17.7419L296.766 18.3576L297.69 19.6067L298.622 20.8557L299.431 22.1752L300.241 23.521L300.654 24.1895C300.777 24.427 300.883 24.6645 300.997 24.902C301.455 25.852 301.877 26.8108 302.378 27.7696C302.88 28.7284 303.108 29.7664 303.478 30.778C304.818 34.9172 305.527 39.2348 305.58 43.5854C305.525 47.9379 304.82 52.2578 303.486 56.4016C303.117 57.4161 302.748 58.4188 302.378 59.4099L301.006 62.2775L300.654 62.99L300.249 63.6673L299.431 65.0131L298.613 66.3414L297.681 67.5992L296.749 68.8395L296.282 69.4552L295.763 70.027L293.696 72.3052C292.247 73.7098 290.708 75.0174 289.087 76.2196L287.891 77.0992C287.495 77.3983 287.055 77.627 286.633 77.8909C285.753 78.4011 284.962 78.9376 284.108 79.4038L281.469 80.6705L280.818 80.9872L280.15 81.2423L278.795 81.7349C277.027 82.3831 275.216 82.9121 273.377 83.3182C272.497 83.5117 271.547 83.6173 270.65 83.7668L269.287 83.9779C268.838 84.0307 268.407 84.0307 267.932 84.0659L265.24 84.1978C264.361 84.1978 263.481 84.1274 262.601 84.1011C260.877 84.0193 259.161 83.8194 257.464 83.5029C256.633 83.3682 255.81 83.1831 255.001 82.9488C254.201 82.7288 253.383 82.5617 252.609 82.3066L250.322 81.471L249.222 81.1103L248.149 80.6001L246.038 79.5886C245.334 79.2719 244.71 78.8145 244.05 78.4451C243.39 78.0756 242.757 77.671 242.141 77.2664L240.382 75.9557C236.214 72.8078 232.696 68.8828 230.02 64.3974C227.962 61.031 226.428 57.3709 225.472 53.5428C225.296 52.7511 225.024 52.0298 224.944 51.3173L224.628 49.3293C224.54 48.7136 224.425 48.1418 224.373 47.6229C224.32 47.1039 224.311 46.6201 224.285 46.1891L224.17 44.2539C224.17 43.8141 224.109 43.5942 224.109 43.5942C224.109 43.5942 224.109 43.8141 224.109 44.2539C224.109 44.6937 224.109 45.3534 224.188 46.1979C224.188 46.6289 224.188 47.0775 224.25 47.6317C224.311 48.1858 224.399 48.7224 224.487 49.3909C224.575 50.0594 224.672 50.6752 224.777 51.3877C224.912 52.1437 225.085 52.8924 225.296 53.6307C226.215 57.4805 227.722 61.1655 229.765 64.5557C232.433 69.0813 235.956 73.0456 240.136 76.2284L241.895 77.5478C242.511 77.9613 243.17 78.3395 243.812 78.7441C244.455 79.1488 245.106 79.6238 245.809 79.9052L247.938 80.9344L249.02 81.4534L250.155 81.8668L252.459 82.7464C253.242 83.0103 254.069 83.1775 254.878 83.4062C255.693 83.6435 256.521 83.8315 257.359 83.9691C259.073 84.2915 260.807 84.4973 262.549 84.5849C263.428 84.5849 264.308 84.708 265.187 84.6992L267.897 84.5585C268.354 84.5585 268.82 84.5585 269.269 84.4705L270.641 84.2682C271.521 84.1187 272.488 84.0131 273.403 83.8196C275.263 83.4105 277.094 82.8786 278.883 82.2275L280.247 81.7261C280.467 81.6469 280.704 81.5677 280.924 81.471L281.584 81.1543L284.223 79.8789C285.102 79.4127 285.92 78.8673 286.782 78.3571C287.205 78.0844 287.662 77.8557 288.049 77.5566L289.263 76.677C290.901 75.4632 292.458 74.1439 293.925 72.7275L296.01 70.4228L296.537 69.8511L297.012 69.2265L297.954 67.9687L298.895 66.702L299.722 65.3562L300.549 63.9928L300.962 63.3066L301.314 62.5941L302.712 59.6914C303.082 58.6886 303.451 57.6682 303.83 56.6566C305.18 52.4649 305.895 48.0945 305.949 43.6909C305.895 39.2895 305.178 34.9214 303.821 30.734C303.451 29.7224 303.082 28.702 302.712 27.6993L301.314 24.7965C301.199 24.559 301.085 24.3127 300.962 24.084L300.549 23.3979L299.722 22.0432L298.895 20.6886L297.945 19.4219L297.004 18.1729L296.537 17.5483L296.01 16.9678L293.916 14.672C292.454 13.2481 290.896 11.9256 289.254 10.7136L288.049 9.834C287.644 9.52613 287.169 9.29742 286.782 9.03353C285.903 8.52335 285.085 7.97798 284.223 7.51178L281.584 6.22751L280.924 5.91085L280.247 5.65576L278.883 5.16316C277.093 4.51305 275.262 3.97831 273.403 3.56224C272.524 3.37752 271.556 3.27196 270.641 3.12243L269.269 2.91131C268.82 2.85854 268.389 2.85854 267.906 2.83215L265.187 2.69141C264.308 2.69141 263.428 2.77057 262.549 2.80576C260.807 2.88609 259.072 3.0889 257.359 3.4127C256.521 3.55332 255.693 3.74426 254.878 3.98446C254.069 4.20437 253.251 4.3715 252.468 4.63539L250.155 5.51502L249.02 5.92844L247.938 6.44742L245.818 7.47659C245.106 7.80205 244.481 8.25946 243.821 8.6377C243.162 9.01594 242.511 9.41177 241.895 9.8252L240.136 11.1534C235.958 14.3387 232.436 18.3025 229.765 22.8261C227.75 26.1759 226.255 29.8121 225.331 33.6104C225.12 34.3487 224.947 35.0974 224.812 35.8534C224.707 36.5659 224.61 37.2256 224.522 37.8502C224.434 38.4747 224.329 39.0377 224.285 39.6094C224.241 40.1812 224.241 40.6122 224.223 41.0432C224.223 41.9229 224.162 42.5298 224.144 42.9872C224.126 43.4446 224.135 43.5942 224.135 43.5942Z" fill="#263238"/>
<g opacity="0.3">
<path d="M250.216 53.9646L259.602 44.6493L250.295 35.2637L255.679 29.9155L264.994 39.3012L274.38 29.9859L279.737 35.378L270.351 44.6933L279.666 54.0789L274.265 59.4271L264.959 50.0414L255.573 59.3567L250.216 53.9646Z" fill="black"/>
</g>
<path d="M149.745 103.294H266.226C290.03 103.294 309.327 122.592 309.327 146.396C309.327 170.201 290.03 189.498 266.226 189.498H149.745C125.941 189.498 106.643 170.201 106.643 146.396C106.643 122.592 125.941 103.294 149.745 103.294Z" fill="#E0E0E0"/>
<path d="M149.745 189.498L148.452 189.41L146.851 189.322C146.115 189.302 145.38 189.238 144.652 189.129L141.872 188.689L141.09 188.566L140.289 188.363L138.583 187.915C137.984 187.748 137.36 187.625 136.735 187.413L134.818 186.71C134.167 186.455 133.463 186.235 132.777 185.927L130.692 184.915C129.175 184.184 127.705 183.355 126.294 182.435C125.53 181.954 124.796 181.429 124.095 180.86L122.969 179.981L122.397 179.55L121.861 179.066L119.671 177.069C118.932 176.383 118.29 175.574 117.568 174.817C117.225 174.421 116.856 174.034 116.513 173.63C116.17 173.225 115.871 172.75 115.545 172.337L114.56 171.017L114.059 170.34L113.628 169.619C110.99 165.585 109.085 161.119 107.998 156.424C106.755 151.157 106.505 145.704 107.259 140.344C108.133 134.201 110.331 128.32 113.701 123.109C117.071 117.898 121.533 113.481 126.778 110.164L128.924 108.863C129.646 108.423 130.437 108.106 131.185 107.728C131.933 107.35 132.698 106.945 133.507 106.664L135.926 105.784C136.34 105.643 136.735 105.467 137.149 105.362L138.407 105.036L140.94 104.385C141.82 104.227 142.699 104.113 143.579 103.972C144.451 103.812 145.332 103.709 146.218 103.664C149.736 103.4 153.387 103.506 157.055 103.488H168.191H266.217C270.52 103.558 274.795 104.203 278.927 105.406C282.969 106.723 286.816 108.578 290.363 110.921C293.789 113.318 296.877 116.164 299.546 119.383C302.114 122.602 304.235 126.152 305.853 129.938C307.351 133.696 308.359 137.631 308.852 141.646C308.967 142.632 308.976 143.634 309.037 144.628L309.116 146.124C309.116 146.616 309.116 147.109 309.063 147.61C309.011 148.595 308.967 149.581 308.914 150.566C308.861 151.551 308.624 152.519 308.483 153.486L308.263 154.938L307.902 156.363C307.665 157.304 307.419 158.245 307.172 159.186C306.926 160.127 306.504 161.007 306.178 161.913C306.002 162.362 305.87 162.793 305.659 163.259L305.035 164.561C303.418 168.003 301.347 171.213 298.877 174.105L296.995 176.181L296.52 176.7L296.01 177.166L294.981 178.107C293.627 179.349 292.193 180.501 290.688 181.555C290.329 181.834 289.949 182.087 289.553 182.312L288.383 183.024L287.222 183.728L286.642 184.08L286.035 184.37C284.448 185.199 282.809 185.922 281.126 186.534C280.291 186.824 279.473 187.176 278.628 187.413L276.077 188.073L274.811 188.39L273.518 188.592L270.949 188.988C270.07 189.102 269.234 189.094 268.389 189.155C267.545 189.217 266.683 189.261 265.83 189.261H260.763H223.493L169.519 189.331L154.847 189.375H151.029C150.15 189.375 149.727 189.375 149.727 189.375H151.029H154.847L169.519 189.419L223.493 189.498H260.763H265.847C266.727 189.498 267.563 189.428 268.425 189.393C269.287 189.357 270.184 189.34 271.011 189.225L273.606 188.83L274.907 188.636L276.183 188.311L278.76 187.651C279.64 187.413 280.44 187.053 281.285 186.771C282.984 186.157 284.642 185.431 286.246 184.599L286.862 184.3L287.442 183.948L288.612 183.235L289.791 182.523C290.189 182.293 290.571 182.038 290.934 181.757C292.459 180.682 293.911 179.507 295.28 178.239L296.318 177.289L296.837 176.823L297.312 176.304C297.945 175.6 298.578 174.905 299.22 174.21C301.697 171.276 303.769 168.021 305.378 164.534L306.011 163.224C306.222 162.784 306.354 162.344 306.53 161.86C306.873 160.981 307.207 160.022 307.542 159.107C307.876 158.192 308.034 157.207 308.289 156.248L308.65 154.814L308.87 153.345C309.019 152.369 309.195 151.393 309.31 150.399C309.424 149.405 309.407 148.411 309.459 147.408C309.459 146.907 309.53 146.405 309.512 145.904L309.433 144.4C309.371 143.397 309.371 142.385 309.248 141.382C309.01 139.449 308.645 137.533 308.157 135.647C307.654 133.657 307.016 131.702 306.249 129.798C304.618 125.97 302.475 122.38 299.88 119.128C297.175 115.871 294.041 112.995 290.565 110.578C286.984 108.212 283.103 106.337 279.024 105.001C274.849 103.787 270.529 103.136 266.182 103.066H168.156H157.037C153.369 103.066 149.754 102.987 146.165 103.251C145.28 103.304 144.399 103.41 143.526 103.567C142.646 103.708 141.767 103.822 140.887 103.989L138.327 104.649L137.061 104.975C136.639 105.089 136.243 105.265 135.829 105.406L133.393 106.285C132.575 106.567 131.827 107.007 131.044 107.358C130.261 107.71 129.496 108.071 128.766 108.502L126.602 109.821C121.086 113.292 116.443 117.984 113.029 123.535C109.864 128.622 107.797 134.315 106.96 140.248C106.212 145.644 106.474 151.133 107.734 156.433C108.837 161.167 110.767 165.669 113.434 169.733L113.874 170.454L114.375 171.132L115.369 172.46L116.346 173.762C116.697 174.166 117.067 174.553 117.419 174.949C118.14 175.714 118.791 176.524 119.539 177.21L121.746 179.207L122.292 179.69L122.864 180.121L123.99 181.001C124.701 181.568 125.444 182.093 126.215 182.575C127.629 183.489 129.098 184.315 130.613 185.047L132.715 186.059C133.402 186.358 134.105 186.578 134.765 186.824L136.691 187.528C137.325 187.73 137.949 187.862 138.539 188.02L140.298 188.46L141.098 188.663L141.89 188.777L144.67 189.19C145.404 189.294 146.144 189.353 146.886 189.366L148.487 189.428L149.745 189.498Z" fill="#263238"/>
<path d="M179.494 149.44C179.793 149.669 187.006 153.9 187.006 153.9L192.187 158.298L189.812 151.261C189.812 151.261 190.296 149.458 191.642 151.516C192.988 153.574 197.729 161.482 197.729 161.482L201.907 167.314L196.401 175.283C196.401 175.283 192.337 172.944 190.428 172.161C188.519 171.378 184.367 170.709 183.162 171.008C181.957 171.308 176.125 170.868 175.897 170.182C175.668 169.495 176.539 168.871 178.113 168.994C179.688 169.117 185.054 168.845 185.247 167.789C185.441 166.733 175.448 165.3 174.691 164.684C173.935 164.068 173.812 162.925 176.451 163.004C179.09 163.083 184.411 164.262 185.247 163.259C186.083 162.256 183.725 161.64 183.426 161.412C183.127 161.183 177.55 159.133 176.389 157.946C175.659 157.189 176.451 155.659 178.025 156.108C179.6 156.556 185.625 159.626 186.778 159.406C187.93 159.186 185.185 156.767 184.754 156.486C181.843 154.524 178.773 153.055 178.729 151.085C178.719 150.77 178.783 150.457 178.916 150.171C179.049 149.886 179.247 149.635 179.494 149.44Z" fill="#FFBF9D"/>
<path d="M196.401 175.31L211.143 182.039L212.384 169.926L201.907 167.34L196.401 175.31Z" fill="#FFBF9D"/>
<path d="M212.137 184.907C217.565 187.677 221.576 185.962 223.722 182.927C226.088 179.585 234.04 133.976 234.04 133.976L232.773 129.165C232.773 129.165 226.466 131.179 224.857 134.565C223.247 137.952 212.929 163.892 212.929 163.892L204.282 162.687C202.137 167.171 199.658 171.487 196.867 175.6L212.137 184.907Z" fill="#FF725E"/>
<g opacity="0.3">
<path d="M156.334 187.906C133.778 187.906 115.492 169.621 115.492 147.065C115.492 124.509 133.778 106.224 156.334 106.224C178.89 106.224 197.175 124.509 197.175 147.065C197.175 169.621 178.89 187.906 156.334 187.906Z" fill="black"/>
</g>
<path d="M150.985 187.238C128.43 187.238 110.144 168.952 110.144 146.396C110.144 123.84 128.43 105.555 150.985 105.555C173.541 105.555 191.827 123.84 191.827 146.396C191.827 168.952 173.541 187.238 150.985 187.238Z" fill="#FF725E"/>
<path d="M110.144 146.396C110.144 146.396 110.144 146.177 110.206 145.737L110.329 143.802C110.329 143.371 110.382 142.922 110.408 142.368C110.434 141.814 110.575 141.286 110.663 140.661L110.98 138.673C111.068 137.961 111.332 137.24 111.508 136.448C112.461 132.629 113.985 128.975 116.029 125.611C118.704 121.136 122.216 117.217 126.373 114.07L128.133 112.759C128.748 112.355 129.399 111.977 130.05 111.581C130.701 111.185 131.326 110.754 132.029 110.437L134.14 109.426L135.214 108.915L136.339 108.502L138.626 107.666C139.409 107.411 140.219 107.244 141.028 107.024C141.834 106.79 142.654 106.605 143.482 106.47C145.179 106.158 146.895 105.958 148.619 105.872C149.499 105.872 150.378 105.758 151.258 105.775L153.941 105.916C154.398 105.916 154.82 105.916 155.304 106.004L156.659 106.206C157.539 106.356 158.48 106.461 159.386 106.655C161.225 107.064 163.035 107.593 164.804 108.238L166.159 108.74L166.827 108.986L167.478 109.303L170.117 110.569C170.997 111.035 171.797 111.581 172.642 112.082C173.064 112.346 173.521 112.575 173.9 112.874L175.096 113.753C176.717 114.956 178.256 116.263 179.705 117.668L181.772 119.937L182.291 120.509L182.757 121.134L183.681 122.374L184.614 123.623L185.432 124.96L186.25 126.306L186.663 126.983C186.786 127.212 186.892 127.458 187.006 127.687C187.464 128.646 187.93 129.596 188.387 130.554C188.845 131.513 189.126 132.56 189.487 133.563C192.284 141.878 192.284 150.88 189.487 159.195L188.378 162.203L187.006 165.062L186.654 165.775L186.25 166.452L185.432 167.798L184.614 169.135L183.681 170.384L182.749 171.633L182.282 172.249L181.764 172.821L179.696 175.09C178.25 176.5 176.71 177.811 175.087 179.013L173.891 179.893C173.495 180.201 173.055 180.421 172.633 180.693C171.753 181.195 170.962 181.74 170.108 182.197L167.47 183.464L166.819 183.781C166.599 183.877 166.37 183.948 166.15 184.036L164.795 184.528C163.026 185.177 161.216 185.709 159.377 186.121C158.497 186.305 157.547 186.411 156.65 186.56L155.295 186.771C154.838 186.833 154.416 186.824 153.932 186.859L151.24 187C150.361 187 149.481 186.93 148.601 186.895C146.877 186.817 145.16 186.617 143.464 186.296C142.642 186.178 141.828 186.008 141.028 185.786C140.227 185.566 139.409 185.399 138.635 185.144L136.348 184.308L135.222 183.904L134.149 183.394L132.038 182.382C131.334 182.057 130.71 181.608 130.05 181.23C129.39 180.852 128.757 180.465 128.141 180.06L126.382 178.749C122.225 175.599 118.713 171.678 116.038 167.2C113.994 163.835 112.47 160.182 111.516 156.363C111.34 155.58 111.077 154.85 110.989 154.137L110.672 152.149C110.584 151.534 110.47 150.971 110.417 150.443C110.364 149.915 110.355 149.44 110.338 149.018L110.241 147.083C110.241 146.652 110.179 146.423 110.179 146.423C110.179 146.423 110.179 146.652 110.179 147.083C110.179 147.514 110.179 148.182 110.25 149.027C110.25 149.458 110.294 149.906 110.311 150.46C110.329 151.015 110.461 151.56 110.549 152.176C110.637 152.791 110.733 153.46 110.839 154.172C110.974 154.928 111.147 155.677 111.358 156.415C112.276 160.254 113.777 163.93 115.809 167.314C118.48 171.838 122.002 175.801 126.18 178.987L127.939 180.315C128.555 180.728 129.214 181.098 129.857 181.502C130.499 181.907 131.15 182.382 131.853 182.664L133.991 183.693L135.073 184.212L136.208 184.625L138.512 185.505C139.295 185.769 140.122 185.936 140.931 186.156C141.745 186.4 142.573 186.591 143.412 186.727C145.126 187.05 146.86 187.256 148.601 187.343C149.481 187.343 150.361 187.458 151.24 187.449L153.958 187.317C154.407 187.317 154.838 187.317 155.322 187.229L156.694 187.018C157.574 186.868 158.541 186.763 159.456 186.578C161.316 186.166 163.147 185.631 164.936 184.977L166.3 184.484L166.977 184.229L167.637 183.913L170.276 182.637C171.155 182.162 171.973 181.617 172.835 181.107C173.271 180.862 173.694 180.595 174.102 180.306L175.316 179.427C176.954 178.21 178.511 176.887 179.978 175.468L182.063 173.172L182.59 172.592L183.065 171.967L184.007 170.709L185.009 169.408L185.836 168.053L186.663 166.69L187.076 166.012L187.428 165.291L188.827 162.397C189.196 161.385 189.566 160.374 189.944 159.353C192.771 150.947 192.771 141.846 189.944 133.44C189.566 132.419 189.196 131.408 188.827 130.396L187.428 127.502C187.314 127.256 187.2 127.018 187.076 126.781L186.663 126.103L185.836 124.74L185.009 123.385L184.059 122.128L183.118 120.87L182.652 120.245L182.124 119.665L180.031 117.369C178.569 115.95 177.015 114.63 175.377 113.419L174.164 112.54C173.759 112.24 173.284 112.012 172.897 111.739C172.017 111.229 171.199 110.684 170.337 110.217L167.698 108.942L167.039 108.625C166.819 108.528 166.581 108.458 166.361 108.37L164.998 107.869C163.208 107.218 161.378 106.686 159.518 106.277C158.638 106.083 157.67 105.978 156.756 105.828L155.392 105.626C154.935 105.564 154.469 105.564 154.02 105.538L151.302 105.406C150.422 105.406 149.543 105.476 148.663 105.511C146.921 105.599 145.187 105.805 143.473 106.127C142.636 106.265 141.807 106.453 140.993 106.69C140.183 106.919 139.365 107.086 138.583 107.35L136.269 108.229L135.134 108.643L134.052 109.162L131.933 110.191C131.22 110.516 130.596 110.974 129.936 111.352C129.276 111.73 128.634 112.135 128.009 112.54L126.25 113.868C122.072 117.053 118.551 121.017 115.879 125.54C113.84 128.932 112.333 132.617 111.411 136.465C111.2 137.204 111.026 137.952 110.892 138.709C110.786 139.421 110.689 140.09 110.602 140.705C110.514 141.321 110.408 141.893 110.364 142.421C110.32 142.948 110.32 143.423 110.302 143.854C110.302 144.734 110.25 145.35 110.232 145.798C110.214 146.247 110.144 146.396 110.144 146.396Z" fill="#263238"/>
<path d="M248 73.1938C250.155 71.8216 250.639 68.6549 249.513 66.3855C248.867 65.2812 247.976 64.3402 246.908 63.6356C245.84 62.9309 244.625 62.4813 243.355 62.3216C241.522 62.0433 239.649 62.2027 237.89 62.7867C236.13 63.3707 234.534 64.3627 233.231 65.6818C231.841 67.1156 230.706 68.9804 228.833 69.6401C227.17 70.2119 225.314 69.6929 223.555 69.9216C222.394 70.1316 221.295 70.5983 220.337 71.2878C219.38 71.9772 218.589 72.8718 218.022 73.9063C216.908 75.9889 216.24 78.2806 216.06 80.6355C215.805 82.7818 215.638 85.1304 214.152 86.6961C212.665 88.2619 210.404 88.5521 208.601 89.6341C206.946 90.7261 205.783 92.4218 205.36 94.3595C204.938 96.2971 205.29 98.323 206.34 100.005C207.062 101.052 208.1 102.002 208.17 103.268C208.24 104.535 207.502 105.441 207.15 106.541C206.969 107.251 206.943 107.992 207.073 108.714C207.202 109.435 207.485 110.121 207.902 110.724C208.318 111.327 208.859 111.835 209.488 112.211C210.117 112.588 210.819 112.826 211.548 112.909C213.043 112.988 214.644 112.408 215.99 113.076C217.336 113.745 217.82 115.346 218.629 116.595C219.505 117.775 220.759 118.619 222.182 118.987C223.604 119.356 225.11 119.225 226.449 118.618C227.601 118.055 228.639 117.175 229.871 117.175C231.102 117.175 232.052 118.301 233.257 118.539C234.832 118.838 236.327 117.659 237.259 116.384C238.192 115.108 238.843 113.551 240.039 112.487C241.614 111.088 243.813 110.728 245.792 110.059C247.991 109.305 250.001 108.086 251.688 106.487C253.374 104.887 254.697 102.944 255.566 100.788C256.436 98.632 256.831 96.3144 256.726 93.9924C256.621 91.6703 256.018 89.398 254.958 87.3295" fill="#263238"/>
<path d="M225.2 101.342C224.713 100.826 224.109 100.434 223.44 100.198H223.572C223.448 100.166 223.322 100.143 223.194 100.128C222.967 100.061 222.729 100.042 222.494 100.073C222.259 100.103 222.033 100.182 221.831 100.304C221.071 100.577 220.443 101.127 220.071 101.843C219.78 102.479 219.668 103.182 219.747 103.876C219.826 104.571 220.093 105.23 220.52 105.784C220.83 106.288 221.286 106.686 221.827 106.926C222.369 107.166 222.97 107.236 223.552 107.128C224.134 107.019 224.669 106.737 225.087 106.318C225.505 105.899 225.787 105.363 225.895 104.781C226.077 104.196 226.109 103.574 225.988 102.973C225.866 102.372 225.595 101.811 225.2 101.342Z" fill="#455A64"/>
<path d="M253.621 124.283L255.916 82.2275C255.957 81.3348 255.662 80.4591 255.089 79.7735C254.515 79.0879 253.706 78.6422 252.82 78.5242L234.04 73.1937C227.997 72.3844 223.748 79.7381 223.194 85.8076C222.578 92.5631 222.086 100.823 222.746 105.89C224.065 116.084 232.422 117.624 232.422 117.624C232.422 117.624 232.483 128.003 232.422 131.698L230.099 143.133L253.621 124.283Z" fill="#FFBF9D"/>
<path d="M225.815 94.6745C225.803 95.0135 225.923 95.344 226.149 95.5966C226.375 95.8493 226.691 96.0043 227.029 96.0291C227.194 96.0461 227.361 96.03 227.519 95.982C227.678 95.9339 227.825 95.8548 227.953 95.7492C228.081 95.6436 228.186 95.5136 228.263 95.3669C228.34 95.2201 228.387 95.0595 228.401 94.8944C228.414 94.5554 228.294 94.2248 228.068 93.9722C227.841 93.7196 227.526 93.5646 227.188 93.5398C227.023 93.5228 226.856 93.5388 226.698 93.5869C226.539 93.6349 226.392 93.7141 226.264 93.8197C226.136 93.9253 226.031 94.0553 225.954 94.202C225.877 94.3488 225.83 94.5094 225.815 94.6745Z" fill="#263238"/>
<path d="M224.866 90.1615C225.024 90.3374 226.027 89.6337 227.434 89.6777C228.841 89.7217 229.835 90.4517 229.994 90.2846C230.152 90.1175 229.915 89.8976 229.475 89.5633C228.884 89.1239 228.17 88.8808 227.434 88.8684C226.705 88.8453 225.987 89.0548 225.385 89.4666C224.945 89.7832 224.786 90.0823 224.866 90.1615Z" fill="#263238"/>
<path d="M237.884 94.6743C237.862 95.0206 237.979 95.3614 238.208 95.622C238.437 95.8825 238.76 96.0415 239.106 96.0641C239.271 96.0811 239.438 96.0651 239.596 96.017C239.755 95.9689 239.902 95.8898 240.03 95.7842C240.158 95.6786 240.263 95.5486 240.34 95.4019C240.417 95.2551 240.464 95.0945 240.479 94.9294C240.491 94.5904 240.371 94.2599 240.145 94.0072C239.919 93.7546 239.603 93.5996 239.265 93.5748C238.936 93.5377 238.606 93.6326 238.347 93.8388C238.088 94.045 237.921 94.3455 237.884 94.6743Z" fill="#263238"/>
<path d="M238.623 90.7863C238.781 90.9622 239.784 90.2673 241.183 90.3025C242.581 90.3377 243.593 91.0766 243.751 90.9094C243.909 90.7423 243.672 90.5312 243.232 90.1882C242.635 89.7547 241.92 89.5124 241.183 89.4932C240.456 89.4714 239.742 89.6809 239.142 90.0914C238.667 90.4345 238.544 90.7863 238.623 90.7863Z" fill="#263238"/>
<path d="M233.248 101.052C232.515 100.8 231.752 100.64 230.979 100.577C230.627 100.577 230.293 100.453 230.24 100.207C230.214 99.8362 230.307 99.4667 230.504 99.1515L231.63 96.4599C233.213 92.6247 234.365 89.4668 234.207 89.4228C234.049 89.3789 232.65 92.4224 231.067 96.2576C230.689 97.1988 230.328 98.1048 229.976 98.9668C229.743 99.3936 229.666 99.8878 229.756 100.365C229.804 100.493 229.88 100.608 229.979 100.701C230.078 100.794 230.198 100.863 230.328 100.902C230.525 100.963 230.729 100.998 230.935 101.008C231.701 101.122 232.479 101.136 233.248 101.052Z" fill="#263238"/>
<path d="M232.421 117.624C237 117.788 241.532 116.654 245.493 114.352C245.493 114.352 242.564 121.899 232.43 120.667L232.421 117.624Z" fill="#FF9A6C"/>
<path d="M233.389 104.385C233.72 103.934 234.155 103.569 234.658 103.322C235.16 103.076 235.715 102.954 236.274 102.969C236.63 102.984 236.976 103.084 237.285 103.26C237.594 103.435 237.857 103.683 238.051 103.98C238.245 104.331 238.339 104.728 238.322 105.129C238.304 105.529 238.177 105.917 237.954 106.25C237.69 106.59 237.33 106.842 236.921 106.975C236.512 107.109 236.072 107.116 235.659 106.998C234.887 106.724 234.194 106.268 233.635 105.669C233.454 105.524 233.307 105.341 233.204 105.133C233.153 105.018 233.134 104.891 233.148 104.766C233.162 104.641 233.209 104.521 233.284 104.42" fill="#FF9A6C"/>
<path d="M237.339 102.142C237.11 102.142 237.066 103.638 235.729 104.684C234.392 105.731 232.791 105.511 232.773 105.722C232.756 105.933 233.125 106.03 233.802 106.065C234.693 106.104 235.568 105.827 236.274 105.283C236.953 104.76 237.401 103.993 237.523 103.145C237.602 102.512 237.444 102.133 237.339 102.142Z" fill="#263238"/>
<path d="M238.165 85.0337C238.297 85.4208 239.696 85.28 241.332 85.5263C242.968 85.7726 244.288 86.2564 244.516 85.9222C244.613 85.755 244.393 85.3944 243.865 85.0425C243.167 84.5662 242.365 84.2645 241.526 84.1629C240.69 84.0338 239.836 84.1092 239.036 84.3828C238.421 84.5587 238.113 84.8578 238.165 85.0337Z" fill="#263238"/>
<path d="M225.473 85.359C225.71 85.6845 226.678 85.359 227.839 85.359C229 85.359 229.976 85.6317 230.214 85.3062C230.319 85.1479 230.214 84.8224 229.748 84.5058C229.185 84.123 228.519 83.9233 227.839 83.934C227.156 83.9243 226.488 84.1306 225.93 84.5234C225.534 84.8752 225.393 85.2007 225.473 85.359Z" fill="#263238"/>
<path d="M216.359 83.6791C216.766 82.1329 217.7 80.7768 218.998 79.8439C219.728 79.3601 220.573 79.0698 221.259 78.5245C222.719 77.3458 223.062 75.2874 223.968 73.6337C224.564 72.5715 225.403 71.6658 226.417 70.9914C227.431 70.317 228.59 69.8931 229.8 69.7546C231.814 69.5523 233.882 70.1592 235.843 69.6666C237.294 69.2972 238.561 68.356 240.021 68.0745C242.88 67.5379 245.537 69.5874 247.613 71.593C247.613 73.6337 245.985 75.006 244.419 76.3166C243.628 76.9687 242.705 77.4422 241.714 77.7049C240.722 77.9675 239.686 78.013 238.676 77.8384C237.119 77.5481 235.403 76.7564 234.049 77.5921C232.694 78.4277 232.571 80.6092 231.313 81.6999C229.51 83.2657 226.642 81.7967 224.355 82.474C222.596 83.0018 221.488 84.6907 220.318 86.1069C219.148 87.5231 217.389 88.8777 215.62 88.3587C215.687 86.7757 215.935 85.2056 216.359 83.6791Z" fill="#263238"/>
<path d="M237.787 75.0318C239.072 74.6623 241.693 73.8355 242.379 72.7272C243.067 71.5225 244.064 70.5232 245.267 69.832C246.47 69.1409 247.835 68.783 249.222 68.7952C250.614 68.9052 251.933 69.4623 252.983 70.3833C254.032 71.3043 254.756 72.54 255.046 73.9059C256.716 73.9653 258.339 74.4738 259.744 75.3778C261.15 76.2818 262.286 77.5479 263.033 79.0429C263.227 79.4298 263.394 79.8295 263.534 80.2392C264.041 81.1328 264.347 82.1267 264.429 83.1509C264.511 84.1751 264.367 85.2049 264.009 86.1679C263.569 87.329 262.813 88.6133 263.402 89.6864C263.991 90.7596 265.54 90.8299 266.736 91.2346C267.773 91.6222 268.64 92.3653 269.181 93.3317C269.722 94.2981 269.903 95.4251 269.691 96.5123C269.407 97.2488 269.281 98.0372 269.322 98.8258C269.614 99.5931 270.088 100.278 270.703 100.823C271.36 101.607 271.799 102.55 271.978 103.557C272.156 104.564 272.067 105.601 271.72 106.563C271.373 107.525 270.78 108.379 269.999 109.041C269.219 109.702 268.279 110.147 267.272 110.331C266.362 110.372 265.468 110.581 264.634 110.947C263.754 111.501 263.332 112.592 262.69 113.436C262.053 114.258 261.178 114.863 260.185 115.17C259.192 115.477 258.128 115.471 257.139 115.152C256.752 115.017 256.385 114.831 256.048 114.598C255.676 115.085 255.186 115.47 254.625 115.718C254.064 115.965 253.449 116.067 252.838 116.014L253.216 94.6211C253.099 94.8849 252.919 95.1159 252.692 95.2939C252.465 95.4718 252.198 95.5912 251.914 95.6415C248.484 96.4156 247.982 89.3434 248.747 87.4258C247.452 86.3682 246.297 85.1504 245.308 83.8017C244.206 81.658 243.661 79.2711 243.725 76.8614C242.52 76.9318 237.251 75.1901 237.787 75.0318Z" fill="#263238"/>
<path d="M252.301 96.363C252.416 94.1903 255.072 93.7241 256.954 94.8149C257.992 95.413 258.784 96.5741 258.714 98.9227C258.459 105.08 252.336 103.558 252.328 103.374C252.319 103.189 252.178 98.9139 252.301 96.363Z" fill="#FFBF9D"/>
<path d="M254.28 101.122C254.28 101.122 254.386 101.201 254.562 101.289C254.685 101.35 254.819 101.387 254.956 101.396C255.094 101.405 255.232 101.386 255.362 101.342C255.772 101.107 256.111 100.768 256.344 100.358C256.578 99.9476 256.698 99.4825 256.69 99.0106C256.723 98.4835 256.642 97.9555 256.453 97.4625C256.407 97.2631 256.312 97.0783 256.177 96.9247C256.042 96.7711 255.871 96.6537 255.679 96.5829C255.558 96.5454 255.427 96.5513 255.31 96.5994C255.193 96.6476 255.096 96.735 255.037 96.8468C254.949 97.0227 254.975 97.1458 254.949 97.1546C254.922 97.1634 254.817 97.0403 254.878 96.794C254.916 96.6416 255.006 96.5075 255.133 96.4157C255.308 96.2959 255.523 96.2487 255.731 96.2838C255.983 96.3439 256.214 96.4678 256.404 96.6434C256.593 96.8191 256.734 97.0406 256.813 97.2866C257.063 97.8374 257.169 98.4428 257.121 99.0458C257.025 100.277 256.347 101.412 255.441 101.632C255.275 101.675 255.102 101.679 254.934 101.644C254.766 101.609 254.609 101.535 254.474 101.43C254.289 101.271 254.263 101.131 254.28 101.122Z" fill="#FF9A6C"/>
<path d="M246.284 73.3696C246.765 73.6188 247.185 73.97 247.516 74.3988C248.214 75.7051 248.378 77.2314 247.973 78.6562V78.8145H248.123C249.011 79.0547 249.831 79.4974 250.52 80.1079C251.208 80.7183 251.745 81.48 252.09 82.3331C252.274 82.8146 252.381 83.3223 252.407 83.8372C252.392 84.3844 252.327 84.9291 252.213 85.4645C252.095 86.045 252.016 86.6327 251.976 87.2238C251.936 87.8656 252.109 88.5025 252.468 89.0358C253.268 90.0545 254.32 90.846 255.52 91.3317C256.57 91.7941 257.536 92.4272 258.379 93.2053C259.771 94.5699 260.592 96.4126 260.675 98.3599C260.722 99.6767 260.444 100.985 259.866 102.169C259.461 103.004 259.118 103.409 259.153 103.435C259.25 103.353 259.336 103.258 259.408 103.154C259.636 102.879 259.839 102.585 260.015 102.274C260.673 101.082 261.007 99.7387 260.983 98.3775C260.938 96.3366 260.106 94.3922 258.661 92.9502C257.798 92.1298 256.802 91.4634 255.714 90.9798C254.585 90.5183 253.592 89.7766 252.829 88.8247C252.151 87.8923 252.459 86.6784 252.635 85.5701C252.75 85.0083 252.812 84.4369 252.82 83.8636C252.796 83.2994 252.677 82.7434 252.468 82.2187C252.09 81.3197 251.507 80.5211 250.767 79.886C250.026 79.2509 249.148 78.7968 248.202 78.5594L248.316 78.753C248.513 78.0159 248.559 77.247 248.454 76.4916C248.348 75.7362 248.092 75.0096 247.701 74.3548C247.445 74.0204 247.113 73.752 246.733 73.5719C246.596 73.479 246.444 73.4105 246.284 73.3696Z" fill="#455A64"/>
<path d="M256.576 103.426C256.091 102.906 255.488 102.51 254.817 102.274H254.949C254.824 102.245 254.698 102.225 254.57 102.213C254.344 102.148 254.106 102.129 253.872 102.158C253.637 102.186 253.411 102.262 253.207 102.38C252.451 102.659 251.825 103.207 251.448 103.919C251.156 104.556 251.043 105.26 251.122 105.956C251.201 106.652 251.469 107.314 251.896 107.869C252.207 108.373 252.663 108.771 253.204 109.011C253.745 109.251 254.346 109.321 254.928 109.212C255.51 109.104 256.045 108.821 256.463 108.403C256.882 107.984 257.163 107.448 257.271 106.866C257.456 106.281 257.489 105.658 257.367 105.056C257.246 104.455 256.974 103.894 256.576 103.426Z" fill="#455A64"/>
<path d="M243.584 354.138L224.003 355.554C225.06 358.357 225.878 361.243 226.449 364.184C231.938 366.057 238.878 365.565 244.754 363.374L243.584 354.138Z" fill="#FFBF9D"/>
<path d="M226.062 361.325V362.495C226.062 362.495 206.2 370.192 205.945 373.93L245.202 374.203L244.763 361.14C238.887 363.805 232.773 364.069 226.062 361.325Z" fill="#FF725E"/>
<path d="M240.734 365.292C241.112 365.408 241.433 365.661 241.637 366C241.84 366.34 241.91 366.742 241.834 367.13C241.73 367.511 241.484 367.837 241.147 368.042C240.81 368.246 240.407 368.314 240.021 368.23C239.622 368.107 239.283 367.84 239.07 367.481C238.857 367.121 238.785 366.695 238.869 366.286C239.016 365.897 239.309 365.581 239.685 365.406C240.061 365.23 240.491 365.208 240.884 365.345" fill="white"/>
<path d="M245.185 374.212L245.079 371.071L207.493 371.951C207.493 371.951 205.733 372.699 205.927 373.93L245.185 374.212Z" fill="#263238"/>
<path d="M225.912 362.591C225.912 362.785 226.871 362.873 227.812 363.471C228.754 364.069 229.246 364.905 229.422 364.826C229.598 364.747 229.325 363.647 228.173 362.908C227.021 362.169 225.868 362.424 225.912 362.591Z" fill="#263238"/>
<path d="M221.778 364.272C221.734 364.456 222.561 364.791 223.212 365.609C223.863 366.427 224.039 367.28 224.223 367.271C224.408 367.262 224.549 366.18 223.722 365.186C222.895 364.192 221.787 364.087 221.778 364.272Z" fill="#263238"/>
<path d="M219.403 369.189C219.579 369.189 219.852 368.309 219.403 367.218C218.954 366.127 218.022 365.74 217.943 365.899C217.864 366.057 218.409 366.629 218.822 367.5C219.236 368.37 219.218 369.162 219.403 369.189Z" fill="#263238"/>
<path d="M310.708 341.903C311.931 347.013 316.716 362.442 316.716 362.442L299.282 364.201C298.86 361.633 292.025 351.007 290.926 347.726L310.708 341.903Z" fill="#FFBF9D"/>
<path d="M298.068 361.712L298.271 362.855C298.271 362.855 280.247 374.22 280.678 377.941L319.259 370.71L315.626 358.915C312.723 361.791 305.176 363.163 298.068 361.712Z" fill="#FF725E"/>
<path d="M313.224 362.838C313.617 362.881 313.98 363.067 314.244 363.361C314.509 363.654 314.656 364.035 314.658 364.43C314.629 364.825 314.449 365.194 314.156 365.461C313.863 365.727 313.479 365.872 313.083 365.864C312.668 365.816 312.286 365.616 312.009 365.302C311.733 364.989 311.583 364.584 311.588 364.166C311.657 363.764 311.879 363.405 312.207 363.162C312.534 362.92 312.943 362.813 313.347 362.864" fill="white"/>
<path d="M319.294 370.746L318.59 367.676L281.865 375.733C281.865 375.733 280.291 376.806 280.713 377.976L319.294 370.746Z" fill="#263238"/>
<path d="M298.156 363.032C298.2 363.216 299.159 363.128 300.197 363.559C301.235 363.99 301.877 364.685 302.044 364.58C302.211 364.474 301.719 363.436 300.443 362.935C299.168 362.433 298.086 362.864 298.156 363.032Z" fill="#263238"/>
<path d="M294.427 365.459C294.427 365.653 295.306 365.82 296.08 366.497C296.854 367.174 297.215 367.984 297.4 367.94C297.584 367.896 297.505 366.805 296.52 365.987C295.535 365.169 294.391 365.283 294.427 365.459Z" fill="#263238"/>
<path d="M293.037 370.737C293.213 370.737 293.301 369.752 292.623 368.81C291.946 367.869 290.987 367.623 290.934 367.799C290.882 367.975 291.533 368.415 292.078 369.197C292.623 369.98 292.843 370.754 293.037 370.737Z" fill="#263238"/>
<path d="M252.943 137.345C252.53 138.101 237.77 171.342 237.77 171.342L209.885 161.473L202.602 174.351C202.602 174.351 234.163 195.101 242.511 194.582C250.859 194.063 252.292 192.462 255.371 185.918C259.153 177.887 270.624 148.366 270.624 148.366C270.624 148.366 274.239 132.058 263.253 130.95C256.356 130.255 252.943 137.345 252.943 137.345Z" fill="#FF725E"/>
<path d="M229.519 206.061C229.519 206.061 200.772 281.753 202.25 291.447C203.728 301.14 221.241 358.95 221.241 358.95L246.469 357.243L232.976 290.057L255.705 243.437L251.782 196.166L228.032 198.611L229.519 206.061Z" fill="#263238"/>
<path d="M271.327 192.383L273.324 197.661C277.124 202.701 283.361 212.219 285.287 218.016C288.005 226.205 286.483 252.04 286.483 252.04L289.122 290.075C289.122 290.075 296.546 304.87 300.558 313.183C303.988 320.369 314.948 352.502 314.948 352.502L293.151 358.967C293.151 358.967 262.76 306.515 260.042 299.724C257.324 292.934 251.43 238.361 251.43 238.361L241.578 197.221L271.327 192.383Z" fill="#263238"/>
<path d="M278.356 207.328C278.356 207.231 277.019 207.601 274.837 207.759C273.571 207.845 272.3 207.827 271.037 207.706C267.945 207.396 264.95 206.45 262.241 204.927C261.134 204.31 260.083 203.598 259.101 202.798C257.412 201.435 256.55 200.379 256.462 200.441C256.612 200.724 256.801 200.985 257.025 201.215C257.255 201.51 257.504 201.789 257.772 202.05C258.112 202.412 258.474 202.752 258.854 203.071C259.825 203.924 260.877 204.681 261.995 205.331C263.373 206.122 264.829 206.768 266.34 207.258C267.861 207.705 269.423 207.999 271.002 208.137C272.291 208.241 273.587 208.224 274.872 208.085C275.366 208.034 275.856 207.958 276.341 207.856C276.711 207.799 277.076 207.714 277.432 207.601C277.751 207.553 278.062 207.461 278.356 207.328Z" fill="#455A64"/>
<path d="M232.58 291.949C231.08 290.634 229.355 289.603 227.487 288.905C225.679 288.056 223.734 287.537 221.743 287.375C221.743 287.524 224.303 288.105 227.284 289.371C230.266 290.638 232.509 292.081 232.58 291.949Z" fill="#455A64"/>
<path d="M288.665 289.899C287.507 289.993 286.387 290.354 285.393 290.955C284.326 291.411 283.382 292.113 282.639 293.005C283.663 292.528 284.659 291.994 285.621 291.404C286.664 290.961 287.68 290.459 288.665 289.899Z" fill="#455A64"/>
<path d="M233.776 200.036C233.809 200.255 233.862 200.47 233.934 200.678L234.488 202.438L236.582 209L239.749 218.675C240.065 219.555 240.338 220.523 240.707 221.481C241.091 222.45 241.575 223.375 242.15 224.244C242.74 225.145 243.434 225.975 244.217 226.715L246.531 229.046L250.542 233.057L250.471 232.925C251.395 240.367 252.231 246.92 252.793 251.662C253.093 253.975 253.339 255.84 253.515 257.186C253.612 257.801 253.682 258.294 253.735 258.672C253.749 258.846 253.784 259.017 253.84 259.182C253.852 259.01 253.852 258.836 253.84 258.663C253.84 258.276 253.761 257.784 253.708 257.168C253.559 255.822 253.356 253.949 253.11 251.626C252.565 246.876 251.808 240.323 250.946 232.873V232.794L250.893 232.741L246.9 228.73L244.578 226.399C243.814 225.678 243.135 224.873 242.555 223.997C241.998 223.152 241.527 222.253 241.147 221.314C240.787 220.435 240.505 219.441 240.188 218.544L236.925 208.868L234.691 202.358L234.057 200.599C233.978 200.405 233.884 200.216 233.776 200.036Z" fill="#455A64"/>
<g opacity="0.3">
<path d="M179.468 166.654C179.609 166.492 179.781 166.361 179.975 166.269C180.169 166.177 180.379 166.125 180.594 166.118L187.305 164.974C187.058 164.45 186.69 163.993 186.231 163.64C185.772 163.286 185.236 163.047 184.666 162.942C183.515 162.745 182.382 162.45 181.28 162.063C180.734 161.855 180.269 161.479 179.952 160.988C179.636 160.498 179.484 159.918 179.521 159.336C182.724 159.861 186.007 159.593 189.082 158.553L181.869 155.835C181.336 155.664 180.836 155.402 180.391 155.061C180.17 154.886 180 154.655 179.898 154.392C179.796 154.129 179.766 153.844 179.811 153.565C180.057 152.536 181.447 152.334 182.45 152.554C183.769 152.826 185.001 153.433 186.294 153.759C187.579 154.191 188.98 154.122 190.217 153.565C188.697 152.977 187.26 152.193 185.942 151.234C184.618 150.253 183.733 148.79 183.479 147.162C187.991 148.683 191.695 151.929 195.055 155.307C198.415 158.685 201.617 162.291 205.61 164.851L203.086 173.489C198.688 171.334 194.114 169.135 189.214 168.871C186.408 168.721 183.54 169.214 180.84 168.466C180.403 168.37 179.997 168.164 179.661 167.868C179.504 167.713 179.4 167.511 179.366 167.293C179.331 167.075 179.367 166.851 179.468 166.654Z" fill="black"/>
</g>
<path d="M183.11 144.136C183.4 144.364 190.622 148.595 190.622 148.595L195.803 152.994L193.428 145.957C193.428 145.957 193.911 144.197 195.257 146.212C196.603 148.226 201.344 156.178 201.344 156.178L205.522 162.036L200.016 170.006C200.016 170.006 195.943 167.666 194.043 166.883C192.143 166.1 187.983 165.432 186.778 165.731C185.572 166.03 179.741 165.581 179.503 164.895C179.266 164.209 180.154 163.584 181.728 163.716C183.303 163.848 188.669 163.558 188.862 162.511C189.056 161.464 179.063 160.022 178.307 159.406C177.55 158.79 177.383 157.647 180.066 157.726C182.749 157.805 187.983 158.984 188.862 157.981C189.742 156.978 187.332 156.363 187.041 156.134C186.751 155.905 181.166 153.856 180.004 152.668C179.274 151.912 180.066 150.372 181.641 150.83C183.215 151.287 189.241 154.295 190.393 154.128C191.545 153.961 188.801 151.489 188.37 151.208C185.458 149.238 182.388 147.769 182.344 145.807C182.329 145.488 182.39 145.169 182.523 144.878C182.656 144.587 182.857 144.333 183.11 144.136Z" fill="#FFBF9D"/>
<path d="M200.016 170.006L214.759 176.735L215.999 164.622L205.522 162.036L200.016 170.006Z" fill="#FFBF9D"/>
<path d="M254.166 118.741L236.863 127.229L231.515 134.574C231.515 134.574 223.986 169.187 224.927 174.685C225.868 180.183 231.841 198.98 232.509 198.84L271.363 192.383V192.295C271.878 189.787 271.514 187.178 270.333 184.906L266.815 178.098L273.377 146.678C273.377 146.678 274.644 137.521 270.457 133.184C266.111 128.663 256.382 122.875 256.382 122.875L254.166 118.741Z" fill="#FF725E"/>
<path d="M233.178 133.836C233.585 133.433 233.959 132.998 234.295 132.534C235.034 131.61 235.993 130.387 237.136 128.945L236.811 128.883C237.128 130.088 237.479 131.408 237.858 132.833L237.919 133.062L238.148 132.974C239.643 132.393 241.262 131.716 242.916 130.942C246.245 129.384 249.461 127.594 252.539 125.585C253.726 124.811 254.65 124.151 255.283 123.685C255.625 123.459 255.943 123.2 256.233 122.911C255.864 123.083 255.513 123.292 255.186 123.535C254.518 123.957 253.568 124.582 252.372 125.294C249.246 127.209 246.016 128.948 242.696 130.502C241.051 131.276 239.441 131.962 237.963 132.56L238.254 132.701C237.849 131.285 237.479 129.965 237.136 128.769L237.031 128.4L236.811 128.707L234.102 132.393C233.748 132.843 233.439 133.326 233.178 133.836Z" fill="#263238"/>
<path d="M232.21 134.706L232.158 139.738L236.028 198.611H228.111C228.111 198.611 217.31 173.225 217.617 165.185C217.846 159.353 222.35 148.552 224.523 141.822C225.434 139.221 226.494 136.675 227.698 134.196C229.378 132.692 229.712 132.437 229.712 132.067L229 128.83L232.518 125.602V131.663L232.21 134.706Z" fill="#FF725E"/>
<path d="M230.266 196.914C230.202 196.7 230.122 196.491 230.029 196.289C229.826 195.849 229.571 195.269 229.255 194.53C228.938 193.791 228.516 192.85 228.076 191.768L227.364 190.008C227.135 189.384 226.897 188.733 226.651 188.038C223.961 180.851 222.801 173.181 223.247 165.52C223.587 161.32 224.308 157.16 225.402 153.09C226.329 149.772 227.427 146.505 228.692 143.3C229.246 141.937 229.739 140.705 230.187 139.615L231.419 136.879L232.184 135.12C232.276 134.92 232.356 134.714 232.421 134.504C232.287 134.68 232.175 134.872 232.087 135.076C231.876 135.515 231.595 136.078 231.208 136.773C230.82 137.468 230.398 138.445 229.888 139.483C229.378 140.521 228.903 141.796 228.322 143.142C227.005 146.345 225.868 149.619 224.918 152.95C223.798 157.073 223.07 161.294 222.745 165.555C222.274 173.279 223.474 181.014 226.264 188.232L227.02 190.202L227.777 191.961C228.243 193.034 228.657 193.958 229.035 194.688L229.914 196.386C230.013 196.573 230.131 196.75 230.266 196.914Z" fill="#263238"/>
<path d="M225.728 138.506C225.497 138.773 225.302 139.069 225.147 139.386C224.795 139.975 224.338 140.864 223.792 141.981C222.422 144.893 221.281 147.908 220.379 150.997C219.446 154.086 218.798 157.254 218.444 160.462C218.348 161.432 218.301 162.407 218.303 163.382C218.29 163.743 218.322 164.103 218.4 164.455C218.479 164.455 218.471 162.934 218.796 160.497C219.252 157.333 219.943 154.208 220.863 151.147C221.767 148.076 222.854 145.062 224.118 142.122C225.103 139.896 225.798 138.542 225.728 138.506Z" fill="#263238"/>
<path d="M252.943 137.345C252.53 138.102 237.77 171.343 237.77 171.343L209.885 161.473L202.602 174.351C202.602 174.351 234.163 195.102 242.511 194.583C250.859 194.064 252.292 192.463 255.371 185.918C258.186 179.945 266.067 163.408 269.911 155.342C271.862 151.283 272.619 146.753 272.093 142.28C271.477 137.169 269.384 131.539 263.209 130.941C256.347 130.29 252.943 137.345 252.943 137.345Z" fill="#FF725E"/>
<path d="M254.914 134.574C255.637 133.99 256.404 133.464 257.21 132.999C259.231 132.052 261.454 131.617 263.684 131.733C265.905 131.961 268.015 132.822 269.762 134.213C270.477 134.806 271.134 135.466 271.723 136.184C271.648 135.938 271.529 135.709 271.372 135.506C270.973 134.936 270.503 134.418 269.973 133.967C268.219 132.44 266.033 131.499 263.719 131.275C261.407 131.15 259.104 131.648 257.051 132.718C256.443 133.06 255.886 133.487 255.397 133.985C255.046 134.328 254.887 134.548 254.914 134.574Z" fill="#263238"/>
<path d="M244.472 180.843C244.38 180.254 244.196 179.685 243.927 179.154C243.37 177.841 242.68 176.588 241.869 175.415C241.06 174.24 240.131 173.153 239.098 172.169C238.697 171.731 238.231 171.357 237.717 171.061C237.62 171.167 239.634 172.961 241.49 175.679C243.346 178.397 244.34 180.895 244.472 180.843Z" fill="#263238"/>
<path d="M269.876 155.334C269.876 155.334 269.797 155.465 269.665 155.738C269.533 156.011 269.322 156.424 269.067 156.934L266.806 161.588L258.582 178.749C257.714 180.561 256.808 182.455 255.864 184.432C254.961 186.508 253.893 188.508 252.671 190.413C252.001 191.38 251.127 192.187 250.111 192.779C249.032 193.348 247.867 193.734 246.663 193.923C245.414 194.141 244.154 194.291 242.889 194.372C241.604 194.445 240.315 194.281 239.089 193.888C236.503 193.101 233.985 192.106 231.56 190.915C229.053 189.736 226.537 188.425 224.004 187.044C218.946 184.282 213.809 181.23 208.619 178.002C206.613 176.753 204.634 175.495 202.699 174.228L202.769 174.536C205.273 170.103 207.71 165.795 210.079 161.614L209.815 161.72L237.708 171.554L237.875 171.607L237.946 171.448L248.906 146.696C250.199 143.74 251.219 141.418 251.914 139.817L252.697 138.058C252.864 137.644 252.943 137.424 252.943 137.424L252.644 138.022C252.451 138.445 252.178 139.043 251.817 139.782C251.096 141.374 250.058 143.678 248.712 146.608C246.073 152.545 242.229 161.025 237.603 171.316L237.831 171.22L209.965 161.315L209.789 161.253L209.692 161.421L202.373 174.325L202.268 174.509L202.444 174.633C204.385 175.899 206.361 177.157 208.373 178.406C213.571 181.643 218.717 184.696 223.792 187.458C226.335 188.839 228.85 190.149 231.375 191.328C233.824 192.524 236.366 193.521 238.975 194.31C240.249 194.717 241.589 194.884 242.924 194.803C244.204 194.715 245.479 194.559 246.742 194.336C247.972 194.132 249.161 193.728 250.26 193.14C251.31 192.511 252.211 191.662 252.899 190.651C254.13 188.724 255.201 186.7 256.101 184.599L258.898 178.855L266.991 161.658C267.932 159.644 268.671 158.069 269.173 156.978L269.727 155.756C269.823 155.474 269.876 155.334 269.876 155.334Z" fill="#263238"/>
<g opacity="0.3">
<path d="M150.088 158.816L164.831 148.278L161.145 143.141L151.267 150.205L138.196 133.976L133.27 137.943L150.088 158.816Z" fill="black"/>
</g>
</svg>
