<svg width="76" height="47" viewBox="0 0 76 47" fill="none" xmlns="http://www.w3.org/2000/svg">
<path style="mix-blend-mode:multiply" fill-rule="evenodd" clip-rule="evenodd" d="M5.60835 29.5124C6.81752 29.3032 8.35815 29.7495 9.89613 29.9204C12.4338 30.2035 15.1597 30.4764 17.8512 31.267C21.0332 32.2055 23.9872 33.2664 25.9786 33.9117C33.231 36.258 43.1138 41.0857 49.9233 45.3881C51.0636 46.1098 52.1242 46.7346 52.8826 46.5536C53.641 46.3725 54.8422 44.7683 56.1124 42.4731C58.2337 38.6348 61.2222 32.6493 65.6425 27.1023C67.7639 24.4398 71.4179 21.3565 74.6583 21.6676C74.5569 21.5168 74.4892 21.3475 74.4594 21.1703C74.4408 20.8209 74.5443 20.4562 74.4408 20.1196C74.2897 19.6299 73.9264 19.3545 73.7514 18.875C73.6321 18.5409 73.876 18.1609 73.8203 17.809C73.7832 17.5897 73.5552 17.4366 73.4836 17.2275C73.3218 16.7659 73.359 16.2354 73.115 15.8044C72.9453 15.5112 72.476 15.455 72.3195 15.1592C71.9456 14.4987 71.7335 14.0243 71.3304 13.374C71.1342 13.0775 70.9143 12.7961 70.6728 12.5324C70.0046 11.7902 69.7076 11.02 68.9439 10.3672C68.6495 10.1121 68.0688 10.2652 67.7506 10.0433C67.2813 9.72193 67.2521 9.0053 66.8093 8.65336C66.2445 8.20705 64.4228 8.2606 63.675 7.19967C63.5663 7.04411 63.4469 6.71767 63.2799 6.6182C62.8768 6.36317 62.3226 6.47539 61.901 6.26371C61.6617 6.09073 61.4121 5.93148 61.1533 5.78681C60.8695 5.68479 60.8112 5.87607 60.5248 5.78681C60.0713 5.63379 59.7903 5.16453 59.3474 4.98091C58.7879 4.74628 58.1171 4.81768 57.5682 4.5601C57.1465 4.36372 56.9715 3.79501 56.526 3.65474C55.9586 3.47877 55.3275 3.79501 54.7441 3.6879C54.4789 3.63689 54.3437 3.2671 54.0706 3.20334C53.6251 3.09622 53.1478 3.2671 52.6943 3.20334C52.0659 3.11408 51.4772 2.81059 50.8382 2.74938C50.6419 2.73153 50.4935 3.00441 50.3078 2.97636C49.4964 2.8871 48.7327 2.5224 47.9213 2.42549C47.627 2.39233 47.3353 2.65757 47.0489 2.58871C46.4549 2.44334 45.9882 1.96133 45.4022 1.82362C44.7338 1.651 44.0386 1.59571 43.3498 1.66039C42.9468 1.7012 42.6471 2.14496 42.2414 2.14496C41.8357 2.14496 41.6315 1.69355 41.2682 1.66039C40.905 1.62724 40.539 1.98939 40.1572 1.95113C39.4253 1.87717 38.7226 1.35946 37.9908 1.44107C37.1263 1.54818 36.5695 1.99959 35.7209 2.20616C35.225 2.32348 34.7212 2.20616 34.2094 2.23677C33.6977 2.26737 33.2867 2.59891 32.7987 2.62441C32.2445 2.65502 31.7062 2.39234 31.152 2.39999C30.749 2.39999 30.3937 2.75193 29.9933 2.73918C29.3966 2.71878 28.6992 2.44845 28.1106 2.52751C27.2832 2.63972 26.7317 3.07327 25.9097 3.20844C25.4854 3.27729 25.0929 2.8565 24.666 2.88455C24.2391 2.9126 23.9103 3.3079 23.4887 3.36911C23.0008 3.44052 22.7886 3.2926 22.314 3.41756C22.0859 3.47622 21.8446 3.7389 21.6404 3.85366C21.3753 4.00158 21.0067 3.85367 20.7336 3.98373C20.4074 4.14185 20.2032 4.37393 19.8585 4.45044C19.2672 4.58305 18.6971 4.41219 18.111 4.5652C17.525 4.71822 17.3155 5.14668 16.7852 5.3303C16.3875 5.47567 15.8624 5.39916 15.4594 5.52412C14.8574 5.7103 14.3987 6.1923 13.8127 6.42948C13.2267 6.66666 12.569 6.6233 12.0307 6.91404C11.6781 7.10531 11.5667 7.56437 11.2591 7.81941C11.0735 7.97243 10.7897 7.97752 10.5856 8.11014C10.3045 8.29376 10.0977 8.57175 9.81392 8.75792C9.26502 9.11241 8.6074 9.31644 8.09827 9.72704C7.76151 9.99992 7.66075 10.4921 7.32664 10.7599C7.06147 10.9741 6.60273 10.8976 6.38529 11.1476C5.95307 11.6576 5.85495 12.3539 5.47841 12.8945C5.35908 13.0628 5.18143 13.0679 5.0568 13.2337C4.93217 13.3995 4.92686 13.6392 4.80488 13.7999C4.42039 14.3099 3.99082 14.6236 3.66201 15.172C3.52412 15.4066 3.60897 15.7509 3.49495 15.9957C3.29872 16.4242 2.88772 16.7047 2.72332 17.1434C2.55891 17.582 2.67823 17.9671 2.58808 18.3879C2.5483 18.5766 2.38389 18.8291 2.35207 19.0204C2.26722 19.5304 2.35207 19.8849 2.25131 20.3924C2.1585 20.8566 1.94371 21.3004 1.86415 21.7671C1.80623 22.2547 1.77878 22.7453 1.78195 23.2361C1.76074 23.6773 1.63612 24.0802 1.71302 24.5112C1.78197 24.8861 2.05508 25.1054 2.18501 25.465C2.29108 25.7609 2.21153 26.1026 2.30169 26.401C2.39185 26.6994 2.482 26.9544 2.56686 27.2757C2.67027 27.7271 2.56686 28.1862 2.7021 28.6325C2.79756 28.9487 3.07069 29.1706 3.20592 29.4741C3.41806 29.9485 3.44457 30.4432 3.70973 30.8946L3.74952 30.9609C3.92718 30.0938 4.56358 29.6858 5.65077 29.4869L5.60835 29.5124Z" fill="url(#paint0_radial_70_35796)"/>
<path fill-rule="evenodd" clip-rule="evenodd" d="M5.93968 11.4689C4.74377 12.7798 3.8793 14.0524 2.79211 15.4041C2.3811 15.9141 1.91175 16.3834 1.53256 16.9189C0.490447 18.3905 -0.0770143 19.5713 0.0078397 21.3794C0.0608734 22.4939 0.182852 23.6033 0.307482 24.7102C0.410897 25.6487 0.559406 26.5795 0.686687 27.5155C0.798058 28.3112 0.86435 29.1145 1.01815 29.9051C1.06323 30.127 1.5644 31.9964 2.14511 31.1956C2.41028 30.836 2.51899 30.3922 2.72582 29.9995C3.07849 29.3339 3.43649 29.0049 4.26646 28.9641C4.78623 28.9496 5.3064 28.9709 5.823 29.0278C7.09051 29.1426 8.35271 29.3211 9.61757 29.4435C14.502 29.9153 16.5968 30.1933 21.3327 31.8485C24.4538 32.94 27.307 34.3427 30.2132 35.8805C31.8758 36.7629 33.4801 37.7499 35.1321 38.6527C36.617 39.4663 38.1338 40.2212 39.6214 41.0271C42.7186 42.7052 44.3069 43.9982 47.0938 45.888C47.7011 46.2985 48.3295 46.6709 48.7246 46.6377C49.1197 46.6046 49.7164 46.0843 50.2414 45.5539C50.6532 45.1375 51.0359 44.6953 51.3869 44.2302C55.2902 39.0123 58.9495 34.4625 63.2824 29.4588C64.9665 27.5054 66.7976 25.6736 68.7608 23.9782C69.0737 23.7028 69.6199 23.2131 70.251 22.7031C71.4735 21.6829 73.0088 20.4741 73.7619 20.2139C74.114 20.1229 74.483 20.1099 74.8411 20.1757C75.0334 20.1901 75.2241 20.2199 75.4112 20.265C75.7984 20.3644 75.9999 20.6169 75.8249 20.8949C76.3287 20.3644 75.6711 19.0306 75.4775 18.6634C74.2445 16.3247 72.9319 14.8379 71.1871 12.8155C70.259 11.7393 69.3097 10.6783 68.371 9.6123C66.9497 7.99796 66.0455 6.77125 64.0965 5.70777C61.5323 4.3102 59.2545 3.72107 56.4755 2.93558C54.9031 2.49182 53.3465 2.00216 51.7688 1.58136C49.3186 0.925932 47.3988 0.755061 44.8744 0.737209C43.6811 0.737209 42.4879 0.793314 41.2946 0.783113C40.1013 0.772912 38.985 0.724457 37.8315 0.688753C34.5946 0.532196 31.3497 0.719503 28.1555 1.24727C25.1034 1.71143 23.3321 2.3439 20.4364 3.22121C19.5349 3.4941 18.6227 3.73127 17.7185 3.98631C14.4012 4.92992 13.1178 5.40938 10.2937 7.55674C8.7147 8.71287 7.26761 10.0268 5.97679 11.4766L5.93968 11.4689Z" fill="url(#paint1_radial_70_35796)"/>
<path style="mix-blend-mode:screen" opacity="0.5" fill-rule="evenodd" clip-rule="evenodd" d="M21.3328 31.8485C24.4539 32.9401 27.3071 34.3427 30.2133 35.8806C31.8759 36.763 33.4802 37.7499 35.1322 38.6528C36.6172 39.4663 38.1339 40.2212 39.6215 41.0271C42.7187 42.7052 44.307 43.9982 47.094 45.888C47.7012 46.2986 48.3297 46.6709 48.7248 46.6378C49.1199 46.6046 49.7165 46.0844 50.2415 45.5539C50.6533 45.1375 51.036 44.6953 51.3871 44.2303C55.2903 39.0123 58.9497 34.4626 63.2825 29.4589C64.7518 27.7455 66.3365 26.1268 68.0264 24.6133C65.4728 25.8221 64.2371 25.3784 61.9275 26.2378C59.96 26.9723 59.4111 28.7575 57.95 29.8695C56.0302 31.3334 49.1835 29.8899 46.5477 29.9434C45.1832 29.9835 43.828 30.1752 42.5092 30.5147C39.9026 31.1472 36.3202 32.9681 33.5651 33.065C30.7622 33.1645 28.4765 32.6111 26.2835 31.8613C24.3319 31.1931 22.6401 30.6295 21.0385 30.1653C16.6526 28.8902 14.1759 28.8902 9.60441 28.7295C6.79362 28.6249 4.07565 28.5153 3.44189 29.1707C3.69612 29.0382 3.98009 28.9673 4.26922 28.9641C4.78898 28.9496 5.30916 28.971 5.82576 29.0279C7.09327 29.1426 8.35547 29.3212 9.62032 29.4436C14.5047 29.9154 16.5996 30.1934 21.3355 31.8485H21.3328Z" fill="url(#paint2_radial_70_35796)"/>
<path style="mix-blend-mode:multiply" fill-rule="evenodd" clip-rule="evenodd" d="M2.91411 29.4053C3.25883 28.0281 3.80242 25.7379 4.71725 24.705C5.34305 23.9986 6.07227 23.3712 6.60791 22.601C7.14355 21.8308 7.03748 21.2264 5.82831 21.3055C5.23992 21.3783 4.64755 21.4175 4.05433 21.4228C-0.0504816 21.0403 0.994284 17.3423 4.02251 16.3553C5.04076 16.0187 6.16242 15.9651 7.13824 15.5265C8.97851 14.6951 8.59137 13.8637 7.99739 13.198C7.13824 12.2366 6.62912 11.9458 7.50152 10.5228C8.72925 8.52076 12.7466 6.18723 15.0907 5.77408C17.4772 5.36093 20.0732 5.41193 22.5446 4.49892C27.4449 2.6831 28.0176 0.642848 35.6147 1.31103C37.1845 1.4513 38.688 2.01747 40.2525 2.20364C44.1028 2.6627 48.6133 1.42324 52.148 2.04552C54.1447 2.39491 61.6941 4.66469 62.7203 6.28414C63.0597 6.81716 62.9854 7.51339 63.2161 8.09996C63.6165 9.12009 65.7246 9.46438 66.9948 10.2346C68.2644 11.0265 69.4517 11.9344 70.5401 12.9456C71.3568 13.6852 74.1199 16.6512 73.9024 17.8677C73.8574 18.1227 73.6372 18.3293 73.5869 18.5843C73.3429 19.9615 73.6134 20.1578 72.2876 20.8796C70.9617 21.6013 70.6965 22.2848 69.8215 23.0652L70.2537 22.7031C71.4761 21.6829 73.0115 20.4741 73.7645 20.214C74.1167 20.1229 74.4856 20.1099 74.8438 20.1757C75.0361 20.1901 75.2268 20.2199 75.4139 20.265C75.801 20.3644 75.923 20.52 75.8276 20.8949C76.3314 20.3644 75.6737 19.0306 75.4802 18.6634C74.2471 16.3247 72.9346 14.8379 71.1898 12.8155C70.2617 11.7393 69.3124 10.6783 68.3737 9.6123C66.9524 7.99796 66.0481 6.77125 64.0992 5.70777C61.535 4.3102 59.2572 3.72107 56.4782 2.93558C54.9058 2.49182 53.3492 2.00216 51.7714 1.58136C49.3213 0.925932 47.4015 0.755061 44.8771 0.737209C43.6838 0.737209 42.4905 0.793314 41.2973 0.783113C40.104 0.772912 38.9877 0.724457 37.8342 0.688753C34.5973 0.532196 31.3523 0.719503 28.1582 1.24727C25.1061 1.71143 23.3348 2.3439 20.4391 3.22121C19.5375 3.4941 18.6254 3.73127 17.7211 3.98631C14.4039 4.92992 13.1205 5.40938 10.2964 7.55674C8.71737 8.71287 7.27028 10.0268 5.97946 11.4766C4.78355 12.7874 3.9191 14.06 2.83191 15.4117C2.42089 15.9218 1.95155 16.391 1.57235 16.9266C0.530242 18.3981 -0.0372194 19.5789 0.0476346 21.3871C0.100668 22.5016 0.222647 23.611 0.347277 24.7178C0.450692 25.6563 0.599185 26.5872 0.726466 27.5232C0.837837 28.3189 0.904129 29.1222 1.05793 29.9128C1.10301 30.1347 1.60417 32.0041 2.18489 31.2033C2.38729 30.8728 2.55602 30.5244 2.68872 30.1627C2.80309 29.922 2.89192 29.6708 2.95389 29.4129L2.91411 29.4053Z" fill="url(#paint3_radial_70_35796)"/>
<path opacity="0.5" fill-rule="evenodd" clip-rule="evenodd" d="M2.73383 29.9997C3.08651 29.334 3.44448 29.005 4.27446 28.9642C4.79423 28.9498 5.3144 28.9711 5.831 29.028C7.09851 29.1428 8.36071 29.3213 9.62556 29.4437C14.51 29.9155 16.6048 30.1935 21.3407 31.8486C24.4618 32.9402 27.315 34.3428 30.2212 35.8807C31.8838 36.7631 33.4881 37.7501 35.1401 38.6529C36.6251 39.4664 38.1418 40.2213 39.6294 41.0272C42.7266 42.7053 44.3149 43.9983 47.1019 45.8881C47.7091 46.2987 48.3375 46.6711 48.7326 46.6379C49.1277 46.6047 49.7244 46.0845 50.2494 45.554C50.6612 45.1376 51.0439 44.6955 51.3949 44.2304C53.2511 41.7311 55.0781 39.3848 56.937 37.0691C54.6512 39.7419 52.4291 42.5957 50.3077 45.0797C49.621 45.8881 49.0959 46.2044 48.8042 46.212C48.3835 46.1927 47.9782 46.0533 47.6401 45.8116C45.8556 44.7532 44.3388 43.5367 42.7292 42.5472C40.6689 41.272 38.5449 40.3539 36.45 39.1833C34.0131 37.824 31.7141 36.4035 29.2083 35.136C27.2637 34.1567 25.2926 33.2539 23.295 32.4276C21.3328 31.6191 19.0205 30.7087 16.9495 30.2139C14.5418 29.6375 12.2905 29.4692 9.84831 29.1938C8.17775 29.0101 6.28975 28.8546 4.62979 28.7883C3.65928 28.7475 3.10771 28.7245 2.65958 29.6324C2.43949 30.0762 2.39442 30.5684 2.16107 31.03C1.99137 31.3641 1.76332 31.4176 1.52732 31.1167C1.44955 31.014 1.3787 30.9067 1.31519 30.7954C1.52202 31.257 1.82166 31.6319 2.14251 31.1881C2.40768 30.8285 2.5164 30.3848 2.72323 29.992L2.73383 29.9997Z" fill="#E2931D"/>
<path style="mix-blend-mode:screen" fill-rule="evenodd" clip-rule="evenodd" d="M40.3162 34.6769C39.262 34.8168 38.1982 34.879 37.1341 34.8631C36.3758 34.8631 35.6386 34.5418 34.8802 34.5851C34.5143 34.6081 34.0025 34.7152 33.8858 35.0518C33.7691 35.3885 34.1139 35.7608 34.4162 35.9342C35.1357 36.3739 35.9538 36.6423 36.8027 36.7172C37.5504 36.7554 38.2399 36.1408 38.9903 36.1689C40.9579 36.2403 42.875 36.7529 44.824 37.0156C47.5738 37.3905 47.953 37.7093 50.7214 36.7809C52.8905 36.0541 54.4337 35.0136 56.2899 33.7461C57.332 33.032 58.0003 31.8996 56.2396 32.6469C53.8159 33.667 51.859 34.1771 49.2629 34.0674C48.3958 34.0292 47.5473 33.7894 46.6802 33.7945C44.0816 33.8175 42.6152 34.3786 40.3162 34.6769Z" fill="url(#paint4_radial_70_35796)"/>
<path style="mix-blend-mode:screen" fill-rule="evenodd" clip-rule="evenodd" d="M4.57153 28.676C7.1967 28.4491 13.3804 28.9081 17.1299 29.7778C24.0773 31.3921 29.8978 34.58 36.6278 38.5075C37.9245 39.2726 39.2556 40.0377 40.6345 40.8538C43.0024 42.2386 45.0098 43.6897 47.2319 45.0287C49.165 46.1916 49.1941 45.628 50.87 43.8785C49.9233 45.2199 49.3214 45.9646 48.7486 45.9672C48.2554 45.9672 47.505 45.5132 46.4258 44.845C44.3256 43.5444 42.4482 42.2769 40.4356 41.1267C39.1867 40.41 37.8608 39.8056 36.5058 39.0584C31.4676 36.276 27.8374 34.3046 24.3558 32.7336C21.9948 31.6304 19.5242 30.7589 16.9814 30.1323C13.6085 29.3391 8.59149 28.8036 4.58479 28.676H4.57153Z" fill="url(#paint5_radial_70_35796)"/>
<path style="mix-blend-mode:screen" fill-rule="evenodd" clip-rule="evenodd" d="M41.7136 35.271C41.7136 35.271 43.0712 35.3909 43.2622 35.4291C44.0365 35.5821 45.8422 36.2835 47.1999 35.6969C47.4253 35.6 49.544 35.0465 49.7694 34.9853C51.1562 34.6181 50.4854 34.4039 49.5414 34.3146C49.1993 34.2815 48.6769 34.2101 48.2155 34.1641C47.4545 34.0876 46.7226 33.9805 46.5768 33.978C45.9457 33.9601 40.0191 34.488 41.7136 35.271Z" fill="url(#paint6_radial_70_35796)"/>
<defs>
<radialGradient id="paint0_radial_70_35796" cx="0" cy="0" r="1" gradientUnits="userSpaceOnUse" gradientTransform="translate(38.8976 9.83415) scale(50.6658 48.7288)">
<stop stop-color="#582E27"/>
<stop offset="0.1" stop-color="#5D342D"/>
<stop offset="0.24" stop-color="#6A453F"/>
<stop offset="0.4" stop-color="#80615B"/>
<stop offset="0.58" stop-color="#9F8783"/>
<stop offset="0.77" stop-color="#C7B9B7"/>
<stop offset="0.97" stop-color="#F7F5F4"/>
<stop offset="1" stop-color="white"/>
</radialGradient>
<radialGradient id="paint1_radial_70_35796" cx="0" cy="0" r="1" gradientUnits="userSpaceOnUse" gradientTransform="translate(20.9641 34.1004) scale(40.3852 38.8413)">
<stop stop-color="#FFEA00"/>
<stop offset="1" stop-color="#EB9400"/>
</radialGradient>
<radialGradient id="paint2_radial_70_35796" cx="0" cy="0" r="1" gradientUnits="userSpaceOnUse" gradientTransform="translate(37.2217 46.6658) scale(31.1626 29.9713)">
<stop stop-color="#FFFF66"/>
<stop offset="1" stop-color="#2E2415"/>
</radialGradient>
<radialGradient id="paint3_radial_70_35796" cx="0" cy="0" r="1" gradientUnits="userSpaceOnUse" gradientTransform="translate(26.3762 33.6439) scale(66.6263 64.0792)">
<stop stop-color="white"/>
<stop offset="1" stop-color="#EBD147"/>
</radialGradient>
<radialGradient id="paint4_radial_70_35796" cx="0" cy="0" r="1" gradientUnits="userSpaceOnUse" gradientTransform="translate(41.0268 27.8956) scale(17.4189 16.753)">
<stop stop-color="#FFFF66"/>
<stop offset="1"/>
</radialGradient>
<radialGradient id="paint5_radial_70_35796" cx="0" cy="0" r="1" gradientUnits="userSpaceOnUse" gradientTransform="translate(19.2778 31.2723) scale(31.0141 29.8285)">
<stop stop-color="#FFFFCC"/>
<stop offset="1"/>
</radialGradient>
<radialGradient id="paint6_radial_70_35796" cx="0" cy="0" r="1" gradientUnits="userSpaceOnUse" gradientTransform="translate(41.3715 28.2627) scale(11.9591 11.5019)">
<stop stop-color="#FFFFCC"/>
<stop offset="1"/>
</radialGradient>
</defs>
</svg>
