<svg width="61" height="9" viewBox="0 0 61 9" fill="none" xmlns="http://www.w3.org/2000/svg">
<path d="M4.46355 0.313075L3.24299 2.64013L0.512158 3.0145C0.0224388 3.08129 -0.173823 3.64899 0.181317 3.97415L2.15701 5.78447L1.68973 8.34177C1.60561 8.80402 2.12337 9.15026 2.55701 8.93408L5 7.72661L7.44299 8.93408C7.87663 9.14851 8.39439 8.80402 8.31028 8.34177L7.84299 5.78447L9.81868 3.97415C10.1738 3.64899 9.97756 3.08129 9.48784 3.0145L6.75701 2.64013L5.53645 0.313075C5.31776 -0.101718 4.68411 -0.10699 4.46355 0.313075Z" fill="#F83F3F"/>
<path d="M17.4636 0.313075L16.243 2.64013L13.5122 3.0145C13.0224 3.08129 12.8262 3.64899 13.1813 3.97415L15.157 5.78447L14.6897 8.34177C14.6056 8.80402 15.1234 9.15026 15.557 8.93408L18 7.72661L20.443 8.93408C20.8766 9.14851 21.3944 8.80402 21.3103 8.34177L20.843 5.78447L22.8187 3.97415C23.1738 3.64899 22.9776 3.08129 22.4878 3.0145L19.757 2.64013L18.5364 0.313075C18.3178 -0.101718 17.6841 -0.10699 17.4636 0.313075Z" fill="#F83F3F"/>
<path d="M30.4636 0.313075L29.243 2.64013L26.5122 3.0145C26.0224 3.08129 25.8262 3.64899 26.1813 3.97415L28.157 5.78447L27.6897 8.34177C27.6056 8.80402 28.1234 9.15026 28.557 8.93408L31 7.72661L33.443 8.93408C33.8766 9.14851 34.3944 8.80402 34.3103 8.34177L33.843 5.78447L35.8187 3.97415C36.1738 3.64899 35.9776 3.08129 35.4878 3.0145L32.757 2.64013L31.5364 0.313075C31.3178 -0.101718 30.6841 -0.10699 30.4636 0.313075Z" fill="#F83F3F"/>
<path d="M43.4636 0.313075L42.243 2.64013L39.5122 3.0145C39.0224 3.08129 38.8262 3.64899 39.1813 3.97415L41.157 5.78447L40.6897 8.34177C40.6056 8.80402 41.1234 9.15026 41.557 8.93408L44 7.72661L46.443 8.93408C46.8766 9.14851 47.3944 8.80402 47.3103 8.34177L46.843 5.78447L48.8187 3.97415C49.1738 3.64899 48.9776 3.08129 48.4878 3.0145L45.757 2.64013L44.5364 0.313075C44.3178 -0.101718 43.6841 -0.10699 43.4636 0.313075Z" fill="#F83F3F"/>
<path d="M55.4636 0.313075L54.243 2.64013L51.5122 3.0145C51.0224 3.08129 50.8262 3.64899 51.1813 3.97415L53.157 5.78447L52.6897 8.34177C52.6056 8.80402 53.1234 9.15026 53.557 8.93408L56 7.72661L58.443 8.93408C58.8766 9.14851 59.3944 8.80402 59.3103 8.34177L58.843 5.78447L60.8187 3.97415C61.1738 3.64899 60.9776 3.08129 60.4878 3.0145L57.757 2.64013L56.5364 0.313075C56.3178 -0.101718 55.6841 -0.10699 55.4636 0.313075Z" fill="#828181"/>
</svg>
