<svg width="26" height="25" viewBox="0 0 26 25" fill="none" xmlns="http://www.w3.org/2000/svg">
<path d="M17.7386 12.5L24.8459 5.39276C25.718 4.5206 25.718 3.10653 24.8459 2.23366L23.2663 0.654119C22.3942 -0.21804 20.9801 -0.21804 20.1072 0.654119L13 7.76136L5.89276 0.654119C5.0206 -0.21804 3.60653 -0.21804 2.73366 0.654119L1.15412 2.23366C0.28196 3.10582 0.28196 4.51989 1.15412 5.39276L8.26136 12.5L1.15412 19.6072C0.28196 20.4794 0.28196 21.8935 1.15412 22.7663L2.73366 24.3459C3.60582 25.218 5.0206 25.218 5.89276 24.3459L13 17.2386L20.1072 24.3459C20.9794 25.218 22.3942 25.218 23.2663 24.3459L24.8459 22.7663C25.718 21.8942 25.718 20.4801 24.8459 19.6072L17.7386 12.5Z" fill="#797575"/>
</svg>
